<?xml version="1.0" encoding="utf-8" standalone="no"?>
<!DOCTYPE svg PUBLIC "-//W3C//DTD SVG 1.1//EN"
  "http://www.w3.org/Graphics/SVG/1.1/DTD/svg11.dtd">
<!-- Created with matplotlib (http://matplotlib.org/) -->
<svg height="432pt" version="1.1" viewBox="0 0 576 432" width="576pt" xmlns="http://www.w3.org/2000/svg" xmlns:xlink="http://www.w3.org/1999/xlink">
 <defs>
  <style type="text/css">
*{stroke-linecap:butt;stroke-linejoin:round;stroke-miterlimit:100000;}
  </style>
 </defs>
 <g id="figure_1">
  <g id="patch_1">
   <path d="M 0 432 
L 576 432 
L 576 0 
L 0 0 
z
" style="fill:#ffffff;"/>
  </g>
  <g id="axes_1">
   <g id="patch_2">
    <path d="M 72 388.8 
L 518.4 388.8 
L 518.4 43.2 
L 72 43.2 
z
" style="fill:#e5e5e5;"/>
   </g>
   <g id="matplotlib.axis_1">
    <g id="xtick_1">
     <g id="line2d_1">
      <path clip-path="url(#p2935858bf8)" d="M 72 388.8 
L 72 43.2 
" style="fill:none;stroke:#ffffff;stroke-linecap:square;stroke-width:0.5;"/>
     </g>
     <g id="line2d_2">
      <defs>
       <path d="M 0 0 
L 0 4 
" id="mfa57e15281" style="stroke:#555555;stroke-width:0.5;"/>
      </defs>
      <g>
       <use style="fill:#555555;stroke:#555555;stroke-width:0.5;" x="72.0" xlink:href="#mfa57e15281" y="388.8"/>
      </g>
     </g>
     <g id="line2d_3">
      <defs>
       <path d="M 0 0 
L 0 -4 
" id="m5e5b0e69cb" style="stroke:#555555;stroke-width:0.5;"/>
      </defs>
      <g>
       <use style="fill:#555555;stroke:#555555;stroke-width:0.5;" x="72.0" xlink:href="#m5e5b0e69cb" y="43.2"/>
      </g>
     </g>
     <g id="text_1">
      <!-- 0 -->
      <defs>
       <path d="M 31.109375 -1.515625 
Q 18.109375 -1.515625 12 7.765625 
Q 5.90625 17.046875 5.90625 36.71875 
Q 5.90625 56.390625 12.03125 65.71875 
Q 18.171875 75.046875 31.109375 75.046875 
Q 43.953125 75.046875 50.09375 65.6875 
Q 56.25 56.34375 56.25 36.8125 
Q 56.25 17.09375 50.140625 7.78125 
Q 44.046875 -1.515625 31.109375 -1.515625 
M 31.109375 67.578125 
Q 22.75 67.578125 18.984375 60.953125 
Q 15.234375 54.34375 15.234375 36.71875 
Q 15.234375 19.234375 18.984375 12.59375 
Q 22.75 5.953125 31.109375 5.953125 
Q 39.453125 5.953125 43.1875 12.59375 
Q 46.921875 19.234375 46.921875 36.8125 
Q 46.921875 54.046875 43.203125 60.8125 
Q 39.5 67.578125 31.109375 67.578125 
" id="Meiryo-30"/>
      </defs>
      <g style="fill:#555555;" transform="translate(68.89453125 404.4859375)scale(0.1 -0.1)">
       <use xlink:href="#Meiryo-30"/>
      </g>
     </g>
    </g>
    <g id="xtick_2">
     <g id="line2d_4">
      <path clip-path="url(#p2935858bf8)" d="M 161.28 388.8 
L 161.28 43.2 
" style="fill:none;stroke:#ffffff;stroke-linecap:square;stroke-width:0.5;"/>
     </g>
     <g id="line2d_5">
      <g>
       <use style="fill:#555555;stroke:#555555;stroke-width:0.5;" x="161.28" xlink:href="#mfa57e15281" y="388.8"/>
      </g>
     </g>
     <g id="line2d_6">
      <g>
       <use style="fill:#555555;stroke:#555555;stroke-width:0.5;" x="161.28" xlink:href="#m5e5b0e69cb" y="43.2"/>
      </g>
     </g>
     <g id="text_2">
      <!-- 20 -->
      <defs>
       <path d="M 56.34375 0 
L 7.125 0 
L 7.125 9.515625 
Q 14.9375 16.265625 24.671875 25.1875 
Q 34.421875 34.125 39.15625 40.90625 
Q 43.890625 47.703125 43.890625 54.5 
Q 43.890625 60.5 39.90625 63.859375 
Q 35.9375 67.234375 29.109375 67.234375 
Q 19.09375 67.234375 9.421875 60.890625 
L 8.9375 60.890625 
L 8.9375 70.40625 
Q 18.796875 75.09375 29.34375 75.09375 
Q 40.484375 75.09375 46.875 69.703125 
Q 53.265625 64.3125 53.265625 54.984375 
Q 53.265625 50 51.625 45.453125 
Q 50 40.921875 46.53125 36.625 
Q 43.0625 32.328125 38.234375 27.484375 
Q 33.40625 22.65625 16.015625 7.859375 
L 56.34375 7.859375 
z
" id="Meiryo-32"/>
      </defs>
      <g style="fill:#555555;" transform="translate(155.0690625 404.4859375)scale(0.1 -0.1)">
       <use xlink:href="#Meiryo-32"/>
       <use x="62.109375" xlink:href="#Meiryo-30"/>
      </g>
     </g>
    </g>
    <g id="xtick_3">
     <g id="line2d_7">
      <path clip-path="url(#p2935858bf8)" d="M 250.56 388.8 
L 250.56 43.2 
" style="fill:none;stroke:#ffffff;stroke-linecap:square;stroke-width:0.5;"/>
     </g>
     <g id="line2d_8">
      <g>
       <use style="fill:#555555;stroke:#555555;stroke-width:0.5;" x="250.56" xlink:href="#mfa57e15281" y="388.8"/>
      </g>
     </g>
     <g id="line2d_9">
      <g>
       <use style="fill:#555555;stroke:#555555;stroke-width:0.5;" x="250.56" xlink:href="#m5e5b0e69cb" y="43.2"/>
      </g>
     </g>
     <g id="text_3">
      <!-- 40 -->
      <defs>
       <path d="M 58.015625 21.1875 
L 47.21875 21.1875 
L 47.21875 0 
L 38.421875 0 
L 38.421875 21.1875 
L 3.03125 21.1875 
L 3.03125 31.453125 
L 38.8125 73.578125 
L 47.21875 73.578125 
L 47.21875 28.421875 
L 58.015625 28.421875 
z
M 38.421875 28.421875 
L 38.421875 62.84375 
L 9.1875 28.421875 
z
" id="Meiryo-34"/>
      </defs>
      <g style="fill:#555555;" transform="translate(244.3490625 404.4859375)scale(0.1 -0.1)">
       <use xlink:href="#Meiryo-34"/>
       <use x="62.109375" xlink:href="#Meiryo-30"/>
      </g>
     </g>
    </g>
    <g id="xtick_4">
     <g id="line2d_10">
      <path clip-path="url(#p2935858bf8)" d="M 339.84 388.8 
L 339.84 43.2 
" style="fill:none;stroke:#ffffff;stroke-linecap:square;stroke-width:0.5;"/>
     </g>
     <g id="line2d_11">
      <g>
       <use style="fill:#555555;stroke:#555555;stroke-width:0.5;" x="339.84" xlink:href="#mfa57e15281" y="388.8"/>
      </g>
     </g>
     <g id="line2d_12">
      <g>
       <use style="fill:#555555;stroke:#555555;stroke-width:0.5;" x="339.84" xlink:href="#m5e5b0e69cb" y="43.2"/>
      </g>
     </g>
     <g id="text_4">
      <!-- 60 -->
      <defs>
       <path d="M 50.34375 73.78125 
L 50.34375 65.140625 
L 49.75 65.140625 
Q 45.65625 67.140625 40.1875 67.140625 
Q 29.390625 67.140625 22.9375 60.28125 
Q 16.5 53.421875 15.4375 41.21875 
Q 24.65625 46.734375 33.40625 46.734375 
Q 44.09375 46.734375 50.75 40.796875 
Q 57.421875 34.859375 57.421875 23.78125 
Q 57.421875 12.75 50.1875 5.609375 
Q 42.96875 -1.515625 32.234375 -1.515625 
Q 19.78125 -1.515625 12.859375 7.15625 
Q 5.953125 15.828125 5.953125 32.28125 
Q 5.953125 52.546875 15.203125 63.75 
Q 24.46875 74.953125 41.65625 74.953125 
Q 46.828125 74.953125 50.34375 73.78125 
M 15.4375 34.96875 
Q 15.234375 30.953125 15.234375 30.125 
Q 15.234375 18.5 19.765625 12.171875 
Q 24.3125 5.859375 32.328125 5.859375 
Q 39.703125 5.859375 43.890625 10.46875 
Q 48.09375 15.09375 48.09375 23.390625 
Q 48.09375 30.28125 44.140625 34.765625 
Q 40.1875 39.265625 31 39.265625 
Q 23.046875 39.265625 15.4375 34.96875 
" id="Meiryo-36"/>
      </defs>
      <g style="fill:#555555;" transform="translate(333.6290625 404.4859375)scale(0.1 -0.1)">
       <use xlink:href="#Meiryo-36"/>
       <use x="62.109375" xlink:href="#Meiryo-30"/>
      </g>
     </g>
    </g>
    <g id="xtick_5">
     <g id="line2d_13">
      <path clip-path="url(#p2935858bf8)" d="M 429.12 388.8 
L 429.12 43.2 
" style="fill:none;stroke:#ffffff;stroke-linecap:square;stroke-width:0.5;"/>
     </g>
     <g id="line2d_14">
      <g>
       <use style="fill:#555555;stroke:#555555;stroke-width:0.5;" x="429.12" xlink:href="#mfa57e15281" y="388.8"/>
      </g>
     </g>
     <g id="line2d_15">
      <g>
       <use style="fill:#555555;stroke:#555555;stroke-width:0.5;" x="429.12" xlink:href="#m5e5b0e69cb" y="43.2"/>
      </g>
     </g>
     <g id="text_5">
      <!-- 80 -->
      <defs>
       <path d="M 18.84375 39.015625 
L 18.84375 39.59375 
Q 7.171875 45.953125 7.171875 56.0625 
Q 7.171875 64.40625 13.90625 69.828125 
Q 20.65625 75.25 31.0625 75.25 
Q 41.84375 75.25 48.390625 70.109375 
Q 54.9375 64.984375 54.9375 56.6875 
Q 54.9375 51.3125 51.6875 46.59375 
Q 48.4375 41.890625 42.671875 39.265625 
L 42.671875 38.625 
Q 56.890625 32.515625 56.890625 20.359375 
Q 56.890625 10.890625 49.515625 4.609375 
Q 42.140625 -1.65625 31.0625 -1.65625 
Q 19.28125 -1.65625 12.25 4.375 
Q 5.21875 10.40625 5.21875 20.171875 
Q 5.21875 32.90625 18.84375 39.015625 
M 45.90625 56.640625 
Q 45.90625 61.921875 41.84375 65.28125 
Q 37.796875 68.65625 31 68.65625 
Q 24.5625 68.65625 20.484375 65.5 
Q 16.40625 62.359375 16.40625 57.234375 
Q 16.40625 51.5625 21.484375 47.890625 
Q 26.5625 44.234375 36.921875 41.0625 
Q 45.90625 46.875 45.90625 56.640625 
M 24.8125 37.25 
Q 14.5 31.453125 14.5 20.84375 
Q 14.5 13.765625 19.1875 9.390625 
Q 23.875 5.03125 31.15625 5.03125 
Q 38.625 5.03125 43.015625 8.859375 
Q 47.40625 12.703125 47.40625 19.390625 
Q 47.40625 23.921875 45.40625 26.671875 
Q 43.40625 29.4375 39.578125 31.34375 
Q 35.75 33.25 24.8125 37.25 
" id="Meiryo-38"/>
      </defs>
      <g style="fill:#555555;" transform="translate(422.9090625 404.4859375)scale(0.1 -0.1)">
       <use xlink:href="#Meiryo-38"/>
       <use x="62.109375" xlink:href="#Meiryo-30"/>
      </g>
     </g>
    </g>
    <g id="xtick_6">
     <g id="line2d_16">
      <path clip-path="url(#p2935858bf8)" d="M 518.4 388.8 
L 518.4 43.2 
" style="fill:none;stroke:#ffffff;stroke-linecap:square;stroke-width:0.5;"/>
     </g>
     <g id="line2d_17">
      <g>
       <use style="fill:#555555;stroke:#555555;stroke-width:0.5;" x="518.4" xlink:href="#mfa57e15281" y="388.8"/>
      </g>
     </g>
     <g id="line2d_18">
      <g>
       <use style="fill:#555555;stroke:#555555;stroke-width:0.5;" x="518.4" xlink:href="#m5e5b0e69cb" y="43.2"/>
      </g>
     </g>
     <g id="text_6">
      <!-- 100 -->
      <defs>
       <path d="M 52.15625 0 
L 12.984375 0 
L 12.984375 6.734375 
L 28.328125 6.734375 
L 28.328125 57.328125 
L 12.984375 57.328125 
L 12.984375 63.28125 
Q 21.96875 63.328125 25.828125 65.84375 
Q 29.6875 68.359375 30.171875 73.828125 
L 37.109375 73.828125 
L 37.109375 6.734375 
L 52.15625 6.734375 
z
" id="Meiryo-31"/>
      </defs>
      <g style="fill:#555555;" transform="translate(509.08359375 404.4859375)scale(0.1 -0.1)">
       <use xlink:href="#Meiryo-31"/>
       <use x="62.109375" xlink:href="#Meiryo-30"/>
       <use x="124.21875" xlink:href="#Meiryo-30"/>
      </g>
     </g>
    </g>
   </g>
   <g id="matplotlib.axis_2">
    <g id="ytick_1">
     <g id="line2d_19">
      <path clip-path="url(#p2935858bf8)" d="M 72 388.8 
L 518.4 388.8 
" style="fill:none;stroke:#ffffff;stroke-linecap:square;stroke-width:0.5;"/>
     </g>
     <g id="line2d_20">
      <defs>
       <path d="M 0 0 
L -4 0 
" id="m170f98c676" style="stroke:#555555;stroke-width:0.5;"/>
      </defs>
      <g>
       <use style="fill:#555555;stroke:#555555;stroke-width:0.5;" x="72.0" xlink:href="#m170f98c676" y="388.8"/>
      </g>
     </g>
     <g id="line2d_21">
      <defs>
       <path d="M 0 0 
L 4 0 
" id="mfe902b48e3" style="stroke:#555555;stroke-width:0.5;"/>
      </defs>
      <g>
       <use style="fill:#555555;stroke:#555555;stroke-width:0.5;" x="518.4" xlink:href="#mfe902b48e3" y="388.8"/>
      </g>
     </g>
     <g id="text_7">
      <!-- 0 -->
      <g style="fill:#555555;" transform="translate(57.7890625 391.625)scale(0.1 -0.1)">
       <use xlink:href="#Meiryo-30"/>
      </g>
     </g>
    </g>
    <g id="ytick_2">
     <g id="line2d_22">
      <path clip-path="url(#p2935858bf8)" d="M 72 319.68 
L 518.4 319.68 
" style="fill:none;stroke:#ffffff;stroke-linecap:square;stroke-width:0.5;"/>
     </g>
     <g id="line2d_23">
      <g>
       <use style="fill:#555555;stroke:#555555;stroke-width:0.5;" x="72.0" xlink:href="#m170f98c676" y="319.68"/>
      </g>
     </g>
     <g id="line2d_24">
      <g>
       <use style="fill:#555555;stroke:#555555;stroke-width:0.5;" x="518.4" xlink:href="#mfe902b48e3" y="319.68"/>
      </g>
     </g>
     <g id="text_8">
      <!-- 2000 -->
      <g style="fill:#555555;" transform="translate(39.15625 322.505)scale(0.1 -0.1)">
       <use xlink:href="#Meiryo-32"/>
       <use x="62.109375" xlink:href="#Meiryo-30"/>
       <use x="124.21875" xlink:href="#Meiryo-30"/>
       <use x="186.328125" xlink:href="#Meiryo-30"/>
      </g>
     </g>
    </g>
    <g id="ytick_3">
     <g id="line2d_25">
      <path clip-path="url(#p2935858bf8)" d="M 72 250.56 
L 518.4 250.56 
" style="fill:none;stroke:#ffffff;stroke-linecap:square;stroke-width:0.5;"/>
     </g>
     <g id="line2d_26">
      <g>
       <use style="fill:#555555;stroke:#555555;stroke-width:0.5;" x="72.0" xlink:href="#m170f98c676" y="250.56"/>
      </g>
     </g>
     <g id="line2d_27">
      <g>
       <use style="fill:#555555;stroke:#555555;stroke-width:0.5;" x="518.4" xlink:href="#mfe902b48e3" y="250.56"/>
      </g>
     </g>
     <g id="text_9">
      <!-- 4000 -->
      <g style="fill:#555555;" transform="translate(39.15625 253.385)scale(0.1 -0.1)">
       <use xlink:href="#Meiryo-34"/>
       <use x="62.109375" xlink:href="#Meiryo-30"/>
       <use x="124.21875" xlink:href="#Meiryo-30"/>
       <use x="186.328125" xlink:href="#Meiryo-30"/>
      </g>
     </g>
    </g>
    <g id="ytick_4">
     <g id="line2d_28">
      <path clip-path="url(#p2935858bf8)" d="M 72 181.44 
L 518.4 181.44 
" style="fill:none;stroke:#ffffff;stroke-linecap:square;stroke-width:0.5;"/>
     </g>
     <g id="line2d_29">
      <g>
       <use style="fill:#555555;stroke:#555555;stroke-width:0.5;" x="72.0" xlink:href="#m170f98c676" y="181.44"/>
      </g>
     </g>
     <g id="line2d_30">
      <g>
       <use style="fill:#555555;stroke:#555555;stroke-width:0.5;" x="518.4" xlink:href="#mfe902b48e3" y="181.44"/>
      </g>
     </g>
     <g id="text_10">
      <!-- 6000 -->
      <g style="fill:#555555;" transform="translate(39.15625 184.265)scale(0.1 -0.1)">
       <use xlink:href="#Meiryo-36"/>
       <use x="62.109375" xlink:href="#Meiryo-30"/>
       <use x="124.21875" xlink:href="#Meiryo-30"/>
       <use x="186.328125" xlink:href="#Meiryo-30"/>
      </g>
     </g>
    </g>
    <g id="ytick_5">
     <g id="line2d_31">
      <path clip-path="url(#p2935858bf8)" d="M 72 112.32 
L 518.4 112.32 
" style="fill:none;stroke:#ffffff;stroke-linecap:square;stroke-width:0.5;"/>
     </g>
     <g id="line2d_32">
      <g>
       <use style="fill:#555555;stroke:#555555;stroke-width:0.5;" x="72.0" xlink:href="#m170f98c676" y="112.32"/>
      </g>
     </g>
     <g id="line2d_33">
      <g>
       <use style="fill:#555555;stroke:#555555;stroke-width:0.5;" x="518.4" xlink:href="#mfe902b48e3" y="112.32"/>
      </g>
     </g>
     <g id="text_11">
      <!-- 8000 -->
      <g style="fill:#555555;" transform="translate(39.15625 115.145)scale(0.1 -0.1)">
       <use xlink:href="#Meiryo-38"/>
       <use x="62.109375" xlink:href="#Meiryo-30"/>
       <use x="124.21875" xlink:href="#Meiryo-30"/>
       <use x="186.328125" xlink:href="#Meiryo-30"/>
      </g>
     </g>
    </g>
    <g id="ytick_6">
     <g id="line2d_34">
      <path clip-path="url(#p2935858bf8)" d="M 72 43.2 
L 518.4 43.2 
" style="fill:none;stroke:#ffffff;stroke-linecap:square;stroke-width:0.5;"/>
     </g>
     <g id="line2d_35">
      <g>
       <use style="fill:#555555;stroke:#555555;stroke-width:0.5;" x="72.0" xlink:href="#m170f98c676" y="43.2"/>
      </g>
     </g>
     <g id="line2d_36">
      <g>
       <use style="fill:#555555;stroke:#555555;stroke-width:0.5;" x="518.4" xlink:href="#mfe902b48e3" y="43.2"/>
      </g>
     </g>
     <g id="text_12">
      <!-- 10000 -->
      <g style="fill:#555555;" transform="translate(32.9453125 46.025)scale(0.1 -0.1)">
       <use xlink:href="#Meiryo-31"/>
       <use x="62.109375" xlink:href="#Meiryo-30"/>
       <use x="124.21875" xlink:href="#Meiryo-30"/>
       <use x="186.328125" xlink:href="#Meiryo-30"/>
       <use x="248.4375" xlink:href="#Meiryo-30"/>
      </g>
     </g>
    </g>
   </g>
   <g id="line2d_37">
    <path clip-path="url(#p2935858bf8)" d="M 72 388.8 
L 76.464 388.76544 
L 80.928 388.66176 
L 85.392 388.48896 
L 89.856 388.24704 
L 94.32 387.936 
L 98.784 387.55584 
L 103.248 387.10656 
L 107.712 386.58816 
L 112.176 386.00064 
L 116.64 385.344 
L 121.104 384.61824 
L 125.568 383.82336 
L 130.032 382.95936 
L 134.496 382.02624 
L 138.96 381.024 
L 143.424 379.95264 
L 147.888 378.81216 
L 152.352 377.60256 
L 156.816 376.32384 
L 161.28 374.976 
L 165.744 373.55904 
L 170.208 372.07296 
L 174.672 370.51776 
L 179.136 368.89344 
L 183.6 367.2 
L 188.064 365.43744 
L 192.528 363.60576 
L 196.992 361.70496 
L 201.456 359.73504 
L 205.92 357.696 
L 210.384 355.58784 
L 214.848 353.41056 
L 219.312 351.16416 
L 223.776 348.84864 
L 228.24 346.464 
L 232.704 344.01024 
L 237.168 341.48736 
L 241.632 338.89536 
L 246.096 336.23424 
L 250.56 333.504 
L 255.024 330.70464 
L 259.488 327.83616 
L 263.952 324.89856 
L 268.416 321.89184 
L 272.88 318.816 
L 277.344 315.67104 
L 281.808 312.45696 
L 286.272 309.17376 
L 290.736 305.82144 
L 295.2 302.4 
L 299.664 298.90944 
L 304.128 295.34976 
L 308.592 291.72096 
L 313.056 288.02304 
L 317.52 284.256 
L 321.984 280.41984 
L 326.448 276.51456 
L 330.912 272.54016 
L 335.376 268.49664 
L 339.84 264.384 
L 344.304 260.20224 
L 348.768 255.95136 
L 353.232 251.63136 
L 357.696 247.24224 
L 362.16 242.784 
L 366.624 238.25664 
L 371.088 233.66016 
L 375.552 228.99456 
L 380.016 224.25984 
L 384.48 219.456 
L 388.944 214.58304 
L 393.408 209.64096 
L 397.872 204.62976 
L 402.336 199.54944 
L 406.8 194.4 
L 411.264 189.18144 
L 415.728 183.89376 
L 420.192 178.53696 
L 424.656 173.11104 
L 429.12 167.616 
L 433.584 162.05184 
L 438.048 156.41856 
L 442.512 150.71616 
L 446.976 144.94464 
L 451.44 139.104 
L 455.904 133.19424 
L 460.368 127.21536 
L 464.832 121.16736 
L 469.296 115.05024 
L 473.76 108.864 
L 478.224 102.60864 
L 482.688 96.28416 
L 487.152 89.89056 
L 491.616 83.42784 
L 496.08 76.896 
L 500.544 70.29504 
L 505.008 63.62496 
L 509.472 56.88576 
L 513.936 50.07744 
" style="fill:none;stroke:#e24a33;stroke-linecap:square;"/>
   </g>
   <g id="patch_3">
    <path d="M 72 388.8 
L 72 43.2 
" style="fill:none;stroke:#ffffff;stroke-linecap:square;stroke-linejoin:miter;"/>
   </g>
   <g id="patch_4">
    <path d="M 72 43.2 
L 518.4 43.2 
" style="fill:none;stroke:#ffffff;stroke-linecap:square;stroke-linejoin:miter;"/>
   </g>
   <g id="patch_5">
    <path d="M 518.4 388.8 
L 518.4 43.2 
" style="fill:none;stroke:#ffffff;stroke-linecap:square;stroke-linejoin:miter;"/>
   </g>
   <g id="patch_6">
    <path d="M 72 388.8 
L 518.4 388.8 
" style="fill:none;stroke:#ffffff;stroke-linecap:square;stroke-linejoin:miter;"/>
   </g>
  </g>
 </g>
 <defs>
  <clipPath id="p2935858bf8">
   <rect height="345.6" width="446.4" x="72.0" y="43.2"/>
  </clipPath>
 </defs>
</svg>
