<?xml version="1.0" encoding="utf-8" standalone="no"?>
<!DOCTYPE svg PUBLIC "-//W3C//DTD SVG 1.1//EN"
  "http://www.w3.org/Graphics/SVG/1.1/DTD/svg11.dtd">
<!-- Created with matplotlib (http://matplotlib.org/) -->
<svg height="432pt" version="1.1" viewBox="0 0 576 432" width="576pt" xmlns="http://www.w3.org/2000/svg" xmlns:xlink="http://www.w3.org/1999/xlink">
 <defs>
  <style type="text/css">
*{stroke-linecap:butt;stroke-linejoin:round;stroke-miterlimit:100000;}
  </style>
 </defs>
 <g id="figure_1">
  <g id="patch_1">
   <path d="M 0 432 
L 576 432 
L 576 0 
L 0 0 
z
" style="fill:#ffffff;"/>
  </g>
  <g id="axes_1">
   <g id="patch_2">
    <path d="M 72 200.290909 
L 518.4 200.290909 
L 518.4 43.2 
L 72 43.2 
z
" style="fill:#e5e5e5;"/>
   </g>
   <g id="matplotlib.axis_1">
    <g id="xtick_1">
     <g id="line2d_1">
      <path clip-path="url(#p69bab437e4)" d="M 72 200.290909 
L 72 43.2 
" style="fill:none;stroke:#ffffff;stroke-linecap:square;stroke-width:0.5;"/>
     </g>
     <g id="line2d_2">
      <defs>
       <path d="M 0 0 
L 0 4 
" id="m64e5030fc4" style="stroke:#555555;stroke-width:0.5;"/>
      </defs>
      <g>
       <use style="fill:#555555;stroke:#555555;stroke-width:0.5;" x="72.0" xlink:href="#m64e5030fc4" y="200.290909091"/>
      </g>
     </g>
     <g id="line2d_3">
      <defs>
       <path d="M 0 0 
L 0 -4 
" id="mebd5d28136" style="stroke:#555555;stroke-width:0.5;"/>
      </defs>
      <g>
       <use style="fill:#555555;stroke:#555555;stroke-width:0.5;" x="72.0" xlink:href="#mebd5d28136" y="43.2"/>
      </g>
     </g>
     <g id="text_1">
      <!-- 0 -->
      <defs>
       <path d="M 31.78125 66.40625 
Q 24.171875 66.40625 20.328125 58.90625 
Q 16.5 51.421875 16.5 36.375 
Q 16.5 21.390625 20.328125 13.890625 
Q 24.171875 6.390625 31.78125 6.390625 
Q 39.453125 6.390625 43.28125 13.890625 
Q 47.125 21.390625 47.125 36.375 
Q 47.125 51.421875 43.28125 58.90625 
Q 39.453125 66.40625 31.78125 66.40625 
M 31.78125 74.21875 
Q 44.046875 74.21875 50.515625 64.515625 
Q 56.984375 54.828125 56.984375 36.375 
Q 56.984375 17.96875 50.515625 8.265625 
Q 44.046875 -1.421875 31.78125 -1.421875 
Q 19.53125 -1.421875 13.0625 8.265625 
Q 6.59375 17.96875 6.59375 36.375 
Q 6.59375 54.828125 13.0625 64.515625 
Q 19.53125 74.21875 31.78125 74.21875 
" id="BitstreamVeraSans-Roman-30"/>
      </defs>
      <g style="fill:#555555;" transform="translate(68.81875 215.889346591)scale(0.1 -0.1)">
       <use xlink:href="#BitstreamVeraSans-Roman-30"/>
      </g>
     </g>
    </g>
    <g id="xtick_2">
     <g id="line2d_4">
      <path clip-path="url(#p69bab437e4)" d="M 161.28 200.290909 
L 161.28 43.2 
" style="fill:none;stroke:#ffffff;stroke-linecap:square;stroke-width:0.5;"/>
     </g>
     <g id="line2d_5">
      <g>
       <use style="fill:#555555;stroke:#555555;stroke-width:0.5;" x="161.28" xlink:href="#m64e5030fc4" y="200.290909091"/>
      </g>
     </g>
     <g id="line2d_6">
      <g>
       <use style="fill:#555555;stroke:#555555;stroke-width:0.5;" x="161.28" xlink:href="#mebd5d28136" y="43.2"/>
      </g>
     </g>
     <g id="text_2">
      <!-- 1 -->
      <defs>
       <path d="M 12.40625 8.296875 
L 28.515625 8.296875 
L 28.515625 63.921875 
L 10.984375 60.40625 
L 10.984375 69.390625 
L 28.421875 72.90625 
L 38.28125 72.90625 
L 38.28125 8.296875 
L 54.390625 8.296875 
L 54.390625 0 
L 12.40625 0 
z
" id="BitstreamVeraSans-Roman-31"/>
      </defs>
      <g style="fill:#555555;" transform="translate(158.09875 215.889346591)scale(0.1 -0.1)">
       <use xlink:href="#BitstreamVeraSans-Roman-31"/>
      </g>
     </g>
    </g>
    <g id="xtick_3">
     <g id="line2d_7">
      <path clip-path="url(#p69bab437e4)" d="M 250.56 200.290909 
L 250.56 43.2 
" style="fill:none;stroke:#ffffff;stroke-linecap:square;stroke-width:0.5;"/>
     </g>
     <g id="line2d_8">
      <g>
       <use style="fill:#555555;stroke:#555555;stroke-width:0.5;" x="250.56" xlink:href="#m64e5030fc4" y="200.290909091"/>
      </g>
     </g>
     <g id="line2d_9">
      <g>
       <use style="fill:#555555;stroke:#555555;stroke-width:0.5;" x="250.56" xlink:href="#mebd5d28136" y="43.2"/>
      </g>
     </g>
     <g id="text_3">
      <!-- 2 -->
      <defs>
       <path d="M 19.1875 8.296875 
L 53.609375 8.296875 
L 53.609375 0 
L 7.328125 0 
L 7.328125 8.296875 
Q 12.9375 14.109375 22.625 23.890625 
Q 32.328125 33.6875 34.8125 36.53125 
Q 39.546875 41.84375 41.421875 45.53125 
Q 43.3125 49.21875 43.3125 52.78125 
Q 43.3125 58.59375 39.234375 62.25 
Q 35.15625 65.921875 28.609375 65.921875 
Q 23.96875 65.921875 18.8125 64.3125 
Q 13.671875 62.703125 7.8125 59.421875 
L 7.8125 69.390625 
Q 13.765625 71.78125 18.9375 73 
Q 24.125 74.21875 28.421875 74.21875 
Q 39.75 74.21875 46.484375 68.546875 
Q 53.21875 62.890625 53.21875 53.421875 
Q 53.21875 48.921875 51.53125 44.890625 
Q 49.859375 40.875 45.40625 35.40625 
Q 44.1875 33.984375 37.640625 27.21875 
Q 31.109375 20.453125 19.1875 8.296875 
" id="BitstreamVeraSans-Roman-32"/>
      </defs>
      <g style="fill:#555555;" transform="translate(247.37875 215.889346591)scale(0.1 -0.1)">
       <use xlink:href="#BitstreamVeraSans-Roman-32"/>
      </g>
     </g>
    </g>
    <g id="xtick_4">
     <g id="line2d_10">
      <path clip-path="url(#p69bab437e4)" d="M 339.84 200.290909 
L 339.84 43.2 
" style="fill:none;stroke:#ffffff;stroke-linecap:square;stroke-width:0.5;"/>
     </g>
     <g id="line2d_11">
      <g>
       <use style="fill:#555555;stroke:#555555;stroke-width:0.5;" x="339.84" xlink:href="#m64e5030fc4" y="200.290909091"/>
      </g>
     </g>
     <g id="line2d_12">
      <g>
       <use style="fill:#555555;stroke:#555555;stroke-width:0.5;" x="339.84" xlink:href="#mebd5d28136" y="43.2"/>
      </g>
     </g>
     <g id="text_4">
      <!-- 3 -->
      <defs>
       <path d="M 40.578125 39.3125 
Q 47.65625 37.796875 51.625 33 
Q 55.609375 28.21875 55.609375 21.1875 
Q 55.609375 10.40625 48.1875 4.484375 
Q 40.765625 -1.421875 27.09375 -1.421875 
Q 22.515625 -1.421875 17.65625 -0.515625 
Q 12.796875 0.390625 7.625 2.203125 
L 7.625 11.71875 
Q 11.71875 9.328125 16.59375 8.109375 
Q 21.484375 6.890625 26.8125 6.890625 
Q 36.078125 6.890625 40.9375 10.546875 
Q 45.796875 14.203125 45.796875 21.1875 
Q 45.796875 27.640625 41.28125 31.265625 
Q 36.765625 34.90625 28.71875 34.90625 
L 20.21875 34.90625 
L 20.21875 43.015625 
L 29.109375 43.015625 
Q 36.375 43.015625 40.234375 45.921875 
Q 44.09375 48.828125 44.09375 54.296875 
Q 44.09375 59.90625 40.109375 62.90625 
Q 36.140625 65.921875 28.71875 65.921875 
Q 24.65625 65.921875 20.015625 65.03125 
Q 15.375 64.15625 9.8125 62.3125 
L 9.8125 71.09375 
Q 15.4375 72.65625 20.34375 73.4375 
Q 25.25 74.21875 29.59375 74.21875 
Q 40.828125 74.21875 47.359375 69.109375 
Q 53.90625 64.015625 53.90625 55.328125 
Q 53.90625 49.265625 50.4375 45.09375 
Q 46.96875 40.921875 40.578125 39.3125 
" id="BitstreamVeraSans-Roman-33"/>
      </defs>
      <g style="fill:#555555;" transform="translate(336.65875 215.889346591)scale(0.1 -0.1)">
       <use xlink:href="#BitstreamVeraSans-Roman-33"/>
      </g>
     </g>
    </g>
    <g id="xtick_5">
     <g id="line2d_13">
      <path clip-path="url(#p69bab437e4)" d="M 429.12 200.290909 
L 429.12 43.2 
" style="fill:none;stroke:#ffffff;stroke-linecap:square;stroke-width:0.5;"/>
     </g>
     <g id="line2d_14">
      <g>
       <use style="fill:#555555;stroke:#555555;stroke-width:0.5;" x="429.12" xlink:href="#m64e5030fc4" y="200.290909091"/>
      </g>
     </g>
     <g id="line2d_15">
      <g>
       <use style="fill:#555555;stroke:#555555;stroke-width:0.5;" x="429.12" xlink:href="#mebd5d28136" y="43.2"/>
      </g>
     </g>
     <g id="text_5">
      <!-- 4 -->
      <defs>
       <path d="M 37.796875 64.3125 
L 12.890625 25.390625 
L 37.796875 25.390625 
z
M 35.203125 72.90625 
L 47.609375 72.90625 
L 47.609375 25.390625 
L 58.015625 25.390625 
L 58.015625 17.1875 
L 47.609375 17.1875 
L 47.609375 0 
L 37.796875 0 
L 37.796875 17.1875 
L 4.890625 17.1875 
L 4.890625 26.703125 
z
" id="BitstreamVeraSans-Roman-34"/>
      </defs>
      <g style="fill:#555555;" transform="translate(425.93875 215.889346591)scale(0.1 -0.1)">
       <use xlink:href="#BitstreamVeraSans-Roman-34"/>
      </g>
     </g>
    </g>
    <g id="xtick_6">
     <g id="line2d_16">
      <path clip-path="url(#p69bab437e4)" d="M 518.4 200.290909 
L 518.4 43.2 
" style="fill:none;stroke:#ffffff;stroke-linecap:square;stroke-width:0.5;"/>
     </g>
     <g id="line2d_17">
      <g>
       <use style="fill:#555555;stroke:#555555;stroke-width:0.5;" x="518.4" xlink:href="#m64e5030fc4" y="200.290909091"/>
      </g>
     </g>
     <g id="line2d_18">
      <g>
       <use style="fill:#555555;stroke:#555555;stroke-width:0.5;" x="518.4" xlink:href="#mebd5d28136" y="43.2"/>
      </g>
     </g>
     <g id="text_6">
      <!-- 5 -->
      <defs>
       <path d="M 10.796875 72.90625 
L 49.515625 72.90625 
L 49.515625 64.59375 
L 19.828125 64.59375 
L 19.828125 46.734375 
Q 21.96875 47.46875 24.109375 47.828125 
Q 26.265625 48.1875 28.421875 48.1875 
Q 40.625 48.1875 47.75 41.5 
Q 54.890625 34.8125 54.890625 23.390625 
Q 54.890625 11.625 47.5625 5.09375 
Q 40.234375 -1.421875 26.90625 -1.421875 
Q 22.3125 -1.421875 17.546875 -0.640625 
Q 12.796875 0.140625 7.71875 1.703125 
L 7.71875 11.625 
Q 12.109375 9.234375 16.796875 8.0625 
Q 21.484375 6.890625 26.703125 6.890625 
Q 35.15625 6.890625 40.078125 11.328125 
Q 45.015625 15.765625 45.015625 23.390625 
Q 45.015625 31 40.078125 35.4375 
Q 35.15625 39.890625 26.703125 39.890625 
Q 22.75 39.890625 18.8125 39.015625 
Q 14.890625 38.140625 10.796875 36.28125 
z
" id="BitstreamVeraSans-Roman-35"/>
      </defs>
      <g style="fill:#555555;" transform="translate(515.21875 215.889346591)scale(0.1 -0.1)">
       <use xlink:href="#BitstreamVeraSans-Roman-35"/>
      </g>
     </g>
    </g>
   </g>
   <g id="matplotlib.axis_2">
    <g id="ytick_1">
     <g id="line2d_19">
      <path clip-path="url(#p69bab437e4)" d="M 72 200.290909 
L 518.4 200.290909 
" style="fill:none;stroke:#ffffff;stroke-linecap:square;stroke-width:0.5;"/>
     </g>
     <g id="line2d_20">
      <defs>
       <path d="M 0 0 
L -4 0 
" id="m4b86404989" style="stroke:#555555;stroke-width:0.5;"/>
      </defs>
      <g>
       <use style="fill:#555555;stroke:#555555;stroke-width:0.5;" x="72.0" xlink:href="#m4b86404989" y="200.290909091"/>
      </g>
     </g>
     <g id="line2d_21">
      <defs>
       <path d="M 0 0 
L 4 0 
" id="md481d8d269" style="stroke:#555555;stroke-width:0.5;"/>
      </defs>
      <g>
       <use style="fill:#555555;stroke:#555555;stroke-width:0.5;" x="518.4" xlink:href="#md481d8d269" y="200.290909091"/>
      </g>
     </g>
     <g id="text_7">
      <!-- −0.8 -->
      <defs>
       <path d="M 10.6875 12.40625 
L 21 12.40625 
L 21 0 
L 10.6875 0 
z
" id="BitstreamVeraSans-Roman-2e"/>
       <path d="M 10.59375 35.5 
L 73.1875 35.5 
L 73.1875 27.203125 
L 10.59375 27.203125 
z
" id="BitstreamVeraSans-Roman-2212"/>
       <path d="M 31.78125 34.625 
Q 24.75 34.625 20.71875 30.859375 
Q 16.703125 27.09375 16.703125 20.515625 
Q 16.703125 13.921875 20.71875 10.15625 
Q 24.75 6.390625 31.78125 6.390625 
Q 38.8125 6.390625 42.859375 10.171875 
Q 46.921875 13.96875 46.921875 20.515625 
Q 46.921875 27.09375 42.890625 30.859375 
Q 38.875 34.625 31.78125 34.625 
M 21.921875 38.8125 
Q 15.578125 40.375 12.03125 44.71875 
Q 8.5 49.078125 8.5 55.328125 
Q 8.5 64.0625 14.71875 69.140625 
Q 20.953125 74.21875 31.78125 74.21875 
Q 42.671875 74.21875 48.875 69.140625 
Q 55.078125 64.0625 55.078125 55.328125 
Q 55.078125 49.078125 51.53125 44.71875 
Q 48 40.375 41.703125 38.8125 
Q 48.828125 37.15625 52.796875 32.3125 
Q 56.78125 27.484375 56.78125 20.515625 
Q 56.78125 9.90625 50.3125 4.234375 
Q 43.84375 -1.421875 31.78125 -1.421875 
Q 19.734375 -1.421875 13.25 4.234375 
Q 6.78125 9.90625 6.78125 20.515625 
Q 6.78125 27.484375 10.78125 32.3125 
Q 14.796875 37.15625 21.921875 38.8125 
M 18.3125 54.390625 
Q 18.3125 48.734375 21.84375 45.5625 
Q 25.390625 42.390625 31.78125 42.390625 
Q 38.140625 42.390625 41.71875 45.5625 
Q 45.3125 48.734375 45.3125 54.390625 
Q 45.3125 60.0625 41.71875 63.234375 
Q 38.140625 66.40625 31.78125 66.40625 
Q 25.390625 66.40625 21.84375 63.234375 
Q 18.3125 60.0625 18.3125 54.390625 
" id="BitstreamVeraSans-Roman-38"/>
      </defs>
      <g style="fill:#555555;" transform="translate(39.7171875 203.050284091)scale(0.1 -0.1)">
       <use xlink:href="#BitstreamVeraSans-Roman-2212"/>
       <use x="83.7890625" xlink:href="#BitstreamVeraSans-Roman-30"/>
       <use x="147.412109375" xlink:href="#BitstreamVeraSans-Roman-2e"/>
       <use x="179.19921875" xlink:href="#BitstreamVeraSans-Roman-38"/>
      </g>
     </g>
    </g>
    <g id="ytick_2">
     <g id="line2d_22">
      <path clip-path="url(#p69bab437e4)" d="M 72 182.836364 
L 518.4 182.836364 
" style="fill:none;stroke:#ffffff;stroke-linecap:square;stroke-width:0.5;"/>
     </g>
     <g id="line2d_23">
      <g>
       <use style="fill:#555555;stroke:#555555;stroke-width:0.5;" x="72.0" xlink:href="#m4b86404989" y="182.836363636"/>
      </g>
     </g>
     <g id="line2d_24">
      <g>
       <use style="fill:#555555;stroke:#555555;stroke-width:0.5;" x="518.4" xlink:href="#md481d8d269" y="182.836363636"/>
      </g>
     </g>
     <g id="text_8">
      <!-- −0.6 -->
      <defs>
       <path d="M 33.015625 40.375 
Q 26.375 40.375 22.484375 35.828125 
Q 18.609375 31.296875 18.609375 23.390625 
Q 18.609375 15.53125 22.484375 10.953125 
Q 26.375 6.390625 33.015625 6.390625 
Q 39.65625 6.390625 43.53125 10.953125 
Q 47.40625 15.53125 47.40625 23.390625 
Q 47.40625 31.296875 43.53125 35.828125 
Q 39.65625 40.375 33.015625 40.375 
M 52.59375 71.296875 
L 52.59375 62.3125 
Q 48.875 64.0625 45.09375 64.984375 
Q 41.3125 65.921875 37.59375 65.921875 
Q 27.828125 65.921875 22.671875 59.328125 
Q 17.53125 52.734375 16.796875 39.40625 
Q 19.671875 43.65625 24.015625 45.921875 
Q 28.375 48.1875 33.59375 48.1875 
Q 44.578125 48.1875 50.953125 41.515625 
Q 57.328125 34.859375 57.328125 23.390625 
Q 57.328125 12.15625 50.6875 5.359375 
Q 44.046875 -1.421875 33.015625 -1.421875 
Q 20.359375 -1.421875 13.671875 8.265625 
Q 6.984375 17.96875 6.984375 36.375 
Q 6.984375 53.65625 15.1875 63.9375 
Q 23.390625 74.21875 37.203125 74.21875 
Q 40.921875 74.21875 44.703125 73.484375 
Q 48.484375 72.75 52.59375 71.296875 
" id="BitstreamVeraSans-Roman-36"/>
      </defs>
      <g style="fill:#555555;" transform="translate(39.7171875 185.595738636)scale(0.1 -0.1)">
       <use xlink:href="#BitstreamVeraSans-Roman-2212"/>
       <use x="83.7890625" xlink:href="#BitstreamVeraSans-Roman-30"/>
       <use x="147.412109375" xlink:href="#BitstreamVeraSans-Roman-2e"/>
       <use x="179.19921875" xlink:href="#BitstreamVeraSans-Roman-36"/>
      </g>
     </g>
    </g>
    <g id="ytick_3">
     <g id="line2d_25">
      <path clip-path="url(#p69bab437e4)" d="M 72 165.381818 
L 518.4 165.381818 
" style="fill:none;stroke:#ffffff;stroke-linecap:square;stroke-width:0.5;"/>
     </g>
     <g id="line2d_26">
      <g>
       <use style="fill:#555555;stroke:#555555;stroke-width:0.5;" x="72.0" xlink:href="#m4b86404989" y="165.381818182"/>
      </g>
     </g>
     <g id="line2d_27">
      <g>
       <use style="fill:#555555;stroke:#555555;stroke-width:0.5;" x="518.4" xlink:href="#md481d8d269" y="165.381818182"/>
      </g>
     </g>
     <g id="text_9">
      <!-- −0.4 -->
      <g style="fill:#555555;" transform="translate(39.7171875 168.141193182)scale(0.1 -0.1)">
       <use xlink:href="#BitstreamVeraSans-Roman-2212"/>
       <use x="83.7890625" xlink:href="#BitstreamVeraSans-Roman-30"/>
       <use x="147.412109375" xlink:href="#BitstreamVeraSans-Roman-2e"/>
       <use x="179.19921875" xlink:href="#BitstreamVeraSans-Roman-34"/>
      </g>
     </g>
    </g>
    <g id="ytick_4">
     <g id="line2d_28">
      <path clip-path="url(#p69bab437e4)" d="M 72 147.927273 
L 518.4 147.927273 
" style="fill:none;stroke:#ffffff;stroke-linecap:square;stroke-width:0.5;"/>
     </g>
     <g id="line2d_29">
      <g>
       <use style="fill:#555555;stroke:#555555;stroke-width:0.5;" x="72.0" xlink:href="#m4b86404989" y="147.927272727"/>
      </g>
     </g>
     <g id="line2d_30">
      <g>
       <use style="fill:#555555;stroke:#555555;stroke-width:0.5;" x="518.4" xlink:href="#md481d8d269" y="147.927272727"/>
      </g>
     </g>
     <g id="text_10">
      <!-- −0.2 -->
      <g style="fill:#555555;" transform="translate(39.7171875 150.686647727)scale(0.1 -0.1)">
       <use xlink:href="#BitstreamVeraSans-Roman-2212"/>
       <use x="83.7890625" xlink:href="#BitstreamVeraSans-Roman-30"/>
       <use x="147.412109375" xlink:href="#BitstreamVeraSans-Roman-2e"/>
       <use x="179.19921875" xlink:href="#BitstreamVeraSans-Roman-32"/>
      </g>
     </g>
    </g>
    <g id="ytick_5">
     <g id="line2d_31">
      <path clip-path="url(#p69bab437e4)" d="M 72 130.472727 
L 518.4 130.472727 
" style="fill:none;stroke:#ffffff;stroke-linecap:square;stroke-width:0.5;"/>
     </g>
     <g id="line2d_32">
      <g>
       <use style="fill:#555555;stroke:#555555;stroke-width:0.5;" x="72.0" xlink:href="#m4b86404989" y="130.472727273"/>
      </g>
     </g>
     <g id="line2d_33">
      <g>
       <use style="fill:#555555;stroke:#555555;stroke-width:0.5;" x="518.4" xlink:href="#md481d8d269" y="130.472727273"/>
      </g>
     </g>
     <g id="text_11">
      <!-- 0.0 -->
      <g style="fill:#555555;" transform="translate(48.096875 133.232102273)scale(0.1 -0.1)">
       <use xlink:href="#BitstreamVeraSans-Roman-30"/>
       <use x="63.623046875" xlink:href="#BitstreamVeraSans-Roman-2e"/>
       <use x="95.41015625" xlink:href="#BitstreamVeraSans-Roman-30"/>
      </g>
     </g>
    </g>
    <g id="ytick_6">
     <g id="line2d_34">
      <path clip-path="url(#p69bab437e4)" d="M 72 113.018182 
L 518.4 113.018182 
" style="fill:none;stroke:#ffffff;stroke-linecap:square;stroke-width:0.5;"/>
     </g>
     <g id="line2d_35">
      <g>
       <use style="fill:#555555;stroke:#555555;stroke-width:0.5;" x="72.0" xlink:href="#m4b86404989" y="113.018181818"/>
      </g>
     </g>
     <g id="line2d_36">
      <g>
       <use style="fill:#555555;stroke:#555555;stroke-width:0.5;" x="518.4" xlink:href="#md481d8d269" y="113.018181818"/>
      </g>
     </g>
     <g id="text_12">
      <!-- 0.2 -->
      <g style="fill:#555555;" transform="translate(48.096875 115.777556818)scale(0.1 -0.1)">
       <use xlink:href="#BitstreamVeraSans-Roman-30"/>
       <use x="63.623046875" xlink:href="#BitstreamVeraSans-Roman-2e"/>
       <use x="95.41015625" xlink:href="#BitstreamVeraSans-Roman-32"/>
      </g>
     </g>
    </g>
    <g id="ytick_7">
     <g id="line2d_37">
      <path clip-path="url(#p69bab437e4)" d="M 72 95.563636 
L 518.4 95.563636 
" style="fill:none;stroke:#ffffff;stroke-linecap:square;stroke-width:0.5;"/>
     </g>
     <g id="line2d_38">
      <g>
       <use style="fill:#555555;stroke:#555555;stroke-width:0.5;" x="72.0" xlink:href="#m4b86404989" y="95.5636363636"/>
      </g>
     </g>
     <g id="line2d_39">
      <g>
       <use style="fill:#555555;stroke:#555555;stroke-width:0.5;" x="518.4" xlink:href="#md481d8d269" y="95.5636363636"/>
      </g>
     </g>
     <g id="text_13">
      <!-- 0.4 -->
      <g style="fill:#555555;" transform="translate(48.096875 98.3230113636)scale(0.1 -0.1)">
       <use xlink:href="#BitstreamVeraSans-Roman-30"/>
       <use x="63.623046875" xlink:href="#BitstreamVeraSans-Roman-2e"/>
       <use x="95.41015625" xlink:href="#BitstreamVeraSans-Roman-34"/>
      </g>
     </g>
    </g>
    <g id="ytick_8">
     <g id="line2d_40">
      <path clip-path="url(#p69bab437e4)" d="M 72 78.109091 
L 518.4 78.109091 
" style="fill:none;stroke:#ffffff;stroke-linecap:square;stroke-width:0.5;"/>
     </g>
     <g id="line2d_41">
      <g>
       <use style="fill:#555555;stroke:#555555;stroke-width:0.5;" x="72.0" xlink:href="#m4b86404989" y="78.1090909091"/>
      </g>
     </g>
     <g id="line2d_42">
      <g>
       <use style="fill:#555555;stroke:#555555;stroke-width:0.5;" x="518.4" xlink:href="#md481d8d269" y="78.1090909091"/>
      </g>
     </g>
     <g id="text_14">
      <!-- 0.6 -->
      <g style="fill:#555555;" transform="translate(48.096875 80.8684659091)scale(0.1 -0.1)">
       <use xlink:href="#BitstreamVeraSans-Roman-30"/>
       <use x="63.623046875" xlink:href="#BitstreamVeraSans-Roman-2e"/>
       <use x="95.41015625" xlink:href="#BitstreamVeraSans-Roman-36"/>
      </g>
     </g>
    </g>
    <g id="ytick_9">
     <g id="line2d_43">
      <path clip-path="url(#p69bab437e4)" d="M 72 60.654545 
L 518.4 60.654545 
" style="fill:none;stroke:#ffffff;stroke-linecap:square;stroke-width:0.5;"/>
     </g>
     <g id="line2d_44">
      <g>
       <use style="fill:#555555;stroke:#555555;stroke-width:0.5;" x="72.0" xlink:href="#m4b86404989" y="60.6545454545"/>
      </g>
     </g>
     <g id="line2d_45">
      <g>
       <use style="fill:#555555;stroke:#555555;stroke-width:0.5;" x="518.4" xlink:href="#md481d8d269" y="60.6545454545"/>
      </g>
     </g>
     <g id="text_15">
      <!-- 0.8 -->
      <g style="fill:#555555;" transform="translate(48.096875 63.4139204545)scale(0.1 -0.1)">
       <use xlink:href="#BitstreamVeraSans-Roman-30"/>
       <use x="63.623046875" xlink:href="#BitstreamVeraSans-Roman-2e"/>
       <use x="95.41015625" xlink:href="#BitstreamVeraSans-Roman-38"/>
      </g>
     </g>
    </g>
    <g id="ytick_10">
     <g id="line2d_46">
      <path clip-path="url(#p69bab437e4)" d="M 72 43.2 
L 518.4 43.2 
" style="fill:none;stroke:#ffffff;stroke-linecap:square;stroke-width:0.5;"/>
     </g>
     <g id="line2d_47">
      <g>
       <use style="fill:#555555;stroke:#555555;stroke-width:0.5;" x="72.0" xlink:href="#m4b86404989" y="43.2"/>
      </g>
     </g>
     <g id="line2d_48">
      <g>
       <use style="fill:#555555;stroke:#555555;stroke-width:0.5;" x="518.4" xlink:href="#md481d8d269" y="43.2"/>
      </g>
     </g>
     <g id="text_16">
      <!-- 1.0 -->
      <g style="fill:#555555;" transform="translate(48.096875 45.959375)scale(0.1 -0.1)">
       <use xlink:href="#BitstreamVeraSans-Roman-31"/>
       <use x="63.623046875" xlink:href="#BitstreamVeraSans-Roman-2e"/>
       <use x="95.41015625" xlink:href="#BitstreamVeraSans-Roman-30"/>
      </g>
     </g>
    </g>
   </g>
   <g id="line2d_49">
    <defs>
     <path d="M 0 3 
C 0.795609 3 1.55874 2.683901 2.12132 2.12132 
C 2.683901 1.55874 3 0.795609 3 0 
C 3 -0.795609 2.683901 -1.55874 2.12132 -2.12132 
C 1.55874 -2.683901 0.795609 -3 0 -3 
C -0.795609 -3 -1.55874 -2.683901 -2.12132 -2.12132 
C -2.683901 -1.55874 -3 -0.795609 -3 0 
C -3 0.795609 -2.683901 1.55874 -2.12132 2.12132 
C -1.55874 2.683901 -0.795609 3 0 3 
z
" id="m7452deabfc" style="stroke:#000000;stroke-width:0.5;"/>
    </defs>
    <g clip-path="url(#p69bab437e4)">
     <use style="fill:#0000ff;stroke:#000000;stroke-width:0.5;" x="72.0" xlink:href="#m7452deabfc" y="43.2"/>
     <use style="fill:#0000ff;stroke:#000000;stroke-width:0.5;" x="80.928" xlink:href="#m7452deabfc" y="66.586573236"/>
     <use style="fill:#0000ff;stroke:#000000;stroke-width:0.5;" x="89.856" xlink:href="#m7452deabfc" y="108.392577467"/>
     <use style="fill:#0000ff;stroke:#000000;stroke-width:0.5;" x="98.784" xlink:href="#m7452deabfc" y="150.451673012"/>
     <use style="fill:#0000ff;stroke:#000000;stroke-width:0.5;" x="107.712" xlink:href="#m7452deabfc" y="177.800754232"/>
     <use style="fill:#0000ff;stroke:#000000;stroke-width:0.5;" x="116.64" xlink:href="#m7452deabfc" y="183.40631212"/>
     <use style="fill:#0000ff;stroke:#000000;stroke-width:0.5;" x="125.568" xlink:href="#m7452deabfc" y="169.221638427"/>
     <use style="fill:#0000ff;stroke:#000000;stroke-width:0.5;" x="134.496" xlink:href="#m7452deabfc" y="143.865015101"/>
     <use style="fill:#0000ff;stroke:#000000;stroke-width:0.5;" x="143.424" xlink:href="#m7452deabfc" y="118.354884133"/>
     <use style="fill:#0000ff;stroke:#000000;stroke-width:0.5;" x="152.352" xlink:href="#m7452deabfc" y="101.766827858"/>
     <use style="fill:#0000ff;stroke:#000000;stroke-width:0.5;" x="161.28" xlink:href="#m7452deabfc" y="98.3668851341"/>
     <use style="fill:#0000ff;stroke:#000000;stroke-width:0.5;" x="170.208" xlink:href="#m7452deabfc" y="106.970324627"/>
     <use style="fill:#0000ff;stroke:#000000;stroke-width:0.5;" x="179.136" xlink:href="#m7452deabfc" y="122.349894101"/>
     <use style="fill:#0000ff;stroke:#000000;stroke-width:0.5;" x="188.064" xlink:href="#m7452deabfc" y="137.822570667"/>
     <use style="fill:#0000ff;stroke:#000000;stroke-width:0.5;" x="196.992" xlink:href="#m7452deabfc" y="147.883735382"/>
     <use style="fill:#0000ff;stroke:#000000;stroke-width:0.5;" x="205.92" xlink:href="#m7452deabfc" y="149.945904886"/>
     <use style="fill:#0000ff;stroke:#000000;stroke-width:0.5;" x="214.848" xlink:href="#m7452deabfc" y="144.727655054"/>
     <use style="fill:#0000ff;stroke:#000000;stroke-width:0.5;" x="223.776" xlink:href="#m7452deabfc" y="135.399474635"/>
     <use style="fill:#0000ff;stroke:#000000;stroke-width:0.5;" x="232.704" xlink:href="#m7452deabfc" y="126.01482191"/>
     <use style="fill:#0000ff;stroke:#000000;stroke-width:0.5;" x="241.632" xlink:href="#m7452deabfc" y="119.912417038"/>
     <use style="fill:#0000ff;stroke:#000000;stroke-width:0.5;" x="250.56" xlink:href="#m7452deabfc" y="118.661648008"/>
     <use style="fill:#0000ff;stroke:#000000;stroke-width:0.5;" x="259.488" xlink:href="#m7452deabfc" y="121.826676521"/>
     <use style="fill:#0000ff;stroke:#000000;stroke-width:0.5;" x="268.416" xlink:href="#m7452deabfc" y="127.484503945"/>
     <use style="fill:#0000ff;stroke:#000000;stroke-width:0.5;" x="277.344" xlink:href="#m7452deabfc" y="133.176583553"/>
     <use style="fill:#0000ff;stroke:#000000;stroke-width:0.5;" x="286.272" xlink:href="#m7452deabfc" y="136.877879206"/>
     <use style="fill:#0000ff;stroke:#000000;stroke-width:0.5;" x="295.2" xlink:href="#m7452deabfc" y="137.636508971"/>
     <use style="fill:#0000ff;stroke:#000000;stroke-width:0.5;" x="304.128" xlink:href="#m7452deabfc" y="135.716822139"/>
     <use style="fill:#0000ff;stroke:#000000;stroke-width:0.5;" x="313.056" xlink:href="#m7452deabfc" y="132.285176339"/>
     <use style="fill:#0000ff;stroke:#000000;stroke-width:0.5;" x="321.984" xlink:href="#m7452deabfc" y="128.832755539"/>
     <use style="fill:#0000ff;stroke:#000000;stroke-width:0.5;" x="330.912" xlink:href="#m7452deabfc" y="126.587806245"/>
     <use style="fill:#0000ff;stroke:#000000;stroke-width:0.5;" x="339.84" xlink:href="#m7452deabfc" y="126.127674033"/>
     <use style="fill:#0000ff;stroke:#000000;stroke-width:0.5;" x="348.768" xlink:href="#m7452deabfc" y="127.292022954"/>
     <use style="fill:#0000ff;stroke:#000000;stroke-width:0.5;" x="357.696" xlink:href="#m7452deabfc" y="129.373421345"/>
     <use style="fill:#0000ff;stroke:#000000;stroke-width:0.5;" x="366.624" xlink:href="#m7452deabfc" y="131.46742041"/>
     <use style="fill:#0000ff;stroke:#000000;stroke-width:0.5;" x="375.552" xlink:href="#m7452deabfc" y="132.829050987"/>
     <use style="fill:#0000ff;stroke:#000000;stroke-width:0.5;" x="384.48" xlink:href="#m7452deabfc" y="133.10813528"/>
     <use style="fill:#0000ff;stroke:#000000;stroke-width:0.5;" x="393.408" xlink:href="#m7452deabfc" y="132.401921962"/>
     <use style="fill:#0000ff;stroke:#000000;stroke-width:0.5;" x="402.336" xlink:href="#m7452deabfc" y="131.139490022"/>
     <use style="fill:#0000ff;stroke:#000000;stroke-width:0.5;" x="411.264" xlink:href="#m7452deabfc" y="129.869415388"/>
     <use style="fill:#0000ff;stroke:#000000;stroke-width:0.5;" x="420.192" xlink:href="#m7452deabfc" y="129.043544696"/>
     <use style="fill:#0000ff;stroke:#000000;stroke-width:0.5;" x="429.12" xlink:href="#m7452deabfc" y="128.874271515"/>
     <use style="fill:#0000ff;stroke:#000000;stroke-width:0.5;" x="438.048" xlink:href="#m7452deabfc" y="129.302611545"/>
     <use style="fill:#0000ff;stroke:#000000;stroke-width:0.5;" x="446.976" xlink:href="#m7452deabfc" y="130.068315222"/>
     <use style="fill:#0000ff;stroke:#000000;stroke-width:0.5;" x="455.904" xlink:href="#m7452deabfc" y="130.838654428"/>
     <use style="fill:#0000ff;stroke:#000000;stroke-width:0.5;" x="464.832" xlink:href="#m7452deabfc" y="131.339570324"/>
     <use style="fill:#0000ff;stroke:#000000;stroke-width:0.5;" x="473.76" xlink:href="#m7452deabfc" y="131.442239698"/>
     <use style="fill:#0000ff;stroke:#000000;stroke-width:0.5;" x="482.688" xlink:href="#m7452deabfc" y="131.182438337"/>
     <use style="fill:#0000ff;stroke:#000000;stroke-width:0.5;" x="491.616" xlink:href="#m7452deabfc" y="130.71801558"/>
     <use style="fill:#0000ff;stroke:#000000;stroke-width:0.5;" x="500.544" xlink:href="#m7452deabfc" y="130.250781234"/>
     <use style="fill:#0000ff;stroke:#000000;stroke-width:0.5;" x="509.472" xlink:href="#m7452deabfc" y="129.946960385"/>
    </g>
   </g>
   <g id="line2d_50">
    <path clip-path="url(#p69bab437e4)" d="M 72 43.2 
L 73.7856 45.602661 
L 75.5712 49.256337 
L 77.3568 54.054064 
L 79.1424 59.874936 
L 80.928 66.586573 
L 82.7136 74.047665 
L 86.2848 90.623871 
L 95.2128 134.698013 
L 98.784 150.451673 
L 100.5696 157.455641 
L 102.3552 163.75729 
L 104.1408 169.284273 
L 105.9264 173.979361 
L 107.712 177.800754 
L 109.4976 180.72214 
L 111.2832 182.732502 
L 113.0688 183.835698 
L 114.8544 184.049812 
L 116.64 183.406312 
L 118.4256 181.949025 
L 120.2112 179.732958 
L 121.9968 176.82299 
L 123.7824 173.292452 
L 125.568 169.221638 
L 127.3536 164.696258 
L 130.9248 154.64228 
L 139.8528 127.909962 
L 143.424 118.354884 
L 145.2096 114.106763 
L 146.9952 110.28462 
L 148.7808 106.932335 
L 150.5664 104.08462 
L 152.352 101.766828 
L 154.1376 99.994918 
L 155.9232 98.775572 
L 157.7088 98.106449 
L 159.4944 97.976583 
L 161.28 98.366885 
L 163.0656 99.250775 
L 164.8512 100.594887 
L 166.6368 102.359872 
L 168.4224 104.501251 
L 170.208 106.970325 
L 171.9936 109.715107 
L 175.5648 115.813152 
L 184.4928 132.027123 
L 188.064 137.822571 
L 189.8496 140.399187 
L 191.6352 142.717433 
L 193.4208 144.750697 
L 195.2064 146.477923 
L 196.992 147.883735 
L 198.7776 148.958453 
L 200.5632 149.698024 
L 202.3488 150.103867 
L 204.1344 150.182635 
L 205.92 149.945905 
L 207.7056 149.409799 
L 209.4912 148.594553 
L 211.2768 147.524036 
L 213.0624 146.225224 
L 214.848 144.727655 
L 218.4192 141.263785 
L 221.9904 137.398183 
L 229.1328 129.529939 
L 232.704 126.014822 
L 234.4896 124.452025 
L 236.2752 123.045938 
L 238.0608 121.812701 
L 239.8464 120.765085 
L 241.632 119.912417 
L 243.4176 119.260568 
L 245.2032 118.811995 
L 246.9888 118.565839 
L 248.7744 118.518064 
L 250.56 118.661648 
L 252.3456 118.986813 
L 254.1312 119.481284 
L 255.9168 120.130586 
L 259.488 121.826677 
L 263.0592 123.92762 
L 268.416 127.484504 
L 273.7728 131.044557 
L 277.344 133.176584 
L 280.9152 134.977303 
L 284.4864 136.36071 
L 286.272 136.877879 
L 288.0576 137.273246 
L 289.8432 137.545319 
L 291.6288 137.69462 
L 293.4144 137.723597 
L 296.9856 137.439287 
L 300.5568 136.745553 
L 304.128 135.716822 
L 307.6992 134.442535 
L 314.8416 131.549995 
L 320.1984 129.458194 
L 323.7696 128.257835 
L 327.3408 127.286882 
L 330.912 126.587806 
L 334.4832 126.182984 
L 338.0544 126.074852 
L 341.6256 126.247295 
L 345.1968 126.668066 
L 348.768 127.292023 
L 354.1248 128.48877 
L 366.624 131.46742 
L 371.9808 132.40504 
L 375.552 132.829051 
L 379.1232 133.074588 
L 382.6944 133.140173 
L 386.2656 133.035581 
L 391.6224 132.604596 
L 396.9792 131.933138 
L 414.8352 129.467621 
L 420.192 129.043545 
L 425.5488 128.861305 
L 430.9056 128.918278 
L 436.2624 129.179684 
L 445.1904 129.904251 
L 457.6896 130.966937 
L 464.832 131.33957 
L 471.9744 131.454026 
L 479.1168 131.321662 
L 488.0448 130.915408 
L 505.9008 130.04157 
L 514.8288 129.879918 
L 516.6144 129.87754 
L 516.6144 129.87754 
" style="fill:none;stroke:#000000;stroke-linecap:square;"/>
   </g>
   <g id="patch_3">
    <path d="M 72 43.2 
L 518.4 43.2 
" style="fill:none;stroke:#ffffff;stroke-linecap:square;stroke-linejoin:miter;"/>
   </g>
   <g id="patch_4">
    <path d="M 518.4 200.290909 
L 518.4 43.2 
" style="fill:none;stroke:#ffffff;stroke-linecap:square;stroke-linejoin:miter;"/>
   </g>
   <g id="patch_5">
    <path d="M 72 200.290909 
L 72 43.2 
" style="fill:none;stroke:#ffffff;stroke-linecap:square;stroke-linejoin:miter;"/>
   </g>
   <g id="patch_6">
    <path d="M 72 200.290909 
L 518.4 200.290909 
" style="fill:none;stroke:#ffffff;stroke-linecap:square;stroke-linejoin:miter;"/>
   </g>
  </g>
  <g id="axes_2">
   <g id="patch_7">
    <path d="M 72 388.8 
L 518.4 388.8 
L 518.4 231.709091 
L 72 231.709091 
z
" style="fill:#e5e5e5;"/>
   </g>
   <g id="matplotlib.axis_3">
    <g id="xtick_7">
     <g id="line2d_51">
      <path clip-path="url(#pa91fa26051)" d="M 72 388.8 
L 72 231.709091 
" style="fill:none;stroke:#ffffff;stroke-linecap:square;stroke-width:0.5;"/>
     </g>
     <g id="line2d_52">
      <g>
       <use style="fill:#555555;stroke:#555555;stroke-width:0.5;" x="72.0" xlink:href="#m64e5030fc4" y="388.8"/>
      </g>
     </g>
     <g id="line2d_53">
      <g>
       <use style="fill:#555555;stroke:#555555;stroke-width:0.5;" x="72.0" xlink:href="#mebd5d28136" y="231.709090909"/>
      </g>
     </g>
     <g id="text_17">
      <!-- 0 -->
      <g style="fill:#555555;" transform="translate(68.81875 404.3984375)scale(0.1 -0.1)">
       <use xlink:href="#BitstreamVeraSans-Roman-30"/>
      </g>
     </g>
    </g>
    <g id="xtick_8">
     <g id="line2d_54">
      <path clip-path="url(#pa91fa26051)" d="M 161.28 388.8 
L 161.28 231.709091 
" style="fill:none;stroke:#ffffff;stroke-linecap:square;stroke-width:0.5;"/>
     </g>
     <g id="line2d_55">
      <g>
       <use style="fill:#555555;stroke:#555555;stroke-width:0.5;" x="161.28" xlink:href="#m64e5030fc4" y="388.8"/>
      </g>
     </g>
     <g id="line2d_56">
      <g>
       <use style="fill:#555555;stroke:#555555;stroke-width:0.5;" x="161.28" xlink:href="#mebd5d28136" y="231.709090909"/>
      </g>
     </g>
     <g id="text_18">
      <!-- 1 -->
      <g style="fill:#555555;" transform="translate(158.09875 404.3984375)scale(0.1 -0.1)">
       <use xlink:href="#BitstreamVeraSans-Roman-31"/>
      </g>
     </g>
    </g>
    <g id="xtick_9">
     <g id="line2d_57">
      <path clip-path="url(#pa91fa26051)" d="M 250.56 388.8 
L 250.56 231.709091 
" style="fill:none;stroke:#ffffff;stroke-linecap:square;stroke-width:0.5;"/>
     </g>
     <g id="line2d_58">
      <g>
       <use style="fill:#555555;stroke:#555555;stroke-width:0.5;" x="250.56" xlink:href="#m64e5030fc4" y="388.8"/>
      </g>
     </g>
     <g id="line2d_59">
      <g>
       <use style="fill:#555555;stroke:#555555;stroke-width:0.5;" x="250.56" xlink:href="#mebd5d28136" y="231.709090909"/>
      </g>
     </g>
     <g id="text_19">
      <!-- 2 -->
      <g style="fill:#555555;" transform="translate(247.37875 404.3984375)scale(0.1 -0.1)">
       <use xlink:href="#BitstreamVeraSans-Roman-32"/>
      </g>
     </g>
    </g>
    <g id="xtick_10">
     <g id="line2d_60">
      <path clip-path="url(#pa91fa26051)" d="M 339.84 388.8 
L 339.84 231.709091 
" style="fill:none;stroke:#ffffff;stroke-linecap:square;stroke-width:0.5;"/>
     </g>
     <g id="line2d_61">
      <g>
       <use style="fill:#555555;stroke:#555555;stroke-width:0.5;" x="339.84" xlink:href="#m64e5030fc4" y="388.8"/>
      </g>
     </g>
     <g id="line2d_62">
      <g>
       <use style="fill:#555555;stroke:#555555;stroke-width:0.5;" x="339.84" xlink:href="#mebd5d28136" y="231.709090909"/>
      </g>
     </g>
     <g id="text_20">
      <!-- 3 -->
      <g style="fill:#555555;" transform="translate(336.65875 404.3984375)scale(0.1 -0.1)">
       <use xlink:href="#BitstreamVeraSans-Roman-33"/>
      </g>
     </g>
    </g>
    <g id="xtick_11">
     <g id="line2d_63">
      <path clip-path="url(#pa91fa26051)" d="M 429.12 388.8 
L 429.12 231.709091 
" style="fill:none;stroke:#ffffff;stroke-linecap:square;stroke-width:0.5;"/>
     </g>
     <g id="line2d_64">
      <g>
       <use style="fill:#555555;stroke:#555555;stroke-width:0.5;" x="429.12" xlink:href="#m64e5030fc4" y="388.8"/>
      </g>
     </g>
     <g id="line2d_65">
      <g>
       <use style="fill:#555555;stroke:#555555;stroke-width:0.5;" x="429.12" xlink:href="#mebd5d28136" y="231.709090909"/>
      </g>
     </g>
     <g id="text_21">
      <!-- 4 -->
      <g style="fill:#555555;" transform="translate(425.93875 404.3984375)scale(0.1 -0.1)">
       <use xlink:href="#BitstreamVeraSans-Roman-34"/>
      </g>
     </g>
    </g>
    <g id="xtick_12">
     <g id="line2d_66">
      <path clip-path="url(#pa91fa26051)" d="M 518.4 388.8 
L 518.4 231.709091 
" style="fill:none;stroke:#ffffff;stroke-linecap:square;stroke-width:0.5;"/>
     </g>
     <g id="line2d_67">
      <g>
       <use style="fill:#555555;stroke:#555555;stroke-width:0.5;" x="518.4" xlink:href="#m64e5030fc4" y="388.8"/>
      </g>
     </g>
     <g id="line2d_68">
      <g>
       <use style="fill:#555555;stroke:#555555;stroke-width:0.5;" x="518.4" xlink:href="#mebd5d28136" y="231.709090909"/>
      </g>
     </g>
     <g id="text_22">
      <!-- 5 -->
      <g style="fill:#555555;" transform="translate(515.21875 404.3984375)scale(0.1 -0.1)">
       <use xlink:href="#BitstreamVeraSans-Roman-35"/>
      </g>
     </g>
    </g>
   </g>
   <g id="matplotlib.axis_4">
    <g id="ytick_11">
     <g id="line2d_69">
      <path clip-path="url(#pa91fa26051)" d="M 72 388.8 
L 518.4 388.8 
" style="fill:none;stroke:#ffffff;stroke-linecap:square;stroke-width:0.5;"/>
     </g>
     <g id="line2d_70">
      <g>
       <use style="fill:#555555;stroke:#555555;stroke-width:0.5;" x="72.0" xlink:href="#m4b86404989" y="388.8"/>
      </g>
     </g>
     <g id="line2d_71">
      <g>
       <use style="fill:#555555;stroke:#555555;stroke-width:0.5;" x="518.4" xlink:href="#md481d8d269" y="388.8"/>
      </g>
     </g>
     <g id="text_23">
      <!-- −1.0 -->
      <g style="fill:#555555;" transform="translate(39.7171875 391.559375)scale(0.1 -0.1)">
       <use xlink:href="#BitstreamVeraSans-Roman-2212"/>
       <use x="83.7890625" xlink:href="#BitstreamVeraSans-Roman-31"/>
       <use x="147.412109375" xlink:href="#BitstreamVeraSans-Roman-2e"/>
       <use x="179.19921875" xlink:href="#BitstreamVeraSans-Roman-30"/>
      </g>
     </g>
    </g>
    <g id="ytick_12">
     <g id="line2d_72">
      <path clip-path="url(#pa91fa26051)" d="M 72 349.527273 
L 518.4 349.527273 
" style="fill:none;stroke:#ffffff;stroke-linecap:square;stroke-width:0.5;"/>
     </g>
     <g id="line2d_73">
      <g>
       <use style="fill:#555555;stroke:#555555;stroke-width:0.5;" x="72.0" xlink:href="#m4b86404989" y="349.527272727"/>
      </g>
     </g>
     <g id="line2d_74">
      <g>
       <use style="fill:#555555;stroke:#555555;stroke-width:0.5;" x="518.4" xlink:href="#md481d8d269" y="349.527272727"/>
      </g>
     </g>
     <g id="text_24">
      <!-- −0.5 -->
      <g style="fill:#555555;" transform="translate(39.7171875 352.286647727)scale(0.1 -0.1)">
       <use xlink:href="#BitstreamVeraSans-Roman-2212"/>
       <use x="83.7890625" xlink:href="#BitstreamVeraSans-Roman-30"/>
       <use x="147.412109375" xlink:href="#BitstreamVeraSans-Roman-2e"/>
       <use x="179.19921875" xlink:href="#BitstreamVeraSans-Roman-35"/>
      </g>
     </g>
    </g>
    <g id="ytick_13">
     <g id="line2d_75">
      <path clip-path="url(#pa91fa26051)" d="M 72 310.254545 
L 518.4 310.254545 
" style="fill:none;stroke:#ffffff;stroke-linecap:square;stroke-width:0.5;"/>
     </g>
     <g id="line2d_76">
      <g>
       <use style="fill:#555555;stroke:#555555;stroke-width:0.5;" x="72.0" xlink:href="#m4b86404989" y="310.254545455"/>
      </g>
     </g>
     <g id="line2d_77">
      <g>
       <use style="fill:#555555;stroke:#555555;stroke-width:0.5;" x="518.4" xlink:href="#md481d8d269" y="310.254545455"/>
      </g>
     </g>
     <g id="text_25">
      <!-- 0.0 -->
      <g style="fill:#555555;" transform="translate(48.096875 313.013920455)scale(0.1 -0.1)">
       <use xlink:href="#BitstreamVeraSans-Roman-30"/>
       <use x="63.623046875" xlink:href="#BitstreamVeraSans-Roman-2e"/>
       <use x="95.41015625" xlink:href="#BitstreamVeraSans-Roman-30"/>
      </g>
     </g>
    </g>
    <g id="ytick_14">
     <g id="line2d_78">
      <path clip-path="url(#pa91fa26051)" d="M 72 270.981818 
L 518.4 270.981818 
" style="fill:none;stroke:#ffffff;stroke-linecap:square;stroke-width:0.5;"/>
     </g>
     <g id="line2d_79">
      <g>
       <use style="fill:#555555;stroke:#555555;stroke-width:0.5;" x="72.0" xlink:href="#m4b86404989" y="270.981818182"/>
      </g>
     </g>
     <g id="line2d_80">
      <g>
       <use style="fill:#555555;stroke:#555555;stroke-width:0.5;" x="518.4" xlink:href="#md481d8d269" y="270.981818182"/>
      </g>
     </g>
     <g id="text_26">
      <!-- 0.5 -->
      <g style="fill:#555555;" transform="translate(48.096875 273.741193182)scale(0.1 -0.1)">
       <use xlink:href="#BitstreamVeraSans-Roman-30"/>
       <use x="63.623046875" xlink:href="#BitstreamVeraSans-Roman-2e"/>
       <use x="95.41015625" xlink:href="#BitstreamVeraSans-Roman-35"/>
      </g>
     </g>
    </g>
    <g id="ytick_15">
     <g id="line2d_81">
      <path clip-path="url(#pa91fa26051)" d="M 72 231.709091 
L 518.4 231.709091 
" style="fill:none;stroke:#ffffff;stroke-linecap:square;stroke-width:0.5;"/>
     </g>
     <g id="line2d_82">
      <g>
       <use style="fill:#555555;stroke:#555555;stroke-width:0.5;" x="72.0" xlink:href="#m4b86404989" y="231.709090909"/>
      </g>
     </g>
     <g id="line2d_83">
      <g>
       <use style="fill:#555555;stroke:#555555;stroke-width:0.5;" x="518.4" xlink:href="#md481d8d269" y="231.709090909"/>
      </g>
     </g>
     <g id="text_27">
      <!-- 1.0 -->
      <g style="fill:#555555;" transform="translate(48.096875 234.468465909)scale(0.1 -0.1)">
       <use xlink:href="#BitstreamVeraSans-Roman-31"/>
       <use x="63.623046875" xlink:href="#BitstreamVeraSans-Roman-2e"/>
       <use x="95.41015625" xlink:href="#BitstreamVeraSans-Roman-30"/>
      </g>
     </g>
    </g>
   </g>
   <g id="line2d_84">
    <path clip-path="url(#pa91fa26051)" d="M 72 231.709091 
L 73.7856 232.328445 
L 75.5712 234.176741 
L 77.3568 237.224829 
L 79.1424 241.424639 
L 80.928 246.709938 
L 82.7136 252.997373 
L 84.4992 260.187788 
L 86.2848 268.167786 
L 89.856 285.982665 
L 95.2128 315.186455 
L 98.784 334.526426 
L 102.3552 352.341305 
L 104.1408 360.321302 
L 105.9264 367.511718 
L 107.712 373.799153 
L 109.4976 379.084452 
L 111.2832 383.284262 
L 113.0688 386.33235 
L 114.8544 388.180646 
L 116.64 388.8 
L 118.4256 388.180646 
L 120.2112 386.33235 
L 121.9968 383.284262 
L 123.7824 379.084452 
L 125.568 373.799153 
L 127.3536 367.511718 
L 129.1392 360.321302 
L 130.9248 352.341305 
L 134.496 334.526426 
L 139.8528 305.322636 
L 143.424 285.982665 
L 146.9952 268.167786 
L 148.7808 260.187788 
L 150.5664 252.997373 
L 152.352 246.709938 
L 154.1376 241.424639 
L 155.9232 237.224829 
L 157.7088 234.176741 
L 159.4944 232.328445 
L 161.28 231.709091 
L 163.0656 232.328445 
L 164.8512 234.176741 
L 166.6368 237.224829 
L 168.4224 241.424639 
L 170.208 246.709938 
L 171.9936 252.997373 
L 173.7792 260.187788 
L 175.5648 268.167786 
L 179.136 285.982665 
L 184.4928 315.186455 
L 188.064 334.526426 
L 191.6352 352.341305 
L 193.4208 360.321302 
L 195.2064 367.511718 
L 196.992 373.799153 
L 198.7776 379.084452 
L 200.5632 383.284262 
L 202.3488 386.33235 
L 204.1344 388.180646 
L 205.92 388.8 
L 207.7056 388.180646 
L 209.4912 386.33235 
L 211.2768 383.284262 
L 213.0624 379.084452 
L 214.848 373.799153 
L 216.6336 367.511718 
L 218.4192 360.321302 
L 220.2048 352.341305 
L 223.776 334.526426 
L 229.1328 305.322636 
L 232.704 285.982665 
L 236.2752 268.167786 
L 238.0608 260.187788 
L 239.8464 252.997373 
L 241.632 246.709938 
L 243.4176 241.424639 
L 245.2032 237.224829 
L 246.9888 234.176741 
L 248.7744 232.328445 
L 250.56 231.709091 
L 252.3456 232.328445 
L 254.1312 234.176741 
L 255.9168 237.224829 
L 257.7024 241.424639 
L 259.488 246.709938 
L 261.2736 252.997373 
L 263.0592 260.187788 
L 264.8448 268.167786 
L 268.416 285.982665 
L 273.7728 315.186455 
L 277.344 334.526426 
L 280.9152 352.341305 
L 282.7008 360.321302 
L 284.4864 367.511718 
L 286.272 373.799153 
L 288.0576 379.084452 
L 289.8432 383.284262 
L 291.6288 386.33235 
L 293.4144 388.180646 
L 295.2 388.8 
L 296.9856 388.180646 
L 298.7712 386.33235 
L 300.5568 383.284262 
L 302.3424 379.084452 
L 304.128 373.799153 
L 305.9136 367.511718 
L 307.6992 360.321302 
L 309.4848 352.341305 
L 313.056 334.526426 
L 318.4128 305.322636 
L 321.984 285.982665 
L 325.5552 268.167786 
L 327.3408 260.187788 
L 329.1264 252.997373 
L 330.912 246.709938 
L 332.6976 241.424639 
L 334.4832 237.224829 
L 336.2688 234.176741 
L 338.0544 232.328445 
L 339.84 231.709091 
L 341.6256 232.328445 
L 343.4112 234.176741 
L 345.1968 237.224829 
L 346.9824 241.424639 
L 348.768 246.709938 
L 350.5536 252.997373 
L 352.3392 260.187788 
L 354.1248 268.167786 
L 357.696 285.982665 
L 363.0528 315.186455 
L 366.624 334.526426 
L 370.1952 352.341305 
L 371.9808 360.321302 
L 373.7664 367.511718 
L 375.552 373.799153 
L 377.3376 379.084452 
L 379.1232 383.284262 
L 380.9088 386.33235 
L 382.6944 388.180646 
L 384.48 388.8 
L 386.2656 388.180646 
L 388.0512 386.33235 
L 389.8368 383.284262 
L 391.6224 379.084452 
L 393.408 373.799153 
L 395.1936 367.511718 
L 396.9792 360.321302 
L 398.7648 352.341305 
L 402.336 334.526426 
L 407.6928 305.322636 
L 411.264 285.982665 
L 414.8352 268.167786 
L 416.6208 260.187788 
L 418.4064 252.997373 
L 420.192 246.709938 
L 421.9776 241.424639 
L 423.7632 237.224829 
L 425.5488 234.176741 
L 427.3344 232.328445 
L 429.12 231.709091 
L 430.9056 232.328445 
L 432.6912 234.176741 
L 434.4768 237.224829 
L 436.2624 241.424639 
L 438.048 246.709938 
L 439.8336 252.997373 
L 441.6192 260.187788 
L 443.4048 268.167786 
L 446.976 285.982665 
L 452.3328 315.186455 
L 455.904 334.526426 
L 459.4752 352.341305 
L 461.2608 360.321302 
L 463.0464 367.511718 
L 464.832 373.799153 
L 466.6176 379.084452 
L 468.4032 383.284262 
L 470.1888 386.33235 
L 471.9744 388.180646 
L 473.76 388.8 
L 475.5456 388.180646 
L 477.3312 386.33235 
L 479.1168 383.284262 
L 480.9024 379.084452 
L 482.688 373.799153 
L 484.4736 367.511718 
L 486.2592 360.321302 
L 488.0448 352.341305 
L 491.616 334.526426 
L 496.9728 305.322636 
L 500.544 285.982665 
L 504.1152 268.167786 
L 505.9008 260.187788 
L 507.6864 252.997373 
L 509.472 246.709938 
L 511.2576 241.424639 
L 513.0432 237.224829 
L 514.8288 234.176741 
L 516.6144 232.328445 
L 516.6144 232.328445 
" style="fill:none;stroke:#ff0000;stroke-dasharray:6.000000,6.000000;stroke-dashoffset:0.0;"/>
   </g>
   <g id="patch_8">
    <path d="M 72 231.709091 
L 518.4 231.709091 
" style="fill:none;stroke:#ffffff;stroke-linecap:square;stroke-linejoin:miter;"/>
   </g>
   <g id="patch_9">
    <path d="M 518.4 388.8 
L 518.4 231.709091 
" style="fill:none;stroke:#ffffff;stroke-linecap:square;stroke-linejoin:miter;"/>
   </g>
   <g id="patch_10">
    <path d="M 72 388.8 
L 72 231.709091 
" style="fill:none;stroke:#ffffff;stroke-linecap:square;stroke-linejoin:miter;"/>
   </g>
   <g id="patch_11">
    <path d="M 72 388.8 
L 518.4 388.8 
" style="fill:none;stroke:#ffffff;stroke-linecap:square;stroke-linejoin:miter;"/>
   </g>
  </g>
 </g>
 <defs>
  <clipPath id="pa91fa26051">
   <rect height="157.090909091" width="446.4" x="72.0" y="231.709090909"/>
  </clipPath>
  <clipPath id="p69bab437e4">
   <rect height="157.090909091" width="446.4" x="72.0" y="43.2"/>
  </clipPath>
 </defs>
</svg>
