<?xml version="1.0" encoding="utf-8" standalone="no"?>
<!DOCTYPE svg PUBLIC "-//W3C//DTD SVG 1.1//EN"
  "http://www.w3.org/Graphics/SVG/1.1/DTD/svg11.dtd">
<!-- Created with matplotlib (http://matplotlib.org/) -->
<svg height="432pt" version="1.1" viewBox="0 0 576 432" width="576pt" xmlns="http://www.w3.org/2000/svg" xmlns:xlink="http://www.w3.org/1999/xlink">
 <defs>
  <style type="text/css">
*{stroke-linecap:butt;stroke-linejoin:round;stroke-miterlimit:100000;}
  </style>
 </defs>
 <g id="figure_1">
  <g id="patch_1">
   <path d="M 0 432 
L 576 432 
L 576 0 
L 0 0 
z
" style="fill:#ffffff;"/>
  </g>
  <g id="axes_1">
   <g id="patch_2">
    <path d="M 72 388.8 
L 518.4 388.8 
L 518.4 43.2 
L 72 43.2 
z
" style="fill:#e5e5e5;"/>
   </g>
   <g id="matplotlib.axis_1">
    <g id="xtick_1">
     <g id="line2d_1">
      <path clip-path="url(#p71c577e674)" d="M 72 388.8 
L 72 43.2 
" style="fill:none;stroke:#ffffff;stroke-linecap:square;stroke-width:0.5;"/>
     </g>
     <g id="line2d_2">
      <defs>
       <path d="M 0 0 
L 0 4 
" id="m64e5906e1d" style="stroke:#555555;stroke-width:0.5;"/>
      </defs>
      <g>
       <use style="fill:#555555;stroke:#555555;stroke-width:0.5;" x="72.0" xlink:href="#m64e5906e1d" y="388.8"/>
      </g>
     </g>
     <g id="line2d_3">
      <defs>
       <path d="M 0 0 
L 0 -4 
" id="me13055b0ca" style="stroke:#555555;stroke-width:0.5;"/>
      </defs>
      <g>
       <use style="fill:#555555;stroke:#555555;stroke-width:0.5;" x="72.0" xlink:href="#me13055b0ca" y="43.2"/>
      </g>
     </g>
     <g id="text_1">
      <!-- 0 -->
      <defs>
       <path d="M 34.796875 -1.296875 
Q 22.09375 -1.296875 14.59375 9 
Q 7.203125 19.203125 7.203125 37.296875 
Q 7.203125 55.5 15.203125 65.90625 
Q 22.703125 75.90625 34.703125 75.90625 
Q 47.296875 75.90625 54.40625 65.203125 
Q 61.796875 54.59375 61.796875 37.40625 
Q 61.796875 19.5 54.09375 9.09375 
Q 46.5 -1.296875 34.796875 -1.296875 
M 34 5.40625 
Q 44.703125 5.40625 50 15.5 
Q 54.09375 24 54.09375 37.5 
Q 54.09375 51.796875 49.40625 60.296875 
Q 44.09375 69.203125 34.59375 69.203125 
Q 24.59375 69.203125 19.5 59.703125 
Q 15 51.296875 15 37.09375 
Q 15 23.09375 19.5 14.703125 
Q 24.59375 5.40625 34 5.40625 
" id="AppleGothic-30"/>
      </defs>
      <g style="fill:#555555;" transform="translate(68.6 404.640625)scale(0.1 -0.1)">
       <use xlink:href="#AppleGothic-30"/>
      </g>
     </g>
    </g>
    <g id="xtick_2">
     <g id="line2d_4">
      <path clip-path="url(#p71c577e674)" d="M 161.28 388.8 
L 161.28 43.2 
" style="fill:none;stroke:#ffffff;stroke-linecap:square;stroke-width:0.5;"/>
     </g>
     <g id="line2d_5">
      <g>
       <use style="fill:#555555;stroke:#555555;stroke-width:0.5;" x="161.28" xlink:href="#m64e5906e1d" y="388.8"/>
      </g>
     </g>
     <g id="line2d_6">
      <g>
       <use style="fill:#555555;stroke:#555555;stroke-width:0.5;" x="161.28" xlink:href="#me13055b0ca" y="43.2"/>
      </g>
     </g>
     <g id="text_2">
      <!-- 20 -->
      <defs>
       <path d="M 17.203125 6.703125 
L 61.59375 6.703125 
L 61.59375 0 
L 10.203125 0 
L 10.203125 3.203125 
Q 10.203125 15.90625 21 26 
Q 26.09375 29.59375 31.09375 33.1875 
Q 36.09375 36.796875 41.203125 40.5 
Q 52.09375 48.40625 52.09375 56.203125 
Q 52.09375 62.40625 47.09375 65.90625 
Q 44.796875 67.59375 42.09375 68.390625 
Q 39.40625 69.203125 36.203125 69.203125 
Q 31.5 69.203125 27.203125 68 
Q 20.703125 66 13.796875 61.09375 
L 13.796875 69.296875 
Q 20.703125 72.796875 26.046875 74.34375 
Q 31.40625 75.90625 36.203125 75.90625 
Q 46.296875 75.90625 53.203125 70.703125 
Q 60 65.59375 60 56.59375 
Q 60 46.796875 49.5 38.09375 
Q 44.5 34.59375 39.546875 31.25 
Q 34.59375 27.90625 29.59375 24.40625 
Q 18.40625 16 17.203125 6.703125 
" id="AppleGothic-32"/>
      </defs>
      <g style="fill:#555555;" transform="translate(154.48 404.640625)scale(0.1 -0.1)">
       <use xlink:href="#AppleGothic-32"/>
       <use x="67.99998474121094" xlink:href="#AppleGothic-30"/>
      </g>
     </g>
    </g>
    <g id="xtick_3">
     <g id="line2d_7">
      <path clip-path="url(#p71c577e674)" d="M 250.56 388.8 
L 250.56 43.2 
" style="fill:none;stroke:#ffffff;stroke-linecap:square;stroke-width:0.5;"/>
     </g>
     <g id="line2d_8">
      <g>
       <use style="fill:#555555;stroke:#555555;stroke-width:0.5;" x="250.56" xlink:href="#m64e5906e1d" y="388.8"/>
      </g>
     </g>
     <g id="line2d_9">
      <g>
       <use style="fill:#555555;stroke:#555555;stroke-width:0.5;" x="250.56" xlink:href="#me13055b0ca" y="43.2"/>
      </g>
     </g>
     <g id="text_3">
      <!-- 40 -->
      <defs>
       <path d="M 41.59375 74.59375 
L 48.90625 74.59375 
L 48.90625 28.296875 
L 62.5 28.296875 
L 62.5 21.59375 
L 48.90625 21.59375 
L 48.90625 0 
L 41.59375 0 
L 41.59375 21.59375 
L 5.5 21.59375 
L 5.5 28.296875 
z
M 41.59375 28.296875 
L 41.59375 65.09375 
L 13.09375 28.296875 
z
" id="AppleGothic-34"/>
      </defs>
      <g style="fill:#555555;" transform="translate(243.76 404.640625)scale(0.1 -0.1)">
       <use xlink:href="#AppleGothic-34"/>
       <use x="67.99998474121094" xlink:href="#AppleGothic-30"/>
      </g>
     </g>
    </g>
    <g id="xtick_4">
     <g id="line2d_10">
      <path clip-path="url(#p71c577e674)" d="M 339.84 388.8 
L 339.84 43.2 
" style="fill:none;stroke:#ffffff;stroke-linecap:square;stroke-width:0.5;"/>
     </g>
     <g id="line2d_11">
      <g>
       <use style="fill:#555555;stroke:#555555;stroke-width:0.5;" x="339.84" xlink:href="#m64e5906e1d" y="388.8"/>
      </g>
     </g>
     <g id="line2d_12">
      <g>
       <use style="fill:#555555;stroke:#555555;stroke-width:0.5;" x="339.84" xlink:href="#me13055b0ca" y="43.2"/>
      </g>
     </g>
     <g id="text_4">
      <!-- 60 -->
      <defs>
       <path d="M 57.796875 71.203125 
L 57.796875 62.703125 
Q 56 64.09375 54.296875 65.046875 
Q 52.59375 66 50.90625 66.796875 
Q 48.203125 68.09375 45.59375 68.640625 
Q 43 69.203125 40.40625 69.203125 
Q 38.59375 69.203125 36.75 68.890625 
Q 34.90625 68.59375 33.09375 67.796875 
Q 26.09375 64.90625 21.796875 58.40625 
Q 15.796875 49.203125 15.796875 34.203125 
Q 20.5 38.90625 24.5 41.5 
Q 31.59375 45.796875 39.59375 45.796875 
Q 49.40625 45.796875 56 40.09375 
Q 63.09375 33.796875 63.09375 23.296875 
Q 63.09375 12.59375 55.59375 5.59375 
Q 48.09375 -1.296875 37.40625 -1.296875 
Q 26.09375 -1.296875 17.90625 7.09375 
Q 8.09375 17 8.09375 35.203125 
Q 8.09375 53.296875 17.5 64.59375 
Q 26.796875 75.90625 40.703125 75.90625 
Q 45.90625 75.90625 50.40625 74.40625 
Q 51.703125 73.90625 53.546875 73.15625 
Q 55.40625 72.40625 57.796875 71.203125 
M 16.59375 26.59375 
Q 18 18 23.40625 12 
Q 29.40625 5.40625 37.796875 5.40625 
Q 45.296875 5.40625 50.203125 10.296875 
Q 55.296875 15.203125 55.296875 22.796875 
Q 55.296875 30 50.40625 34.59375 
Q 45.59375 39.09375 39 39.09375 
Q 31.09375 39.09375 24.09375 34 
Q 22.09375 32.5 20.1875 30.703125 
Q 18.296875 28.90625 16.59375 26.59375 
" id="AppleGothic-36"/>
      </defs>
      <g style="fill:#555555;" transform="translate(333.04 404.640625)scale(0.1 -0.1)">
       <use xlink:href="#AppleGothic-36"/>
       <use x="67.99998474121094" xlink:href="#AppleGothic-30"/>
      </g>
     </g>
    </g>
    <g id="xtick_5">
     <g id="line2d_13">
      <path clip-path="url(#p71c577e674)" d="M 429.12 388.8 
L 429.12 43.2 
" style="fill:none;stroke:#ffffff;stroke-linecap:square;stroke-width:0.5;"/>
     </g>
     <g id="line2d_14">
      <g>
       <use style="fill:#555555;stroke:#555555;stroke-width:0.5;" x="429.12" xlink:href="#m64e5906e1d" y="388.8"/>
      </g>
     </g>
     <g id="line2d_15">
      <g>
       <use style="fill:#555555;stroke:#555555;stroke-width:0.5;" x="429.12" xlink:href="#me13055b0ca" y="43.2"/>
      </g>
     </g>
     <g id="text_5">
      <!-- 80 -->
      <defs>
       <path d="M 46.203125 40.703125 
Q 50.296875 39.5 53.1875 38.203125 
Q 56.09375 36.90625 57.90625 35.5 
Q 65.5 30.09375 65.5 21.40625 
Q 65.5 11.703125 56.90625 5.203125 
Q 48.40625 -1.296875 35.703125 -1.296875 
Q 22.40625 -1.296875 14.796875 5.09375 
Q 8 10.796875 8 19.203125 
Q 8 28.09375 15.59375 33.203125 
Q 17.90625 34.796875 20.953125 36 
Q 24 37.203125 27.796875 38.296875 
Q 24.59375 39.59375 22.34375 40.890625 
Q 20.09375 42.203125 18.703125 43.5 
Q 12.796875 48.5 12.796875 56.296875 
Q 12.796875 65.203125 19.703125 70.5 
Q 26.59375 75.90625 37.203125 75.90625 
Q 47.09375 75.90625 53.703125 71.40625 
Q 60.90625 66.59375 60.90625 58.40625 
Q 60.90625 52.703125 57.34375 48.140625 
Q 53.796875 43.59375 46.203125 40.703125 
M 37.59375 43 
Q 41 44.296875 43.453125 45.546875 
Q 45.90625 46.796875 47.5 47.90625 
Q 53.09375 51.90625 53.09375 57.296875 
Q 53.09375 62.40625 48.5 65.703125 
Q 44.09375 69.203125 36.90625 69.203125 
Q 29.59375 69.203125 25.203125 65.703125 
Q 20.703125 62.40625 20.703125 56.796875 
Q 20.703125 51.90625 24.703125 48.40625 
Q 26.5 46.90625 29.703125 45.5 
Q 32.90625 44.09375 37.59375 43 
M 37 36 
Q 32.203125 34.40625 28.75 32.90625 
Q 25.296875 31.40625 23 30 
Q 15.796875 25.40625 15.796875 19.296875 
Q 15.796875 13.203125 21.5 9.296875 
Q 27 5.40625 36.09375 5.40625 
Q 45.90625 5.40625 51.796875 10 
Q 57.703125 14.59375 57.703125 20.90625 
Q 57.703125 27.203125 50.59375 31.203125 
Q 48.5 32.296875 45.09375 33.546875 
Q 41.703125 34.796875 37 36 
" id="AppleGothic-38"/>
      </defs>
      <g style="fill:#555555;" transform="translate(422.32 404.640625)scale(0.1 -0.1)">
       <use xlink:href="#AppleGothic-38"/>
       <use x="67.99998474121094" xlink:href="#AppleGothic-30"/>
      </g>
     </g>
    </g>
    <g id="xtick_6">
     <g id="line2d_16">
      <path clip-path="url(#p71c577e674)" d="M 518.4 388.8 
L 518.4 43.2 
" style="fill:none;stroke:#ffffff;stroke-linecap:square;stroke-width:0.5;"/>
     </g>
     <g id="line2d_17">
      <g>
       <use style="fill:#555555;stroke:#555555;stroke-width:0.5;" x="518.4" xlink:href="#m64e5906e1d" y="388.8"/>
      </g>
     </g>
     <g id="line2d_18">
      <g>
       <use style="fill:#555555;stroke:#555555;stroke-width:0.5;" x="518.4" xlink:href="#me13055b0ca" y="43.2"/>
      </g>
     </g>
     <g id="text_6">
      <!-- 100 -->
      <defs>
       <path d="M 36.59375 74.59375 
L 43 74.59375 
L 43 0 
L 35.703125 0 
L 35.703125 55.09375 
L 18.09375 55.09375 
L 18.09375 60.703125 
L 22.09375 60.703125 
Q 31.09375 60.703125 34.59375 65.703125 
Q 36.59375 68.90625 36.59375 74.59375 
" id="AppleGothic-31"/>
      </defs>
      <g style="fill:#555555;" transform="translate(508.2 404.640625)scale(0.1 -0.1)">
       <use xlink:href="#AppleGothic-31"/>
       <use x="67.99998474121094" xlink:href="#AppleGothic-30"/>
       <use x="135.99996948242188" xlink:href="#AppleGothic-30"/>
      </g>
     </g>
    </g>
   </g>
   <g id="matplotlib.axis_2">
    <g id="ytick_1">
     <g id="line2d_19">
      <path clip-path="url(#p71c577e674)" d="M 72 388.8 
L 518.4 388.8 
" style="fill:none;stroke:#ffffff;stroke-linecap:square;stroke-width:0.5;"/>
     </g>
     <g id="line2d_20">
      <defs>
       <path d="M 0 0 
L -4 0 
" id="m2f6e690ff7" style="stroke:#555555;stroke-width:0.5;"/>
      </defs>
      <g>
       <use style="fill:#555555;stroke:#555555;stroke-width:0.5;" x="72.0" xlink:href="#m2f6e690ff7" y="388.8"/>
      </g>
     </g>
     <g id="line2d_21">
      <defs>
       <path d="M 0 0 
L 4 0 
" id="ma758dd6147" style="stroke:#555555;stroke-width:0.5;"/>
      </defs>
      <g>
       <use style="fill:#555555;stroke:#555555;stroke-width:0.5;" x="518.4" xlink:href="#ma758dd6147" y="388.8"/>
      </g>
     </g>
     <g id="text_7">
      <!-- 0 -->
      <g style="fill:#555555;" transform="translate(57.2 391.86015625)scale(0.1 -0.1)">
       <use xlink:href="#AppleGothic-30"/>
      </g>
     </g>
    </g>
    <g id="ytick_2">
     <g id="line2d_22">
      <path clip-path="url(#p71c577e674)" d="M 72 319.68 
L 518.4 319.68 
" style="fill:none;stroke:#ffffff;stroke-linecap:square;stroke-width:0.5;"/>
     </g>
     <g id="line2d_23">
      <g>
       <use style="fill:#555555;stroke:#555555;stroke-width:0.5;" x="72.0" xlink:href="#m2f6e690ff7" y="319.68"/>
      </g>
     </g>
     <g id="line2d_24">
      <g>
       <use style="fill:#555555;stroke:#555555;stroke-width:0.5;" x="518.4" xlink:href="#ma758dd6147" y="319.68"/>
      </g>
     </g>
     <g id="text_8">
      <!-- 2000 -->
      <g style="fill:#555555;" transform="translate(36.8 322.74015625)scale(0.1 -0.1)">
       <use xlink:href="#AppleGothic-32"/>
       <use x="67.99998474121094" xlink:href="#AppleGothic-30"/>
       <use x="135.99996948242188" xlink:href="#AppleGothic-30"/>
       <use x="203.9999542236328" xlink:href="#AppleGothic-30"/>
      </g>
     </g>
    </g>
    <g id="ytick_3">
     <g id="line2d_25">
      <path clip-path="url(#p71c577e674)" d="M 72 250.56 
L 518.4 250.56 
" style="fill:none;stroke:#ffffff;stroke-linecap:square;stroke-width:0.5;"/>
     </g>
     <g id="line2d_26">
      <g>
       <use style="fill:#555555;stroke:#555555;stroke-width:0.5;" x="72.0" xlink:href="#m2f6e690ff7" y="250.56"/>
      </g>
     </g>
     <g id="line2d_27">
      <g>
       <use style="fill:#555555;stroke:#555555;stroke-width:0.5;" x="518.4" xlink:href="#ma758dd6147" y="250.56"/>
      </g>
     </g>
     <g id="text_9">
      <!-- 4000 -->
      <g style="fill:#555555;" transform="translate(36.8 253.62015625)scale(0.1 -0.1)">
       <use xlink:href="#AppleGothic-34"/>
       <use x="67.99998474121094" xlink:href="#AppleGothic-30"/>
       <use x="135.99996948242188" xlink:href="#AppleGothic-30"/>
       <use x="203.9999542236328" xlink:href="#AppleGothic-30"/>
      </g>
     </g>
    </g>
    <g id="ytick_4">
     <g id="line2d_28">
      <path clip-path="url(#p71c577e674)" d="M 72 181.44 
L 518.4 181.44 
" style="fill:none;stroke:#ffffff;stroke-linecap:square;stroke-width:0.5;"/>
     </g>
     <g id="line2d_29">
      <g>
       <use style="fill:#555555;stroke:#555555;stroke-width:0.5;" x="72.0" xlink:href="#m2f6e690ff7" y="181.44"/>
      </g>
     </g>
     <g id="line2d_30">
      <g>
       <use style="fill:#555555;stroke:#555555;stroke-width:0.5;" x="518.4" xlink:href="#ma758dd6147" y="181.44"/>
      </g>
     </g>
     <g id="text_10">
      <!-- 6000 -->
      <g style="fill:#555555;" transform="translate(36.8 184.50015625)scale(0.1 -0.1)">
       <use xlink:href="#AppleGothic-36"/>
       <use x="67.99998474121094" xlink:href="#AppleGothic-30"/>
       <use x="135.99996948242188" xlink:href="#AppleGothic-30"/>
       <use x="203.9999542236328" xlink:href="#AppleGothic-30"/>
      </g>
     </g>
    </g>
    <g id="ytick_5">
     <g id="line2d_31">
      <path clip-path="url(#p71c577e674)" d="M 72 112.32 
L 518.4 112.32 
" style="fill:none;stroke:#ffffff;stroke-linecap:square;stroke-width:0.5;"/>
     </g>
     <g id="line2d_32">
      <g>
       <use style="fill:#555555;stroke:#555555;stroke-width:0.5;" x="72.0" xlink:href="#m2f6e690ff7" y="112.32"/>
      </g>
     </g>
     <g id="line2d_33">
      <g>
       <use style="fill:#555555;stroke:#555555;stroke-width:0.5;" x="518.4" xlink:href="#ma758dd6147" y="112.32"/>
      </g>
     </g>
     <g id="text_11">
      <!-- 8000 -->
      <g style="fill:#555555;" transform="translate(36.8 115.38015625)scale(0.1 -0.1)">
       <use xlink:href="#AppleGothic-38"/>
       <use x="67.99998474121094" xlink:href="#AppleGothic-30"/>
       <use x="135.99996948242188" xlink:href="#AppleGothic-30"/>
       <use x="203.9999542236328" xlink:href="#AppleGothic-30"/>
      </g>
     </g>
    </g>
    <g id="ytick_6">
     <g id="line2d_34">
      <path clip-path="url(#p71c577e674)" d="M 72 43.2 
L 518.4 43.2 
" style="fill:none;stroke:#ffffff;stroke-linecap:square;stroke-width:0.5;"/>
     </g>
     <g id="line2d_35">
      <g>
       <use style="fill:#555555;stroke:#555555;stroke-width:0.5;" x="72.0" xlink:href="#m2f6e690ff7" y="43.2"/>
      </g>
     </g>
     <g id="line2d_36">
      <g>
       <use style="fill:#555555;stroke:#555555;stroke-width:0.5;" x="518.4" xlink:href="#ma758dd6147" y="43.2"/>
      </g>
     </g>
     <g id="text_12">
      <!-- 10000 -->
      <g style="fill:#555555;" transform="translate(30.0 46.26015625)scale(0.1 -0.1)">
       <use xlink:href="#AppleGothic-31"/>
       <use x="67.99998474121094" xlink:href="#AppleGothic-30"/>
       <use x="135.99996948242188" xlink:href="#AppleGothic-30"/>
       <use x="203.9999542236328" xlink:href="#AppleGothic-30"/>
       <use x="271.99993896484375" xlink:href="#AppleGothic-30"/>
      </g>
     </g>
    </g>
   </g>
   <g id="line2d_37">
    <path clip-path="url(#p71c577e674)" d="M 72 388.8 
L 76.464 388.76544 
L 80.928 388.66176 
L 85.392 388.48896 
L 89.856 388.24704 
L 94.32 387.936 
L 98.784 387.55584 
L 103.248 387.10656 
L 107.712 386.58816 
L 112.176 386.00064 
L 116.64 385.344 
L 121.104 384.61824 
L 125.568 383.82336 
L 130.032 382.95936 
L 134.496 382.02624 
L 138.96 381.024 
L 143.424 379.95264 
L 147.888 378.81216 
L 152.352 377.60256 
L 156.816 376.32384 
L 161.28 374.976 
L 165.744 373.55904 
L 170.208 372.07296 
L 174.672 370.51776 
L 179.136 368.89344 
L 183.6 367.2 
L 188.064 365.43744 
L 192.528 363.60576 
L 196.992 361.70496 
L 201.456 359.73504 
L 205.92 357.696 
L 210.384 355.58784 
L 214.848 353.41056 
L 219.312 351.16416 
L 223.776 348.84864 
L 228.24 346.464 
L 232.704 344.01024 
L 237.168 341.48736 
L 241.632 338.89536 
L 246.096 336.23424 
L 250.56 333.504 
L 255.024 330.70464 
L 259.488 327.83616 
L 263.952 324.89856 
L 268.416 321.89184 
L 272.88 318.816 
L 277.344 315.67104 
L 281.808 312.45696 
L 286.272 309.17376 
L 290.736 305.82144 
L 295.2 302.4 
L 299.664 298.90944 
L 304.128 295.34976 
L 308.592 291.72096 
L 313.056 288.02304 
L 317.52 284.256 
L 321.984 280.41984 
L 326.448 276.51456 
L 330.912 272.54016 
L 335.376 268.49664 
L 339.84 264.384 
L 344.304 260.20224 
L 348.768 255.95136 
L 353.232 251.63136 
L 357.696 247.24224 
L 362.16 242.784 
L 366.624 238.25664 
L 371.088 233.66016 
L 375.552 228.99456 
L 380.016 224.25984 
L 384.48 219.456 
L 388.944 214.58304 
L 393.408 209.64096 
L 397.872 204.62976 
L 402.336 199.54944 
L 406.8 194.4 
L 411.264 189.18144 
L 415.728 183.89376 
L 420.192 178.53696 
L 424.656 173.11104 
L 429.12 167.616 
L 433.584 162.05184 
L 438.048 156.41856 
L 442.512 150.71616 
L 446.976 144.94464 
L 451.44 139.104 
L 455.904 133.19424 
L 460.368 127.21536 
L 464.832 121.16736 
L 469.296 115.05024 
L 473.76 108.864 
L 478.224 102.60864 
L 482.688 96.28416 
L 487.152 89.89056 
L 491.616 83.42784 
L 496.08 76.896 
L 500.544 70.29504 
L 505.008 63.62496 
L 509.472 56.88576 
L 513.936 50.07744 
" style="fill:none;stroke:#e24a33;stroke-linecap:square;"/>
   </g>
   <g id="patch_3">
    <path d="M 72 388.8 
L 72 43.2 
" style="fill:none;stroke:#ffffff;stroke-linecap:square;stroke-linejoin:miter;"/>
   </g>
   <g id="patch_4">
    <path d="M 72 388.8 
L 518.4 388.8 
" style="fill:none;stroke:#ffffff;stroke-linecap:square;stroke-linejoin:miter;"/>
   </g>
   <g id="patch_5">
    <path d="M 518.4 388.8 
L 518.4 43.2 
" style="fill:none;stroke:#ffffff;stroke-linecap:square;stroke-linejoin:miter;"/>
   </g>
   <g id="patch_6">
    <path d="M 72 43.2 
L 518.4 43.2 
" style="fill:none;stroke:#ffffff;stroke-linecap:square;stroke-linejoin:miter;"/>
   </g>
  </g>
 </g>
 <defs>
  <clipPath id="p71c577e674">
   <rect height="345.6" width="446.4" x="72.0" y="43.2"/>
  </clipPath>
 </defs>
</svg>
