<?xml version="1.0" encoding="utf-8" standalone="no"?>
<!DOCTYPE svg PUBLIC "-//W3C//DTD SVG 1.1//EN"
  "http://www.w3.org/Graphics/SVG/1.1/DTD/svg11.dtd">
<!-- Created with matplotlib (http://matplotlib.org/) -->
<svg height="432pt" version="1.1" viewBox="0 0 576 432" width="576pt" xmlns="http://www.w3.org/2000/svg" xmlns:xlink="http://www.w3.org/1999/xlink">
 <defs>
  <style type="text/css">
*{stroke-linecap:butt;stroke-linejoin:round;stroke-miterlimit:100000;}
  </style>
 </defs>
 <g id="figure_1">
  <g id="patch_1">
   <path d="M 0 432 
L 576 432 
L 576 0 
L 0 0 
z
" style="fill:#ffffff;"/>
  </g>
  <g id="axes_1">
   <g id="patch_2">
    <path d="M 295.2 43.2 
L 220.498834 97.473574 
L 249.03214 185.290062 
L 341.36786 185.290062 
L 369.901166 97.473574 
z
" style="fill:#e5e5e5;"/>
   </g>
   <g id="matplotlib.axis_1">
    <g id="xtick_1">
     <g id="line2d_1">
      <path clip-path="url(#pece47af3cc)" d="M 295.2 121.745455 
L 295.2 43.2 
" style="fill:none;stroke:#ffffff;stroke-linecap:square;stroke-width:0.5;"/>
     </g>
     <g id="text_1">
      <!-- 面白さ -->
      <defs>
       <path d="M 85.5 0 
Q 74.078125 -3.078125 57.8125 -3.078125 
Q 14.890625 -3.078125 14.890625 16.890625 
Q 14.890625 27.25 23.78125 33.03125 
Q 32.671875 38.8125 46.1875 38.8125 
Q 57.375 38.8125 68.890625 36.71875 
Q 64.40625 43.0625 57.859375 55.71875 
L 10.203125 55.71875 
L 10.203125 62.109375 
L 54.828125 62.109375 
Q 51.859375 69.4375 49.90625 77.78125 
L 57.515625 78.90625 
Q 59.671875 69.390625 62.703125 62.109375 
L 94.921875 62.109375 
L 94.921875 55.71875 
L 65.71875 55.71875 
Q 74.8125 38.1875 83.5 32.078125 
L 79.9375 26.3125 
Q 68.3125 32.625 46.625 32.625 
Q 36.46875 32.625 29.625 28.5625 
Q 22.796875 24.515625 22.796875 17.1875 
Q 22.796875 3.515625 58.109375 3.515625 
Q 71.53125 3.515625 84.03125 6.59375 
z
" id="Meiryo-3055"/>
       <path d="M 80.609375 0.734375 
L 18.890625 0.734375 
L 18.890625 -4.890625 
L 11.234375 -4.890625 
L 11.234375 65.828125 
L 40.328125 65.828125 
Q 45.0625 77.734375 46.140625 82.03125 
L 54.78125 80.515625 
Q 52.484375 74.515625 48.09375 65.828125 
L 88.484375 65.828125 
L 88.484375 -4.640625 
L 80.609375 -4.640625 
z
M 80.609375 37.359375 
L 80.609375 59.71875 
L 18.890625 59.71875 
L 18.890625 37.359375 
z
M 18.890625 6.78125 
L 80.609375 6.78125 
L 80.609375 31.453125 
L 18.890625 31.453125 
z
" id="Meiryo-767d"/>
       <path d="M 82.421875 -0.828125 
L 16.84375 -0.828125 
L 16.84375 -5.328125 
L 9.421875 -5.328125 
L 9.421875 59.421875 
L 40.96875 59.421875 
Q 43.3125 65.71875 45.0625 72.21875 
L 4.828125 72.21875 
L 4.828125 78.125 
L 94.578125 78.125 
L 94.578125 72.21875 
L 53.515625 72.21875 
Q 50.984375 65.375 48.296875 59.421875 
L 89.796875 59.421875 
L 89.796875 -5.328125 
L 82.421875 -5.328125 
z
M 16.84375 4.890625 
L 32.28125 4.890625 
L 32.28125 53.859375 
L 16.84375 53.859375 
z
M 65.53125 4.890625 
L 82.421875 4.890625 
L 82.421875 53.859375 
L 65.53125 53.859375 
z
M 39.40625 53.859375 
L 39.40625 41.40625 
L 58.34375 41.40625 
L 58.34375 53.859375 
z
M 39.40625 36.078125 
L 39.40625 23.921875 
L 58.34375 23.921875 
L 58.34375 36.078125 
z
M 39.40625 4.890625 
L 58.34375 4.890625 
L 58.34375 18.65625 
L 39.40625 18.65625 
z
" id="Meiryo-9762"/>
      </defs>
      <g style="fill:#555555;" transform="translate(280.2 38.1704545455)scale(0.1 -0.1)">
       <use xlink:href="#Meiryo-9762"/>
       <use x="100.0" xlink:href="#Meiryo-767d"/>
       <use x="200.0" xlink:href="#Meiryo-3055"/>
      </g>
     </g>
    </g>
    <g id="xtick_2">
     <g id="line2d_2">
      <path clip-path="url(#pece47af3cc)" d="M 295.2 121.745455 
L 220.498834 97.473574 
" style="fill:none;stroke:#ffffff;stroke-linecap:square;stroke-width:0.5;"/>
     </g>
     <g id="text_2">
      <!-- わかりやすさ -->
      <defs>
       <path d="M 35.109375 -5.609375 
L 33.296875 0.78125 
Q 54.296875 2.4375 65.421875 10.109375 
Q 76.5625 17.78125 76.5625 38.328125 
Q 76.515625 52.734375 72.09375 60.375 
Q 67.671875 68.015625 60.296875 68.015625 
Q 53.328125 67.96875 45.921875 63.453125 
Q 38.53125 58.9375 33.34375 48.234375 
Q 28.171875 37.546875 28.21875 21.828125 
L 21.296875 21.390625 
Q 19.484375 32.625 19.484375 46.625 
Q 19.484375 64.546875 22.3125 79.296875 
L 30.03125 78.609375 
Q 26.765625 60.9375 26.125 46.09375 
L 26.8125 46.09375 
Q 30.375 59.375 39.921875 66.96875 
Q 49.46875 74.5625 60.0625 74.609375 
Q 71.34375 74.609375 77.875 65.140625 
Q 84.421875 55.671875 84.421875 37.9375 
Q 84.421875 15.09375 71.921875 5.421875 
Q 59.421875 -4.25 35.109375 -5.609375 
" id="Meiryo-308a"/>
       <path d="M 42.625 -2.6875 
L 34.90625 -4.203125 
Q 31.203125 12.25 21.828125 48.6875 
Q 12.5 46.09375 3.90625 43.5 
L 2.59375 50.203125 
L 20.125 55.21875 
Q 16.609375 68.5625 13.8125 77.6875 
L 21.625 79.390625 
L 27.59375 57.234375 
Q 41.359375 60.890625 51.65625 63.09375 
Q 47.171875 69.78125 43.3125 74.8125 
L 49.421875 78.03125 
Q 52.4375 74.46875 59.1875 64.546875 
Q 67.96875 66.109375 72.90625 66.109375 
Q 83.15625 66.109375 89.453125 60.296875 
Q 95.75 54.5 95.75 44.78125 
Q 95.75 34.859375 88.671875 28.65625 
Q 81.59375 22.46875 68.890625 22.46875 
Q 62.015625 22.46875 55.8125 23.6875 
L 56 29.984375 
Q 61.03125 29.109375 66.9375 29.109375 
Q 71.53125 29.109375 75.015625 29.71875 
Q 78.515625 30.328125 81.5625 32.328125 
Q 84.625 34.328125 86.28125 37.453125 
Q 87.9375 40.578125 87.9375 44.484375 
Q 87.9375 51.609375 83.953125 55.703125 
Q 79.984375 59.8125 72.859375 59.859375 
Q 69.4375 59.859375 63.09375 58.734375 
Q 66.265625 53.71875 68.890625 48.578125 
L 61.8125 45.609375 
Q 60.203125 49.5625 55.421875 57.234375 
Q 44.484375 54.828125 29.25 50.734375 
z
" id="Meiryo-3084"/>
       <path d="M 24.3125 31.78125 
Q 18.890625 23.6875 7.625 7.8125 
L 2.484375 12.796875 
Q 8.203125 19.671875 14.640625 29.53125 
Q 21.09375 39.40625 24.3125 46.4375 
L 24.3125 57.71875 
L 6.296875 57.71875 
L 6.296875 64.109375 
L 24.3125 64.109375 
L 24.3125 79.984375 
L 31.59375 79.984375 
L 31.59375 51.5625 
Q 39.40625 59.03125 48.5625 63.421875 
Q 57.71875 67.828125 66.21875 67.828125 
Q 78.953125 67.78125 87.296875 58.90625 
Q 95.65625 50.046875 95.65625 36.96875 
Q 95.609375 20.453125 85.625 10.03125 
Q 75.640625 -0.390625 51.703125 -2.484375 
L 50.09375 4.109375 
Q 87.75 6.59375 87.75 36.765625 
Q 87.75 46.4375 81.765625 53.859375 
Q 75.78125 61.28125 66.84375 61.328125 
Q 57.859375 61.328125 48.40625 56.25 
Q 38.96875 51.171875 31.59375 42.828125 
L 31.640625 -3.609375 
L 24.3125 -3.609375 
z
" id="Meiryo-308f"/>
       <path d="M 34.328125 70.21875 
Q 34.328125 65.828125 33.84375 60.203125 
L 52.59375 60.203125 
Q 59.515625 60.203125 63.453125 55.25 
Q 67.390625 50.296875 67.4375 42.28125 
Q 67.390625 22.5625 63.234375 9.640625 
Q 59.078125 -3.265625 48.6875 -3.265625 
Q 42.625 -3.265625 31.6875 2.484375 
L 34.125 8.6875 
Q 36.671875 7.46875 41.40625 5.90625 
Q 46.140625 4.34375 47.90625 4.34375 
Q 51.8125 4.34375 54.171875 8.421875 
Q 56.546875 12.5 58.125 20.3125 
Q 59.71875 28.125 59.71875 38.96875 
Q 59.71875 48.640625 57.125 51.21875 
Q 54.546875 53.8125 50.203125 53.8125 
L 33.203125 53.8125 
Q 31.25 41.359375 28.953125 32.46875 
Q 26.65625 23.578125 21.703125 13.8125 
Q 16.75 4.046875 9.71875 -3.8125 
L 4.203125 0.203125 
Q 10.59375 7.71875 16.859375 21.109375 
Q 23.140625 34.515625 25.296875 52.78125 
L 6.203125 52.78125 
L 6.203125 59.328125 
L 26.078125 59.328125 
Q 26.421875 62.75 26.421875 79 
L 34.328125 79 
z
M 98.1875 30.71875 
L 90.625 28.71875 
Q 83.9375 53.171875 71.1875 66.796875 
L 76.90625 70.703125 
Q 83.640625 63.8125 89.765625 52.265625 
Q 95.90625 40.71875 98.1875 30.71875 
" id="Meiryo-304b"/>
       <path d="M 56.9375 41.796875 
Q 54.15625 47.3125 45.3125 47.3125 
Q 41.015625 47.265625 37.640625 43.75 
Q 34.28125 40.234375 34.328125 35.890625 
Q 34.328125 31.15625 36.953125 28.265625 
Q 39.59375 25.390625 44.140625 25.390625 
Q 49.90625 25.390625 53.34375 29.140625 
Q 56.78125 32.90625 56.9375 39.015625 
z
M 95.515625 61.625 
L 64.703125 61.625 
L 64.703125 42.828125 
Q 67.921875 37.15625 67.921875 27.296875 
Q 67.875 14.40625 58.375 5.640625 
Q 48.875 -3.125 34.90625 -4 
L 32.90625 2.09375 
Q 44.625 2.9375 52.609375 10.15625 
Q 60.59375 17.390625 60.59375 28.078125 
Q 60.59375 29.890625 60.40625 31.34375 
Q 59.1875 25.6875 54.6875 22.4375 
Q 50.203125 19.1875 43.890625 19.1875 
Q 36.765625 19.1875 31.828125 23.703125 
Q 26.90625 28.21875 26.90625 35.0625 
Q 26.90625 42.921875 32.4375 48.171875 
Q 37.984375 53.421875 46.046875 53.421875 
Q 52.09375 53.421875 56.84375 49.859375 
L 56.84375 61.625 
L 7.90625 61.625 
L 7.90625 68.015625 
L 56.84375 68.015625 
L 56.84375 79.6875 
L 64.703125 79.6875 
L 64.703125 68.015625 
L 95.515625 68.015625 
z
" id="Meiryo-3059"/>
      </defs>
      <g style="fill:#555555;" transform="translate(183.028716992 97.8713862315)scale(0.1 -0.1)">
       <use xlink:href="#Meiryo-308f"/>
       <use x="100.0" xlink:href="#Meiryo-304b"/>
       <use x="200.0" xlink:href="#Meiryo-308a"/>
       <use x="300.0" xlink:href="#Meiryo-3084"/>
       <use x="400.0" xlink:href="#Meiryo-3059"/>
       <use x="500.0" xlink:href="#Meiryo-3055"/>
      </g>
     </g>
    </g>
    <g id="xtick_3">
     <g id="line2d_3">
      <path clip-path="url(#pece47af3cc)" d="M 295.2 121.745455 
L 249.03214 185.290062 
" style="fill:none;stroke:#ffffff;stroke-linecap:square;stroke-width:0.5;"/>
     </g>
     <g id="text_3">
      <!-- 手軽さ -->
      <defs>
       <path d="M 4 11.078125 
L 4 16.890625 
L 21.828125 16.890625 
L 21.828125 24.609375 
L 7.125 24.609375 
L 7.125 60.015625 
L 21.828125 60.015625 
L 21.828125 68.171875 
L 5.515625 68.171875 
L 5.515625 73.78125 
L 21.828125 73.78125 
L 21.828125 82.46875 
L 29.203125 82.46875 
L 29.203125 73.78125 
L 44.96875 73.78125 
L 44.96875 68.171875 
L 29.203125 68.171875 
L 29.203125 60.015625 
L 43.65625 60.015625 
L 43.65625 24.609375 
L 29.203125 24.609375 
L 29.203125 16.890625 
L 44.96875 16.890625 
L 44.96875 11.078125 
L 29.203125 11.078125 
L 29.203125 -6.296875 
L 21.828125 -6.296875 
L 21.828125 11.078125 
z
M 13.765625 44.828125 
L 22.125 44.828125 
L 22.125 55.03125 
L 13.765625 55.03125 
z
M 28.65625 44.828125 
L 36.921875 44.828125 
L 36.921875 55.03125 
L 28.65625 55.03125 
z
M 36.921875 39.84375 
L 28.65625 39.84375 
L 28.65625 29.640625 
L 36.921875 29.640625 
z
M 22.125 39.84375 
L 13.765625 39.84375 
L 13.765625 29.640625 
L 22.125 29.640625 
z
M 71.390625 48.390625 
Q 62.703125 42.234375 47.75 36.765625 
L 45.3125 41.9375 
Q 56.546875 46.046875 66.015625 52.546875 
Q 56.25 60.890625 51.515625 69.53125 
L 57.234375 72.265625 
Q 63.484375 62.890625 71.296875 56.5 
Q 80.609375 64.203125 83.84375 72.859375 
L 48.96875 72.859375 
L 48.96875 78.8125 
L 91.21875 78.8125 
L 93.84375 76.125 
Q 89.3125 63.484375 76.703125 52.59375 
Q 86.859375 46.140625 97.515625 42.390625 
L 93.453125 36.671875 
Q 82.515625 40.4375 71.390625 48.390625 
M 44.78125 -3.953125 
L 44.78125 2 
L 66.703125 2 
L 66.703125 20.65625 
L 49.5625 20.65625 
L 49.5625 26.65625 
L 66.703125 26.65625 
L 66.703125 37.59375 
L 74.265625 37.59375 
L 74.265625 26.65625 
L 91.703125 26.65625 
L 91.703125 20.65625 
L 74.265625 20.65625 
L 74.265625 2 
L 95.453125 2 
L 95.453125 -3.953125 
z
" id="Meiryo-8efd"/>
       <path d="M 4.203125 24.75 
L 4.203125 30.953125 
L 47.5625 30.953125 
L 47.5625 48.484375 
L 8.15625 48.484375 
L 8.15625 54.546875 
L 47.5625 54.546875 
L 47.5625 70.21875 
Q 27.046875 68.609375 11.328125 68.609375 
L 10.546875 74.703125 
Q 60.5 75.59375 83.984375 81.25 
L 87.453125 75.4375 
Q 76.171875 72.796875 55.171875 70.84375 
L 55.171875 54.546875 
L 91.5 54.546875 
L 91.5 48.484375 
L 55.171875 48.484375 
L 55.171875 30.953125 
L 96.09375 30.953125 
L 96.09375 24.75 
L 55.171875 24.75 
L 55.171875 2.203125 
Q 55.171875 -1.375 52.359375 -3.609375 
Q 49.5625 -5.859375 45.703125 -5.859375 
L 31.109375 -5.859375 
L 30.328125 0.984375 
L 43.0625 0.984375 
Q 44.671875 0.984375 46.109375 2.125 
Q 47.5625 3.265625 47.5625 4.734375 
L 47.5625 24.75 
z
" id="Meiryo-624b"/>
      </defs>
      <g style="fill:#555555;" transform="translate(229.415354202 194.469522859)scale(0.1 -0.1)">
       <use xlink:href="#Meiryo-624b"/>
       <use x="100.0" xlink:href="#Meiryo-8efd"/>
       <use x="200.0" xlink:href="#Meiryo-3055"/>
      </g>
     </g>
    </g>
    <g id="xtick_4">
     <g id="line2d_4">
      <path clip-path="url(#pece47af3cc)" d="M 295.2 121.745455 
L 341.36786 185.290062 
" style="fill:none;stroke:#ffffff;stroke-linecap:square;stroke-width:0.5;"/>
     </g>
     <g id="text_4">
      <!-- フォ-マルさ -->
      <defs>
       <path d="M 58.203125 37.546875 
Q 50.296875 25.4375 37.5 15.015625 
Q 24.703125 4.59375 11.28125 -1.03125 
L 7.90625 4.59375 
Q 19.140625 9.46875 32.15625 19.96875 
Q 45.171875 30.46875 52.6875 43.21875 
L 14.109375 43.21875 
L 14.109375 49.8125 
L 58.015625 49.8125 
L 58.015625 64.40625 
L 66.21875 64.40625 
L 66.21875 49.8125 
L 83.890625 49.8125 
L 83.890625 43.21875 
L 66.21875 43.21875 
L 66.21875 -4.78125 
L 58.203125 -4.78125 
z
" id="Meiryo-30a9"/>
       <path d="M 99.90625 33.796875 
Q 93.65625 20.453125 80.59375 10.5625 
Q 67.53125 0.6875 54.78125 -2.828125 
L 51.21875 0.484375 
L 51.21875 76.515625 
L 59.421875 76.515625 
L 59.421875 7.5625 
Q 67.484375 9.96875 76.921875 17.484375 
Q 86.375 25 93.796875 38.09375 
z
M 30.421875 51.171875 
Q 30.421875 39.65625 29.390625 32.390625 
Q 28.375 25.140625 24.734375 18.1875 
Q 21.09375 11.234375 15.578125 5.46875 
Q 10.0625 -0.296875 3.71875 -3.609375 
L 0.09375 2.59375 
Q 6.203125 6.34375 11.375 12.5 
Q 16.546875 18.65625 19.328125 27.046875 
Q 22.125 35.453125 22.125 52.78125 
L 22.125 73.390625 
L 30.421875 73.390625 
z
" id="Meiryo-30eb"/>
       <path d="M 89.5 73.296875 
Q 89.5 55.5625 83.4375 38.078125 
Q 77.390625 20.609375 60.109375 9.46875 
Q 42.828125 -1.65625 16.5 -4.296875 
L 14.5 3.078125 
Q 40.4375 5.515625 59.515625 19.015625 
Q 78.609375 32.515625 80.71875 66.109375 
L 12.796875 66.109375 
L 12.796875 73.296875 
z
" id="Meiryo-30d5"/>
       <path d="M 37.203125 28.078125 
L 6.734375 28.078125 
L 6.734375 36.28125 
L 37.203125 36.28125 
z
" id="Meiryo-2d"/>
       <path d="M 72.90625 -0.09375 
L 65.1875 -4.5 
Q 47.796875 19.09375 19.09375 37.59375 
L 24.515625 42.78125 
Q 37.453125 35.015625 48 25.828125 
Q 73.78125 44.734375 85.59375 64.59375 
L 6 64.59375 
L 6 71.484375 
L 93.5 71.484375 
L 97.21875 68.109375 
Q 82.859375 41.796875 53.46875 20.84375 
Q 61.03125 13.625 72.90625 -0.09375 
" id="Meiryo-30de"/>
      </defs>
      <g style="fill:#555555;" transform="translate(318.786989548 194.469522859)scale(0.1 -0.1)">
       <use xlink:href="#Meiryo-30d5"/>
       <use x="100.0" xlink:href="#Meiryo-30a9"/>
       <use x="200.0" xlink:href="#Meiryo-2d"/>
       <use x="243.9453125" xlink:href="#Meiryo-30de"/>
       <use x="343.9453125" xlink:href="#Meiryo-30eb"/>
       <use x="443.9453125" xlink:href="#Meiryo-3055"/>
      </g>
     </g>
    </g>
    <g id="xtick_5">
     <g id="line2d_5">
      <path clip-path="url(#pece47af3cc)" d="M 295.2 121.745455 
L 369.901166 97.473574 
" style="fill:none;stroke:#ffffff;stroke-linecap:square;stroke-width:0.5;"/>
     </g>
     <g id="text_5">
      <!-- 学習効果? -->
      <defs>
       <path d="M 82.5625 40.28125 
L 73 40.28125 
L 72.171875 46.296875 
L 79.5 46.296875 
Q 83.203125 46.296875 83.203125 49.3125 
L 83.203125 73.53125 
L 50.984375 73.53125 
L 50.984375 79.109375 
L 90.234375 79.109375 
L 90.234375 46.78125 
Q 90.234375 43.75 88.015625 42.015625 
Q 85.796875 40.28125 82.5625 40.28125 
M 37.3125 40.28125 
L 27.6875 40.28125 
L 26.90625 46.296875 
L 34.234375 46.296875 
Q 37.890625 46.296875 37.890625 49.3125 
L 37.890625 73.53125 
L 7.8125 73.53125 
L 7.8125 79.109375 
L 44.921875 79.109375 
L 44.921875 46.78125 
Q 44.921875 43.75 42.71875 42.015625 
Q 40.53125 40.28125 37.3125 40.28125 
M 66.0625 59.625 
L 56.34375 68.40625 
L 61.03125 71.96875 
L 70.75 63.71875 
z
M 20.75 59.625 
L 11.078125 68.40625 
L 15.765625 71.96875 
L 25.34375 63.71875 
z
M 52.984375 44.96875 
L 51.265625 50.6875 
Q 61.96875 53.46875 78.171875 60.359375 
L 79.203125 55.171875 
Q 76.5625 53.8125 67.484375 50.265625 
Q 58.40625 46.734375 52.984375 44.96875 
M 7.71875 44.96875 
L 5.953125 50.6875 
Q 16.75 53.515625 32.90625 60.359375 
L 33.9375 55.171875 
Q 31.296875 53.8125 22.21875 50.265625 
Q 13.140625 46.734375 7.71875 44.96875 
M 79.109375 -2.875 
L 20.359375 -2.875 
L 20.359375 -5.765625 
L 12.890625 -5.765625 
L 12.890625 34.328125 
L 43.65625 34.328125 
Q 46.296875 39.203125 47.90625 42.921875 
L 55.421875 41.40625 
Q 53.5625 37.984375 50.984375 34.328125 
L 86.765625 34.328125 
L 86.765625 -5.765625 
L 79.109375 -5.765625 
z
M 79.109375 18.953125 
L 79.109375 28.765625 
L 20.359375 28.765625 
L 20.359375 18.953125 
z
M 20.359375 3.03125 
L 79.109375 3.03125 
L 79.109375 13.328125 
L 20.359375 13.328125 
z
" id="Meiryo-7fd2"/>
       <path d="M 66.546875 -4.34375 
L 65.765625 2.390625 
L 74.65625 2.390625 
Q 81.78125 2.390625 83.484375 8.8125 
Q 85.203125 15.234375 85.203125 36.859375 
L 85.15625 57.5625 
L 73.6875 57.5625 
Q 73.4375 36.234375 65.578125 19.9375 
Q 57.71875 3.65625 44.96875 -6.0625 
L 39.9375 -1.5625 
Q 65.578125 19.875 66.0625 57.5625 
L 55.859375 57.5625 
L 55.859375 63.625 
L 66.0625 63.625 
L 66.0625 82.953125 
L 73.734375 82.953125 
L 73.734375 63.625 
L 92.78125 63.625 
L 92.78125 57.5625 
L 92.875 43.015625 
Q 92.875 31.453125 92.3125 21.296875 
Q 91.75 11.140625 90.625 5.5625 
Q 90.046875 2.6875 88.8125 0.96875 
Q 87.59375 -0.734375 85.46875 -2.140625 
Q 83.34375 -3.5625 81.0625 -4.046875 
Q 79.5 -4.34375 66.546875 -4.34375 
M 4.890625 65.234375 
L 4.890625 71.046875 
L 26.265625 71.046875 
L 26.265625 82.46875 
L 33.734375 82.46875 
L 33.734375 71.046875 
L 53.8125 71.046875 
L 53.8125 65.234375 
z
M 50.875 40.96875 
Q 47.859375 43.40625 42.625 49.09375 
Q 37.40625 54.78125 34.765625 58.59375 
L 40.578125 61.578125 
Q 49.078125 50.921875 56.0625 45.65625 
z
M 6.6875 37.5 
L 1.90625 41.453125 
Q 6.109375 45.015625 10.90625 50.734375 
Q 15.71875 56.453125 18.015625 60.9375 
L 24.65625 58.5 
Q 21.875 53.46875 16.59375 47.34375 
Q 11.328125 41.21875 6.6875 37.5 
M 31.109375 17.71875 
Q 19.78125 2.640625 6.6875 -6.0625 
L 2.4375 -1.65625 
Q 13.578125 6.390625 26.125 23.046875 
Q 17.28125 32.421875 13.96875 35.546875 
L 19.234375 39.84375 
Q 22.359375 37.15625 30.171875 29.15625 
Q 34.46875 36.328125 36.8125 43.3125 
L 43.84375 41.359375 
Q 40.96875 32.46875 35.359375 23.78125 
Q 43.0625 15.671875 45.75 12.3125 
L 39.9375 7.71875 
Q 37.25 11.078125 31.109375 17.71875 
" id="Meiryo-52b9"/>
       <path d="M 27.984375 30.953125 
L 27.984375 19.53125 
L 19.828125 19.53125 
L 19.828125 34.375 
Q 32.515625 41.40625 35.734375 46 
Q 38.96875 50.59375 38.96875 55.609375 
Q 38.96875 61.234375 35.28125 64.28125 
Q 31.59375 67.328125 25 67.328125 
Q 16.796875 67.328125 7.625 62.25 
L 7.078125 62.25 
L 7.078125 71.578125 
Q 16.703125 75.09375 25.6875 75.09375 
Q 36.078125 75.09375 42.203125 69.984375 
Q 48.34375 64.890625 48.34375 56.34375 
Q 48.34375 49.75 44.703125 44.1875 
Q 41.0625 38.625 27.984375 30.953125 
M 29.046875 0 
L 19.09375 0 
L 19.09375 10.296875 
L 29.046875 10.296875 
z
" id="Meiryo-3f"/>
       <path d="M 22.65625 67.4375 
Q 18.359375 75.484375 16.015625 79.5 
L 23.09375 81.546875 
Q 25.921875 76.65625 30.90625 67.4375 
L 48.296875 67.4375 
Q 46.625 71.390625 41.453125 81.546875 
L 48.140625 83.453125 
Q 53.03125 74.65625 55.90625 67.4375 
L 69.34375 67.4375 
Q 75.140625 76.8125 77.34375 82.5625 
L 85.296875 80.515625 
Q 82.125 74.859375 77.203125 67.4375 
L 93.265625 67.4375 
L 93.265625 51.65625 
L 86.078125 51.65625 
L 86.078125 61.421875 
L 13.375 61.421875 
L 13.375 51.65625 
L 6.453125 51.65625 
L 6.453125 67.4375 
z
M 45.40625 -5.90625 
L 30.90625 -5.90625 
L 29.890625 0.921875 
L 42.234375 0.921875 
Q 44.09375 0.921875 45.359375 2 
Q 46.625 3.078125 46.625 4.546875 
L 46.625 22.46875 
L 4.828125 22.46875 
L 4.828125 28.46875 
L 46.625 28.46875 
L 46.625 38.09375 
L 51.125 38.09375 
Q 58.296875 41.15625 67.71875 47.359375 
L 20.609375 47.359375 
L 20.609375 53.171875 
L 77.4375 53.171875 
L 81 49.421875 
Q 71.140625 40.921875 54.390625 33.5 
L 54.390625 28.46875 
L 95.171875 28.46875 
L 95.171875 22.46875 
L 54.390625 22.46875 
L 54.390625 1.859375 
Q 54.390625 -1.515625 51.828125 -3.703125 
Q 49.265625 -5.90625 45.40625 -5.90625 
" id="Meiryo-5b66"/>
       <path d="M 3.515625 -3.078125 
L 0.921875 2.546875 
Q 9.375 4.984375 20.40625 10.859375 
Q 31.453125 16.75 40.484375 24.65625 
L 4.203125 24.65625 
L 4.203125 30.765625 
L 45.125 30.765625 
L 45.125 39.546875 
L 12.0625 39.546875 
L 12.0625 79.046875 
L 87.015625 79.046875 
L 87.015625 39.546875 
L 52.78125 39.546875 
L 52.78125 30.765625 
L 93.5625 30.765625 
L 93.5625 24.65625 
L 57.03125 24.65625 
Q 75.4375 9.03125 98.34375 3.21875 
L 94.875 -3.171875 
Q 83.6875 -0.09375 71.890625 6.5 
Q 60.109375 13.09375 52.78125 20.3125 
L 52.78125 -6.34375 
L 45.125 -6.34375 
L 45.125 19.96875 
Q 39.015625 14.40625 33.25 10.59375 
Q 27.484375 6.78125 18.8125 2.734375 
Q 10.15625 -1.3125 3.515625 -3.078125 
M 79.390625 73.34375 
L 52.78125 73.34375 
L 52.78125 61.765625 
L 79.390625 61.765625 
z
M 45.125 73.34375 
L 19.53125 73.34375 
L 19.53125 61.765625 
L 45.125 61.765625 
z
M 79.390625 56.296875 
L 52.78125 56.296875 
L 52.78125 45.265625 
L 79.390625 45.265625 
z
M 45.125 56.296875 
L 19.53125 56.296875 
L 19.53125 45.265625 
L 45.125 45.265625 
z
" id="Meiryo-679c"/>
      </defs>
      <g style="fill:#555555;" transform="translate(354.717376758 97.8713862315)scale(0.1 -0.1)">
       <use xlink:href="#Meiryo-5b66"/>
       <use x="100.0" xlink:href="#Meiryo-7fd2"/>
       <use x="200.0" xlink:href="#Meiryo-52b9"/>
       <use x="300.0" xlink:href="#Meiryo-679c"/>
       <use x="400.0" xlink:href="#Meiryo-3f"/>
      </g>
     </g>
    </g>
   </g>
   <g id="matplotlib.axis_2">
    <g id="ytick_1">
     <g id="line2d_6">
      <path clip-path="url(#pece47af3cc)" d="M 303.927273 121.745455 
L 303.794686 120.22998 
L 303.400954 118.760551 
L 302.75804 117.381818 
L 301.885479 116.135672 
L 300.809783 115.059976 
L 299.563636 114.187415 
L 298.184903 113.544501 
L 296.715475 113.150769 
L 295.2 113.018182 
L 293.684525 113.150769 
L 292.215097 113.544501 
L 290.836364 114.187415 
L 289.590217 115.059976 
L 288.514521 116.135672 
L 287.64196 117.381818 
L 286.999046 118.760551 
L 286.605314 120.22998 
L 286.472727 121.745455 
L 286.605314 123.26093 
L 286.999046 124.730358 
L 287.64196 126.109091 
L 288.514521 127.355237 
L 289.590217 128.430933 
L 290.836364 129.303494 
L 292.215097 129.946408 
L 293.684525 130.34014 
L 295.2 130.472727 
L 296.715475 130.34014 
L 298.184903 129.946408 
L 299.563636 129.303494 
L 300.809783 128.430933 
L 301.885479 127.355237 
L 302.75804 126.109091 
L 303.400954 124.730358 
L 303.794686 123.26093 
L 303.927273 121.745455 
L 303.927273 121.745455 
" style="fill:none;stroke:#ffffff;stroke-linecap:square;stroke-width:0.5;"/>
     </g>
     <g id="text_6">
      <!-- 2 -->
      <defs>
       <path d="M 56.34375 0 
L 7.125 0 
L 7.125 9.515625 
Q 14.9375 16.265625 24.671875 25.1875 
Q 34.421875 34.125 39.15625 40.90625 
Q 43.890625 47.703125 43.890625 54.5 
Q 43.890625 60.5 39.90625 63.859375 
Q 35.9375 67.234375 29.109375 67.234375 
Q 19.09375 67.234375 9.421875 60.890625 
L 8.9375 60.890625 
L 8.9375 70.40625 
Q 18.796875 75.09375 29.34375 75.09375 
Q 40.484375 75.09375 46.875 69.703125 
Q 53.265625 64.3125 53.265625 54.984375 
Q 53.265625 50 51.625 45.453125 
Q 50 40.921875 46.53125 36.625 
Q 43.0625 32.328125 38.234375 27.484375 
Q 33.40625 22.65625 16.015625 7.859375 
L 56.34375 7.859375 
z
" id="Meiryo-32"/>
      </defs>
      <g style="fill:#555555;" transform="translate(303.262948647 116.369734363)scale(0.1 -0.1)">
       <use xlink:href="#Meiryo-32"/>
      </g>
     </g>
    </g>
    <g id="ytick_2">
     <g id="line2d_7">
      <path clip-path="url(#pece47af3cc)" d="M 312.654545 121.745455 
L 312.558928 119.920958 
L 312.273122 118.11645 
L 311.800259 116.351703 
L 311.145521 114.646051 
L 310.31608 113.018182 
L 309.321024 111.48593 
L 308.171255 110.066084 
L 306.879371 108.774199 
L 305.459524 107.624431 
L 303.927273 106.629375 
L 302.299403 105.799934 
L 300.593751 105.145195 
L 298.829004 104.672333 
L 297.024497 104.386527 
L 295.2 104.290909 
L 293.375503 104.386527 
L 291.570996 104.672333 
L 289.806249 105.145195 
L 288.100597 105.799934 
L 286.472727 106.629375 
L 284.940476 107.624431 
L 283.520629 108.774199 
L 282.228745 110.066084 
L 281.078976 111.48593 
L 280.08392 113.018182 
L 279.254479 114.646051 
L 278.599741 116.351703 
L 278.126878 118.11645 
L 277.841072 119.920958 
L 277.745455 121.745455 
L 277.841072 123.569951 
L 278.126878 125.374459 
L 278.599741 127.139206 
L 279.254479 128.844858 
L 280.08392 130.472727 
L 281.078976 132.004979 
L 282.228745 133.424825 
L 283.520629 134.71671 
L 284.940476 135.866478 
L 286.472727 136.861534 
L 288.100597 137.690975 
L 289.806249 138.345714 
L 291.570996 138.818576 
L 293.375503 139.104382 
L 295.2 139.2 
L 297.024497 139.104382 
L 298.829004 138.818576 
L 300.593751 138.345714 
L 302.299403 137.690975 
L 303.927273 136.861534 
L 305.459524 135.866478 
L 306.879371 134.71671 
L 308.171255 133.424825 
L 309.321024 132.004979 
L 310.31608 130.472727 
L 311.145521 128.844858 
L 311.800259 127.139206 
L 312.273122 125.374459 
L 312.558928 123.569951 
L 312.654545 121.745455 
L 312.654545 121.745455 
" style="fill:none;stroke:#ffffff;stroke-linecap:square;stroke-width:0.5;"/>
     </g>
     <g id="text_7">
      <!-- 4 -->
      <defs>
       <path d="M 58.015625 21.1875 
L 47.21875 21.1875 
L 47.21875 0 
L 38.421875 0 
L 38.421875 21.1875 
L 3.03125 21.1875 
L 3.03125 31.453125 
L 38.8125 73.578125 
L 47.21875 73.578125 
L 47.21875 28.421875 
L 58.015625 28.421875 
z
M 38.421875 28.421875 
L 38.421875 62.84375 
L 9.1875 28.421875 
z
" id="Meiryo-34"/>
      </defs>
      <g style="fill:#555555;" transform="translate(311.325897295 113.029951681)scale(0.1 -0.1)">
       <use xlink:href="#Meiryo-34"/>
      </g>
     </g>
    </g>
    <g id="ytick_3">
     <g id="line2d_8">
      <path clip-path="url(#pece47af3cc)" d="M 321.381818 121.745455 
L 321.238391 119.008709 
L 320.809683 116.301948 
L 320.100389 113.654828 
L 319.118281 111.09635 
L 317.87412 108.654545 
L 316.381536 106.356168 
L 314.656883 104.226399 
L 312.719056 102.288572 
L 310.589287 100.563919 
L 308.290909 99.071335 
L 305.849105 97.827173 
L 303.290627 96.845066 
L 300.643506 96.135772 
L 297.936745 95.707063 
L 295.2 95.563636 
L 292.463255 95.707063 
L 289.756494 96.135772 
L 287.109373 96.845066 
L 284.550895 97.827173 
L 282.109091 99.071335 
L 279.810713 100.563919 
L 277.680944 102.288572 
L 275.743117 104.226399 
L 274.018464 106.356168 
L 272.52588 108.654545 
L 271.281719 111.09635 
L 270.299611 113.654828 
L 269.590317 116.301948 
L 269.161609 119.008709 
L 269.018182 121.745455 
L 269.161609 124.4822 
L 269.590317 127.188961 
L 270.299611 129.836081 
L 271.281719 132.394559 
L 272.52588 134.836364 
L 274.018464 137.134741 
L 275.743117 139.26451 
L 277.680944 141.202337 
L 279.810713 142.92699 
L 282.109091 144.419574 
L 284.550895 145.663736 
L 287.109373 146.645843 
L 289.756494 147.355137 
L 292.463255 147.783846 
L 295.2 147.927273 
L 297.936745 147.783846 
L 300.643506 147.355137 
L 303.290627 146.645843 
L 305.849105 145.663736 
L 308.290909 144.419574 
L 310.589287 142.92699 
L 312.719056 141.202337 
L 314.656883 139.26451 
L 316.381536 137.134741 
L 317.87412 134.836364 
L 319.118281 132.394559 
L 320.100389 129.836081 
L 320.809683 127.188961 
L 321.238391 124.4822 
L 321.381818 121.745455 
L 321.381818 121.745455 
" style="fill:none;stroke:#ffffff;stroke-linecap:square;stroke-width:0.5;"/>
     </g>
     <g id="text_8">
      <!-- 6 -->
      <defs>
       <path d="M 50.34375 73.78125 
L 50.34375 65.140625 
L 49.75 65.140625 
Q 45.65625 67.140625 40.1875 67.140625 
Q 29.390625 67.140625 22.9375 60.28125 
Q 16.5 53.421875 15.4375 41.21875 
Q 24.65625 46.734375 33.40625 46.734375 
Q 44.09375 46.734375 50.75 40.796875 
Q 57.421875 34.859375 57.421875 23.78125 
Q 57.421875 12.75 50.1875 5.609375 
Q 42.96875 -1.515625 32.234375 -1.515625 
Q 19.78125 -1.515625 12.859375 7.15625 
Q 5.953125 15.828125 5.953125 32.28125 
Q 5.953125 52.546875 15.203125 63.75 
Q 24.46875 74.953125 41.65625 74.953125 
Q 46.828125 74.953125 50.34375 73.78125 
M 15.4375 34.96875 
Q 15.234375 30.953125 15.234375 30.125 
Q 15.234375 18.5 19.765625 12.171875 
Q 24.3125 5.859375 32.328125 5.859375 
Q 39.703125 5.859375 43.890625 10.46875 
Q 48.09375 15.09375 48.09375 23.390625 
Q 48.09375 30.28125 44.140625 34.765625 
Q 40.1875 39.265625 31 39.265625 
Q 23.046875 39.265625 15.4375 34.96875 
" id="Meiryo-36"/>
      </defs>
      <g style="fill:#555555;" transform="translate(319.388845942 109.690168998)scale(0.1 -0.1)">
       <use xlink:href="#Meiryo-36"/>
      </g>
     </g>
    </g>
    <g id="ytick_4">
     <g id="line2d_9">
      <path clip-path="url(#pece47af3cc)" d="M 330.109091 121.745455 
L 330.087825 120.527145 
L 330.024054 119.310319 
L 329.769358 116.887048 
L 329.346244 114.487446 
L 328.756772 112.123205 
L 328.003815 109.805842 
L 327.091041 107.546648 
L 326.022898 105.356629 
L 324.804588 103.246455 
L 323.442048 101.226406 
L 321.941915 99.306323 
L 320.311498 97.495562 
L 318.558741 95.802944 
L 316.692182 94.236716 
L 314.720916 92.804507 
L 312.654545 91.513295 
L 310.503138 90.369371 
L 308.277176 89.378309 
L 305.987502 88.544936 
L 303.645273 87.873313 
L 301.2619 87.366711 
L 298.848994 87.027599 
L 296.41831 86.857629 
L 293.98169 86.857629 
L 291.551006 87.027599 
L 289.1381 87.366711 
L 286.754727 87.873313 
L 284.412498 88.544936 
L 282.122824 89.378309 
L 279.896862 90.369371 
L 277.745455 91.513295 
L 275.679084 92.804507 
L 273.707818 94.236716 
L 271.841259 95.802944 
L 270.088502 97.495562 
L 268.458085 99.306323 
L 266.957952 101.226406 
L 265.595412 103.246455 
L 264.377102 105.356629 
L 263.308959 107.546648 
L 262.396185 109.805842 
L 261.643228 112.123205 
L 261.053756 114.487446 
L 260.630642 116.887048 
L 260.375946 119.310319 
L 260.290909 121.745455 
L 260.375946 124.18059 
L 260.630642 126.603861 
L 261.053756 129.003463 
L 261.643228 131.367704 
L 262.396185 133.685067 
L 263.308959 135.944261 
L 264.377102 138.13428 
L 265.595412 140.244454 
L 266.957952 142.264503 
L 268.458085 144.184586 
L 270.088502 145.995347 
L 271.841259 147.687965 
L 273.707818 149.254194 
L 275.679084 150.686403 
L 277.745455 151.977614 
L 279.896862 153.121538 
L 282.122824 154.1126 
L 284.412498 154.945973 
L 286.754727 155.617596 
L 289.1381 156.124198 
L 291.551006 156.46331 
L 293.98169 156.63328 
L 296.41831 156.63328 
L 298.848994 156.46331 
L 301.2619 156.124198 
L 303.645273 155.617596 
L 305.987502 154.945973 
L 308.277176 154.1126 
L 310.503138 153.121538 
L 312.654545 151.977614 
L 314.720916 150.686403 
L 316.692182 149.254194 
L 318.558741 147.687965 
L 320.311498 145.995347 
L 321.941915 144.184586 
L 323.442048 142.264503 
L 324.804588 140.244454 
L 326.022898 138.13428 
L 327.091041 135.944261 
L 328.003815 133.685067 
L 328.756772 131.367704 
L 329.346244 129.003463 
L 329.769358 126.603861 
L 330.024054 124.18059 
L 330.109091 121.745455 
L 330.109091 121.745455 
" style="fill:none;stroke:#ffffff;stroke-linecap:square;stroke-width:0.5;"/>
     </g>
     <g id="text_9">
      <!-- 8 -->
      <defs>
       <path d="M 18.84375 39.015625 
L 18.84375 39.59375 
Q 7.171875 45.953125 7.171875 56.0625 
Q 7.171875 64.40625 13.90625 69.828125 
Q 20.65625 75.25 31.0625 75.25 
Q 41.84375 75.25 48.390625 70.109375 
Q 54.9375 64.984375 54.9375 56.6875 
Q 54.9375 51.3125 51.6875 46.59375 
Q 48.4375 41.890625 42.671875 39.265625 
L 42.671875 38.625 
Q 56.890625 32.515625 56.890625 20.359375 
Q 56.890625 10.890625 49.515625 4.609375 
Q 42.140625 -1.65625 31.0625 -1.65625 
Q 19.28125 -1.65625 12.25 4.375 
Q 5.21875 10.40625 5.21875 20.171875 
Q 5.21875 32.90625 18.84375 39.015625 
M 45.90625 56.640625 
Q 45.90625 61.921875 41.84375 65.28125 
Q 37.796875 68.65625 31 68.65625 
Q 24.5625 68.65625 20.484375 65.5 
Q 16.40625 62.359375 16.40625 57.234375 
Q 16.40625 51.5625 21.484375 47.890625 
Q 26.5625 44.234375 36.921875 41.0625 
Q 45.90625 46.875 45.90625 56.640625 
M 24.8125 37.25 
Q 14.5 31.453125 14.5 20.84375 
Q 14.5 13.765625 19.1875 9.390625 
Q 23.875 5.03125 31.15625 5.03125 
Q 38.625 5.03125 43.015625 8.859375 
Q 47.40625 12.703125 47.40625 19.390625 
Q 47.40625 23.921875 45.40625 26.671875 
Q 43.40625 29.4375 39.578125 31.34375 
Q 35.75 33.25 24.8125 37.25 
" id="Meiryo-38"/>
      </defs>
      <g style="fill:#555555;" transform="translate(327.451794589 106.350386316)scale(0.1 -0.1)">
       <use xlink:href="#Meiryo-38"/>
      </g>
     </g>
    </g>
    <g id="ytick_5">
     <g id="line2d_10">
      <path clip-path="url(#pece47af3cc)" d="M 338.836364 121.745455 
L 338.809782 120.222567 
L 338.730068 118.701536 
L 338.411698 115.672447 
L 337.882804 112.672944 
L 337.145965 109.717643 
L 336.204769 106.820939 
L 335.063802 103.996946 
L 333.728622 101.259423 
L 332.205735 98.621705 
L 330.50256 96.096644 
L 328.627394 93.696541 
L 326.589373 91.433089 
L 324.398426 89.317317 
L 322.065228 87.359531 
L 319.601145 85.56927 
L 317.018182 83.955255 
L 314.328923 82.525351 
L 311.54647 81.286523 
L 308.684378 80.244807 
L 305.756592 79.405277 
L 302.777375 78.772025 
L 299.761242 78.348135 
L 296.722887 78.135673 
L 293.677113 78.135673 
L 290.638758 78.348135 
L 287.622625 78.772025 
L 284.643408 79.405277 
L 281.715622 80.244807 
L 278.85353 81.286523 
L 276.071077 82.525351 
L 273.381818 83.955255 
L 270.798855 85.56927 
L 268.334772 87.359531 
L 266.001574 89.317317 
L 263.810627 91.433089 
L 261.772606 93.696541 
L 259.89744 96.096644 
L 258.194265 98.621705 
L 256.671378 101.259423 
L 255.336198 103.996946 
L 254.195231 106.820939 
L 253.254035 109.717643 
L 252.517196 112.672944 
L 251.988302 115.672447 
L 251.669932 118.701536 
L 251.563636 121.745455 
L 251.669932 124.789373 
L 251.988302 127.818463 
L 252.517196 130.817965 
L 253.254035 133.773266 
L 254.195231 136.66997 
L 255.336198 139.493963 
L 256.671378 142.231486 
L 258.194265 144.869204 
L 259.89744 147.394266 
L 261.772606 149.794368 
L 263.810627 152.05782 
L 266.001574 154.173592 
L 268.334772 156.131378 
L 270.798855 157.92164 
L 273.381818 159.535654 
L 276.071077 160.965558 
L 278.85353 162.204386 
L 281.715622 163.246103 
L 284.643408 164.085632 
L 287.622625 164.718884 
L 290.638758 165.142774 
L 293.677113 165.355236 
L 296.722887 165.355236 
L 299.761242 165.142774 
L 302.777375 164.718884 
L 305.756592 164.085632 
L 308.684378 163.246103 
L 311.54647 162.204386 
L 314.328923 160.965558 
L 317.018182 159.535654 
L 319.601145 157.92164 
L 322.065228 156.131378 
L 324.398426 154.173592 
L 326.589373 152.05782 
L 328.627394 149.794368 
L 330.50256 147.394266 
L 332.205735 144.869204 
L 333.728622 142.231486 
L 335.063802 139.493963 
L 336.204769 136.66997 
L 337.145965 133.773266 
L 337.882804 130.817965 
L 338.411698 127.818463 
L 338.730068 124.789373 
L 338.836364 121.745455 
L 338.836364 121.745455 
" style="fill:none;stroke:#ffffff;stroke-linecap:square;stroke-width:0.5;"/>
     </g>
     <g id="text_10">
      <!-- 10 -->
      <defs>
       <path d="M 52.15625 0 
L 12.984375 0 
L 12.984375 6.734375 
L 28.328125 6.734375 
L 28.328125 57.328125 
L 12.984375 57.328125 
L 12.984375 63.28125 
Q 21.96875 63.328125 25.828125 65.84375 
Q 29.6875 68.359375 30.171875 73.828125 
L 37.109375 73.828125 
L 37.109375 6.734375 
L 52.15625 6.734375 
z
" id="Meiryo-31"/>
       <path d="M 31.109375 -1.515625 
Q 18.109375 -1.515625 12 7.765625 
Q 5.90625 17.046875 5.90625 36.71875 
Q 5.90625 56.390625 12.03125 65.71875 
Q 18.171875 75.046875 31.109375 75.046875 
Q 43.953125 75.046875 50.09375 65.6875 
Q 56.25 56.34375 56.25 36.8125 
Q 56.25 17.09375 50.140625 7.78125 
Q 44.046875 -1.515625 31.109375 -1.515625 
M 31.109375 67.578125 
Q 22.75 67.578125 18.984375 60.953125 
Q 15.234375 54.34375 15.234375 36.71875 
Q 15.234375 19.234375 18.984375 12.59375 
Q 22.75 5.953125 31.109375 5.953125 
Q 39.453125 5.953125 43.1875 12.59375 
Q 46.921875 19.234375 46.921875 36.8125 
Q 46.921875 54.046875 43.203125 60.8125 
Q 39.5 67.578125 31.109375 67.578125 
" id="Meiryo-30"/>
      </defs>
      <g style="fill:#555555;" transform="translate(335.514743237 103.010603633)scale(0.1 -0.1)">
       <use xlink:href="#Meiryo-31"/>
       <use x="62.109375" xlink:href="#Meiryo-30"/>
      </g>
     </g>
    </g>
    <g id="ytick_6">
     <g id="line2d_11">
      <path clip-path="url(#pece47af3cc)" d="M 347.563636 121.745455 
L 347.531738 119.91799 
L 347.436081 118.092752 
L 347.054037 114.457845 
L 346.419365 110.858442 
L 345.535158 107.31208 
L 344.405723 103.836036 
L 343.036562 100.447245 
L 341.434347 97.162216 
L 339.606882 93.996955 
L 337.563072 90.966881 
L 335.312873 88.086758 
L 332.867248 85.370616 
L 330.238112 82.831689 
L 327.438274 80.482346 
L 324.481374 78.334033 
L 321.381818 76.397215 
L 318.154707 74.68133 
L 314.815763 73.194736 
L 311.381254 71.944677 
L 307.86791 70.937242 
L 304.29285 70.177339 
L 300.67349 69.668672 
L 297.027465 69.413717 
L 293.372535 69.413717 
L 289.72651 69.668672 
L 286.10715 70.177339 
L 282.53209 70.937242 
L 279.018746 71.944677 
L 275.584237 73.194736 
L 272.245293 74.68133 
L 269.018182 76.397215 
L 265.918626 78.334033 
L 262.961726 80.482346 
L 260.161888 82.831689 
L 257.532752 85.370616 
L 255.087127 88.086758 
L 252.836928 90.966881 
L 250.793118 93.996955 
L 248.965653 97.162216 
L 247.363438 100.447245 
L 245.994277 103.836036 
L 244.864842 107.31208 
L 243.980635 110.858442 
L 243.345963 114.457845 
L 242.963919 118.092752 
L 242.836364 121.745455 
L 242.963919 125.398157 
L 243.345963 129.033064 
L 243.980635 132.632467 
L 244.864842 136.178829 
L 245.994277 139.654873 
L 247.363438 143.043664 
L 248.965653 146.328693 
L 250.793118 149.493954 
L 252.836928 152.524028 
L 255.087127 155.404151 
L 257.532752 158.120293 
L 260.161888 160.65922 
L 262.961726 163.008563 
L 265.918626 165.156877 
L 269.018182 167.093694 
L 272.245293 168.809579 
L 275.584237 170.296173 
L 279.018746 171.546232 
L 282.53209 172.553667 
L 286.10715 173.31357 
L 289.72651 173.822237 
L 293.372535 174.077192 
L 297.027465 174.077192 
L 300.67349 173.822237 
L 304.29285 173.31357 
L 307.86791 172.553667 
L 311.381254 171.546232 
L 314.815763 170.296173 
L 318.154707 168.809579 
L 321.381818 167.093694 
L 324.481374 165.156877 
L 327.438274 163.008563 
L 330.238112 160.65922 
L 332.867248 158.120293 
L 335.312873 155.404151 
L 337.563072 152.524028 
L 339.606882 149.493954 
L 341.434347 146.328693 
L 343.036562 143.043664 
L 344.405723 139.654873 
L 345.535158 136.178829 
L 346.419365 132.632467 
L 347.054037 129.033064 
L 347.436081 125.398157 
L 347.563636 121.745455 
L 347.563636 121.745455 
" style="fill:none;stroke:#ffffff;stroke-linecap:square;stroke-width:0.5;"/>
     </g>
     <g id="text_11">
      <!-- 12 -->
      <g style="fill:#555555;" transform="translate(343.577691884 99.6708209507)scale(0.1 -0.1)">
       <use xlink:href="#Meiryo-31"/>
       <use x="62.109375" xlink:href="#Meiryo-32"/>
      </g>
     </g>
    </g>
    <g id="ytick_7">
     <g id="line2d_12">
      <path clip-path="url(#pece47af3cc)" d="M 356.290909 121.745455 
L 356.253694 119.613413 
L 356.142095 117.483968 
L 355.696377 113.243243 
L 354.955926 109.04394 
L 353.924351 104.906518 
L 352.606676 100.851133 
L 351.009323 96.897543 
L 349.140071 93.06501 
L 347.008029 89.372205 
L 344.623584 85.837119 
L 341.998351 82.476975 
L 339.145122 79.308143 
L 336.077797 76.346062 
L 332.811319 73.605161 
L 329.361603 71.098796 
L 325.745455 68.839175 
L 321.980492 66.837309 
L 318.085057 65.10295 
L 314.078129 63.644547 
L 309.979229 62.469207 
L 305.808325 61.582654 
L 301.585739 60.989208 
L 297.332042 60.69176 
L 293.067958 60.69176 
L 288.814261 60.989208 
L 284.591675 61.582654 
L 280.420771 62.469207 
L 276.321871 63.644547 
L 272.314943 65.10295 
L 268.419508 66.837309 
L 264.654545 68.839175 
L 261.038397 71.098796 
L 257.588681 73.605161 
L 254.322203 76.346062 
L 251.254878 79.308143 
L 248.401649 82.476975 
L 245.776416 85.837119 
L 243.391971 89.372205 
L 241.259929 93.06501 
L 239.390677 96.897543 
L 237.793324 100.851133 
L 236.475649 104.906518 
L 235.444074 109.04394 
L 234.703623 113.243243 
L 234.257905 117.483968 
L 234.109091 121.745455 
L 234.257905 126.006941 
L 234.703623 130.247666 
L 235.444074 134.446969 
L 236.475649 138.584391 
L 237.793324 142.639776 
L 239.390677 146.593366 
L 241.259929 150.425899 
L 243.391971 154.118704 
L 245.776416 157.65379 
L 248.401649 161.013934 
L 251.254878 164.182766 
L 254.322203 167.144848 
L 257.588681 169.885748 
L 261.038397 172.392114 
L 264.654545 174.651734 
L 268.419508 176.6536 
L 272.314943 178.387959 
L 276.321871 179.846362 
L 280.420771 181.021703 
L 284.591675 181.908255 
L 288.814261 182.501701 
L 293.067958 182.799149 
L 297.332042 182.799149 
L 301.585739 182.501701 
L 305.808325 181.908255 
L 309.979229 181.021703 
L 314.078129 179.846362 
L 318.085057 178.387959 
L 321.980492 176.6536 
L 325.745455 174.651734 
L 329.361603 172.392114 
L 332.811319 169.885748 
L 336.077797 167.144848 
L 339.145122 164.182766 
L 341.998351 161.013934 
L 344.623584 157.65379 
L 347.008029 154.118704 
L 349.140071 150.425899 
L 351.009323 146.593366 
L 352.606676 142.639776 
L 353.924351 138.584391 
L 354.955926 134.446969 
L 355.696377 130.247666 
L 356.142095 126.006941 
L 356.290909 121.745455 
L 356.290909 121.745455 
" style="fill:none;stroke:#ffffff;stroke-linecap:square;stroke-width:0.5;"/>
     </g>
     <g id="text_12">
      <!-- 14 -->
      <g style="fill:#555555;" transform="translate(351.640640532 96.3310382682)scale(0.1 -0.1)">
       <use xlink:href="#Meiryo-31"/>
       <use x="62.109375" xlink:href="#Meiryo-34"/>
      </g>
     </g>
    </g>
    <g id="ytick_8">
     <g id="line2d_13">
      <path clip-path="url(#pece47af3cc)" d="M 365.018182 121.745455 
L 364.97565 119.308835 
L 364.848108 116.875184 
L 364.338716 112.028642 
L 363.492487 107.229438 
L 362.313544 102.500956 
L 360.80763 97.86623 
L 358.982083 93.347842 
L 356.845796 88.967804 
L 354.409176 84.747455 
L 351.684096 80.707357 
L 348.68383 76.867192 
L 345.422997 73.24567 
L 341.917482 69.860434 
L 338.184365 66.727976 
L 334.241832 63.863559 
L 330.109091 61.281135 
L 325.806276 58.993288 
L 321.354351 57.011164 
L 316.775005 55.344418 
L 312.090547 54.001171 
L 307.3238 52.987968 
L 302.497987 52.309744 
L 297.636619 51.969804 
L 292.763381 51.969804 
L 287.902013 52.309744 
L 283.0762 52.987968 
L 278.309453 54.001171 
L 273.624995 55.344418 
L 269.045649 57.011164 
L 264.593724 58.993288 
L 260.290909 61.281135 
L 256.158168 63.863559 
L 252.215635 66.727976 
L 248.482518 69.860434 
L 244.977003 73.24567 
L 241.71617 76.867192 
L 238.715904 80.707357 
L 235.990824 84.747455 
L 233.554204 88.967804 
L 231.417917 93.347842 
L 229.59237 97.86623 
L 228.086456 102.500956 
L 226.907513 107.229438 
L 226.061284 112.028642 
L 225.551892 116.875184 
L 225.381818 121.745455 
L 225.551892 126.615725 
L 226.061284 131.462267 
L 226.907513 136.261471 
L 228.086456 140.989954 
L 229.59237 145.624679 
L 231.417917 150.143067 
L 233.554204 154.523105 
L 235.990824 158.743454 
L 238.715904 162.783552 
L 241.71617 166.623717 
L 244.977003 170.245239 
L 248.482518 173.630475 
L 252.215635 176.762933 
L 256.158168 179.627351 
L 260.290909 182.209774 
L 264.593724 184.497621 
L 269.045649 186.479745 
L 273.624995 188.146491 
L 278.309453 189.489738 
L 283.0762 190.502941 
L 287.902013 191.181165 
L 292.763381 191.521105 
L 297.636619 191.521105 
L 302.497987 191.181165 
L 307.3238 190.502941 
L 312.090547 189.489738 
L 316.775005 188.146491 
L 321.354351 186.479745 
L 325.806276 184.497621 
L 330.109091 182.209774 
L 334.241832 179.627351 
L 338.184365 176.762933 
L 341.917482 173.630475 
L 345.422997 170.245239 
L 348.68383 166.623717 
L 351.684096 162.783552 
L 354.409176 158.743454 
L 356.845796 154.523105 
L 358.982083 150.143067 
L 360.80763 145.624679 
L 362.313544 140.989954 
L 363.492487 136.261471 
L 364.338716 131.462267 
L 364.848108 126.615725 
L 365.018182 121.745455 
L 365.018182 121.745455 
" style="fill:none;stroke:#ffffff;stroke-linecap:square;stroke-width:0.5;"/>
     </g>
     <g id="text_13">
      <!-- 16 -->
      <g style="fill:#555555;" transform="translate(359.703589179 92.9912555858)scale(0.1 -0.1)">
       <use xlink:href="#Meiryo-31"/>
       <use x="62.109375" xlink:href="#Meiryo-36"/>
      </g>
     </g>
    </g>
    <g id="ytick_9">
     <g id="line2d_14">
      <path clip-path="url(#pece47af3cc)" d="M 373.745455 121.745455 
L 373.697607 119.004258 
L 373.554122 116.266401 
L 372.981056 110.81404 
L 372.029048 105.414936 
L 370.702737 100.095393 
L 369.008584 94.881327 
L 366.954843 89.79814 
L 364.55152 84.870597 
L 361.810323 80.122705 
L 358.744608 75.577595 
L 355.369309 71.25741 
L 351.700872 67.183197 
L 347.757168 63.374806 
L 343.55741 59.850792 
L 339.122061 56.628322 
L 334.472727 53.723096 
L 329.632061 51.149268 
L 324.623645 48.919377 
L 319.47188 47.044288 
L 314.201865 45.533136 
L 308.839275 44.393282 
L 303.410236 43.63028 
L 297.941197 43.247848 
L 292.458803 43.247848 
L 286.989764 43.63028 
L 281.560725 44.393282 
L 276.198135 45.533136 
L 270.92812 47.044288 
L 265.776355 48.919377 
L 260.767939 51.149268 
L 255.927273 53.723096 
L 251.277939 56.628322 
L 246.84259 59.850792 
L 242.642832 63.374806 
L 238.699128 67.183197 
L 235.030691 71.25741 
L 231.655392 75.577595 
L 228.589677 80.122705 
L 225.84848 84.870597 
L 223.445157 89.79814 
L 221.391416 94.881327 
L 219.697263 100.095393 
L 218.370952 105.414936 
L 217.418944 110.81404 
L 216.845878 116.266401 
L 216.654545 121.745455 
L 216.845878 127.224508 
L 217.418944 132.676869 
L 218.370952 138.075973 
L 219.697263 143.395516 
L 221.391416 148.609582 
L 223.445157 153.692769 
L 225.84848 158.620312 
L 228.589677 163.368204 
L 231.655392 167.913314 
L 235.030691 172.2335 
L 238.699128 176.307712 
L 242.642832 180.116103 
L 246.84259 183.640117 
L 251.277939 186.862588 
L 255.927273 189.767814 
L 260.767939 192.341641 
L 265.776355 194.571532 
L 270.92812 196.446621 
L 276.198135 197.957773 
L 281.560725 199.097627 
L 286.989764 199.860629 
L 292.458803 200.243061 
L 297.941197 200.243061 
L 303.410236 199.860629 
L 308.839275 199.097627 
L 314.201865 197.957773 
L 319.47188 196.446621 
L 324.623645 194.571532 
L 329.632061 192.341641 
L 334.472727 189.767814 
L 339.122061 186.862588 
L 343.55741 183.640117 
L 347.757168 180.116103 
L 351.700872 176.307712 
L 355.369309 172.2335 
L 358.744608 167.913314 
L 361.810323 163.368204 
L 364.55152 158.620312 
L 366.954843 153.692769 
L 369.008584 148.609582 
L 370.702737 143.395516 
L 372.029048 138.075973 
L 372.981056 132.676869 
L 373.554122 127.224508 
L 373.745455 121.745455 
L 373.745455 121.745455 
" style="fill:none;stroke:#ffffff;stroke-linecap:square;stroke-width:0.5;"/>
     </g>
     <g id="text_14">
      <!-- 18 -->
      <g style="fill:#555555;" transform="translate(367.766537826 89.6514729033)scale(0.1 -0.1)">
       <use xlink:href="#Meiryo-31"/>
       <use x="62.109375" xlink:href="#Meiryo-38"/>
      </g>
     </g>
    </g>
   </g>
   <g id="patch_3">
    <path clip-path="url(#pece47af3cc)" d="M 295.2 69.381818 
L 237.099093 102.867325 
L 249.03214 185.290062 
L 318.28393 153.517758 
L 332.550583 109.609514 
z
" style="fill:#0000ff;opacity:0.25;stroke:#eeeeee;stroke-linejoin:miter;stroke-width:0.5;"/>
   </g>
   <g id="patch_4">
    <path clip-path="url(#pece47af3cc)" d="M 295.2 82.472727 
L 257.849417 109.609514 
L 249.03214 185.290062 
L 331.108335 171.169038 
L 345.000778 105.564201 
z
" style="fill:#008000;opacity:0.25;stroke:#eeeeee;stroke-linejoin:miter;stroke-width:0.5;"/>
   </g>
   <g id="patch_5">
    <path clip-path="url(#pece47af3cc)" d="M 295.2 65.018182 
L 241.249158 104.215763 
L 261.856546 167.638782 
L 328.543454 167.638782 
L 349.150842 104.215763 
z
" style="fill:#ff0000;opacity:0.25;stroke:#eeeeee;stroke-linejoin:miter;stroke-width:0.5;"/>
   </g>
   <g id="line2d_15">
    <path clip-path="url(#pece47af3cc)" d="M 295.2 69.381818 
L 237.099093 102.867325 
L 249.03214 185.290062 
L 318.28393 153.517758 
L 332.550583 109.609514 
L 295.2 69.381818 
" style="fill:none;stroke:#0000ff;stroke-linecap:square;"/>
   </g>
   <g id="line2d_16">
    <path clip-path="url(#pece47af3cc)" d="M 295.2 82.472727 
L 257.849417 109.609514 
L 249.03214 185.290062 
L 331.108335 171.169038 
L 345.000778 105.564201 
L 295.2 82.472727 
" style="fill:none;stroke:#008000;stroke-linecap:square;"/>
   </g>
   <g id="line2d_17">
    <path clip-path="url(#pece47af3cc)" d="M 295.2 65.018182 
L 241.249158 104.215763 
L 261.856546 167.638782 
L 328.543454 167.638782 
L 349.150842 104.215763 
L 295.2 65.018182 
" style="fill:none;stroke:#ff0000;stroke-linecap:square;"/>
   </g>
   <g id="patch_6">
    <path d="M 295.2 43.2 
L 220.498834 97.473574 
L 249.03214 185.290062 
L 341.36786 185.290062 
L 369.901166 97.473574 
L 295.2 43.2 
" style="fill:none;stroke:#ffffff;stroke-linecap:square;stroke-linejoin:miter;"/>
   </g>
   <g id="legend_1">
    <g id="patch_7">
     <path d="M 358.036364 51.054545 
L 396.354364 51.054545 
L 396.354364 18.42958 
L 358.036364 18.42958 
z
" style="fill:#e5e5e5;stroke:#ffffff;stroke-linejoin:miter;stroke-width:0.5;"/>
    </g>
    <g id="line2d_18">
     <path d="M 363.867364 25.248466 
L 375.529364 25.248466 
" style="fill:none;stroke:#0000ff;stroke-linecap:square;"/>
    </g>
    <g id="line2d_19"/>
    <g id="text_15">
     <!-- あ -->
     <defs>
      <path d="M 48.96875 -4 
L 47.65625 2 
Q 66.265625 2.203125 76.34375 7.6875 
Q 86.421875 13.1875 86.46875 23.6875 
Q 86.46875 30.21875 81.5625 34.90625 
Q 76.65625 39.59375 68.171875 41.796875 
Q 61.71875 25.25 47.890625 12.515625 
Q 34.078125 -0.203125 19.828125 -0.203125 
Q 13.1875 -0.203125 9.5625 3.53125 
Q 5.953125 7.28125 5.953125 14.0625 
Q 5.953125 23.640625 13.34375 31.953125 
Q 20.75 40.28125 32.421875 44.921875 
Q 32.28125 48.734375 32.28125 52.484375 
Q 32.28125 56.296875 32.421875 59.90625 
L 8.25 59.90625 
L 8.25 66.3125 
L 32.765625 66.3125 
Q 33.25 73.640625 33.84375 79.78125 
L 41.453125 79.6875 
Q 40.828125 74.46875 40.234375 66.609375 
L 85.359375 66.609375 
L 85.359375 60.203125 
L 39.796875 60.203125 
Q 39.453125 54.59375 39.453125 49.953125 
L 39.5 47.21875 
Q 47.171875 49.21875 55.171875 49.21875 
Q 71.921875 49.171875 83.03125 42.421875 
Q 94.140625 35.6875 94.140625 23.390625 
Q 94.140625 10.15625 81.703125 3.078125 
Q 69.28125 -4 50.25 -4 
z
M 60.84375 43.0625 
Q 58.296875 43.3125 55.765625 43.3125 
Q 47.65625 43.3125 39.703125 40.765625 
Q 40.328125 27.640625 42.875 16.65625 
Q 54.109375 26.703125 60.84375 43.0625 
M 32.8125 38.03125 
Q 25 34.234375 19.015625 27.734375 
Q 13.03125 21.234375 13.03125 15.1875 
Q 13.03125 6.296875 20.359375 6.296875 
Q 28.03125 6.296875 37.0625 12.15625 
Q 33.9375 22.796875 32.8125 38.03125 
" id="Meiryo-3042"/>
     </defs>
     <g transform="translate(384.692363636 28.163965767)scale(0.0833 -0.0833)">
      <use xlink:href="#Meiryo-3042"/>
     </g>
    </g>
    <g id="line2d_20">
     <path d="M 363.867364 34.179788 
L 375.529364 34.179788 
" style="fill:none;stroke:#008000;stroke-linecap:square;"/>
    </g>
    <g id="line2d_21"/>
    <g id="text_16">
     <!-- い -->
     <defs>
      <path d="M 49.21875 25.78125 
Q 47.5625 21.140625 43.96875 14.453125 
Q 40.375 7.765625 36.640625 3.296875 
Q 32.90625 -1.171875 28.90625 -1.171875 
Q 26.46875 -1.171875 24.5625 0 
Q 22.65625 1.171875 19.578125 4.53125 
Q 16.5 7.90625 13.9375 13.78125 
Q 11.375 19.671875 10.15625 26.109375 
Q 8.9375 32.5625 8.9375 38.671875 
Q 8.9375 44.140625 10.0625 54.15625 
Q 11.234375 64.65625 11.328125 69.484375 
L 19.53125 69.484375 
Q 19.34375 65.09375 17.96875 54.15625 
Q 16.75 44.390625 16.75 38.71875 
Q 16.75 30.21875 18.53125 23.453125 
Q 20.3125 16.703125 23.703125 11.8125 
Q 27.09375 6.9375 28.65625 6.9375 
Q 31.203125 6.9375 35.5 13.890625 
Q 39.796875 20.84375 43.21875 28.90625 
z
M 93.890625 11.421875 
L 85.6875 11.1875 
L 85.6875 12.0625 
Q 85.6875 26.515625 81 40.1875 
Q 76.3125 53.859375 67.625 64.59375 
L 73.640625 68.40625 
Q 93.5625 45.609375 93.890625 11.421875 
" id="Meiryo-3044"/>
     </defs>
     <g transform="translate(384.692363636 37.095287642)scale(0.0833 -0.0833)">
      <use xlink:href="#Meiryo-3044"/>
     </g>
    </g>
    <g id="line2d_22">
     <path d="M 363.867364 43.11111 
L 375.529364 43.11111 
" style="fill:none;stroke:#ff0000;stroke-linecap:square;"/>
    </g>
    <g id="line2d_23"/>
    <g id="text_17">
     <!-- う -->
     <defs>
      <path d="M 76.125 71.390625 
L 74.421875 64.5 
Q 55.21875 68.265625 19.09375 69 
L 19.4375 75.59375 
Q 30.171875 75.59375 42.578125 74.828125 
Q 54.984375 74.078125 76.125 71.390625 
M 27.484375 -3.90625 
L 26.125 2.484375 
Q 47.75 4 59.5625 9.125 
Q 71.390625 14.265625 75.25 20.140625 
Q 79.109375 26.03125 79.109375 34.078125 
Q 79.109375 41.0625 73.53125 45.046875 
Q 67.96875 49.03125 59.328125 49.03125 
Q 54.6875 49.03125 49.21875 48.515625 
Q 43.75 48 40.078125 47.40625 
Q 36.421875 46.828125 13.421875 42.625 
L 12.109375 49.609375 
L 31.203125 52.734375 
Q 40.234375 54.25 47.09375 54.875 
Q 53.953125 55.515625 59.421875 55.515625 
Q 71.921875 55.515625 79.359375 49.828125 
Q 86.8125 44.140625 86.8125 33.6875 
Q 86.8125 16.109375 71.109375 6.53125 
Q 55.421875 -3.03125 27.484375 -3.90625 
" id="Meiryo-3046"/>
     </defs>
     <g transform="translate(384.692363636 46.026609517)scale(0.0833 -0.0833)">
      <use xlink:href="#Meiryo-3046"/>
     </g>
    </g>
   </g>
  </g>
  <g id="axes_2">
   <g id="patch_8">
    <path d="M 295.2 231.709091 
L 220.498834 285.982665 
L 249.03214 373.799153 
L 341.36786 373.799153 
L 369.901166 285.982665 
z
" style="fill:#e5e5e5;"/>
   </g>
   <g id="matplotlib.axis_3">
    <g id="xtick_6">
     <g id="line2d_24">
      <path clip-path="url(#p5fa0b21b67)" d="M 295.2 310.254545 
L 295.2 231.709091 
" style="fill:none;stroke:#ffffff;stroke-linecap:square;stroke-width:0.5;"/>
     </g>
     <g id="text_18">
      <!-- 面白さ -->
      <g style="fill:#555555;" transform="translate(280.2 226.679545455)scale(0.1 -0.1)">
       <use xlink:href="#Meiryo-9762"/>
       <use x="100.0" xlink:href="#Meiryo-767d"/>
       <use x="200.0" xlink:href="#Meiryo-3055"/>
      </g>
     </g>
    </g>
    <g id="xtick_7">
     <g id="line2d_25">
      <path clip-path="url(#p5fa0b21b67)" d="M 295.2 310.254545 
L 220.498834 285.982665 
" style="fill:none;stroke:#ffffff;stroke-linecap:square;stroke-width:0.5;"/>
     </g>
     <g id="text_19">
      <!-- わかりやすさ -->
      <g style="fill:#555555;" transform="translate(183.028716992 286.380477141)scale(0.1 -0.1)">
       <use xlink:href="#Meiryo-308f"/>
       <use x="100.0" xlink:href="#Meiryo-304b"/>
       <use x="200.0" xlink:href="#Meiryo-308a"/>
       <use x="300.0" xlink:href="#Meiryo-3084"/>
       <use x="400.0" xlink:href="#Meiryo-3059"/>
       <use x="500.0" xlink:href="#Meiryo-3055"/>
      </g>
     </g>
    </g>
    <g id="xtick_8">
     <g id="line2d_26">
      <path clip-path="url(#p5fa0b21b67)" d="M 295.2 310.254545 
L 249.03214 373.799153 
" style="fill:none;stroke:#ffffff;stroke-linecap:square;stroke-width:0.5;"/>
     </g>
     <g id="text_20">
      <!-- 手軽さ -->
      <g style="fill:#555555;" transform="translate(229.415354202 382.978613769)scale(0.1 -0.1)">
       <use xlink:href="#Meiryo-624b"/>
       <use x="100.0" xlink:href="#Meiryo-8efd"/>
       <use x="200.0" xlink:href="#Meiryo-3055"/>
      </g>
     </g>
    </g>
    <g id="xtick_9">
     <g id="line2d_27">
      <path clip-path="url(#p5fa0b21b67)" d="M 295.2 310.254545 
L 341.36786 373.799153 
" style="fill:none;stroke:#ffffff;stroke-linecap:square;stroke-width:0.5;"/>
     </g>
     <g id="text_21">
      <!-- フォ-マルさ -->
      <g style="fill:#555555;" transform="translate(318.786989548 382.978613769)scale(0.1 -0.1)">
       <use xlink:href="#Meiryo-30d5"/>
       <use x="100.0" xlink:href="#Meiryo-30a9"/>
       <use x="200.0" xlink:href="#Meiryo-2d"/>
       <use x="243.9453125" xlink:href="#Meiryo-30de"/>
       <use x="343.9453125" xlink:href="#Meiryo-30eb"/>
       <use x="443.9453125" xlink:href="#Meiryo-3055"/>
      </g>
     </g>
    </g>
    <g id="xtick_10">
     <g id="line2d_28">
      <path clip-path="url(#p5fa0b21b67)" d="M 295.2 310.254545 
L 369.901166 285.982665 
" style="fill:none;stroke:#ffffff;stroke-linecap:square;stroke-width:0.5;"/>
     </g>
     <g id="text_22">
      <!-- 学習効果? -->
      <g style="fill:#555555;" transform="translate(354.717376758 286.380477141)scale(0.1 -0.1)">
       <use xlink:href="#Meiryo-5b66"/>
       <use x="100.0" xlink:href="#Meiryo-7fd2"/>
       <use x="200.0" xlink:href="#Meiryo-52b9"/>
       <use x="300.0" xlink:href="#Meiryo-679c"/>
       <use x="400.0" xlink:href="#Meiryo-3f"/>
      </g>
     </g>
    </g>
   </g>
   <g id="matplotlib.axis_4">
    <g id="ytick_10">
     <g id="line2d_29">
      <path clip-path="url(#p5fa0b21b67)" d="M 303.927273 310.254545 
L 303.794686 308.73907 
L 303.400954 307.269642 
L 302.75804 305.890909 
L 301.885479 304.644763 
L 300.809783 303.569067 
L 299.563636 302.696506 
L 298.184903 302.053592 
L 296.715475 301.65986 
L 295.2 301.527273 
L 293.684525 301.65986 
L 292.215097 302.053592 
L 290.836364 302.696506 
L 289.590217 303.569067 
L 288.514521 304.644763 
L 287.64196 305.890909 
L 286.999046 307.269642 
L 286.605314 308.73907 
L 286.472727 310.254545 
L 286.605314 311.77002 
L 286.999046 313.239449 
L 287.64196 314.618182 
L 288.514521 315.864328 
L 289.590217 316.940024 
L 290.836364 317.812585 
L 292.215097 318.455499 
L 293.684525 318.849231 
L 295.2 318.981818 
L 296.715475 318.849231 
L 298.184903 318.455499 
L 299.563636 317.812585 
L 300.809783 316.940024 
L 301.885479 315.864328 
L 302.75804 314.618182 
L 303.400954 313.239449 
L 303.794686 311.77002 
L 303.927273 310.254545 
L 303.927273 310.254545 
" style="fill:none;stroke:#ffffff;stroke-linecap:square;stroke-width:0.5;"/>
     </g>
     <g id="text_23">
      <!-- 2 -->
      <g style="fill:#555555;" transform="translate(303.262948647 304.878825272)scale(0.1 -0.1)">
       <use xlink:href="#Meiryo-32"/>
      </g>
     </g>
    </g>
    <g id="ytick_11">
     <g id="line2d_30">
      <path clip-path="url(#p5fa0b21b67)" d="M 312.654545 310.254545 
L 312.558928 308.430049 
L 312.273122 306.625541 
L 311.800259 304.860794 
L 311.145521 303.155142 
L 310.31608 301.527273 
L 309.321024 299.995021 
L 308.171255 298.575175 
L 306.879371 297.28329 
L 305.459524 296.133522 
L 303.927273 295.138466 
L 302.299403 294.309025 
L 300.593751 293.654286 
L 298.829004 293.181424 
L 297.024497 292.895618 
L 295.2 292.8 
L 293.375503 292.895618 
L 291.570996 293.181424 
L 289.806249 293.654286 
L 288.100597 294.309025 
L 286.472727 295.138466 
L 284.940476 296.133522 
L 283.520629 297.28329 
L 282.228745 298.575175 
L 281.078976 299.995021 
L 280.08392 301.527273 
L 279.254479 303.155142 
L 278.599741 304.860794 
L 278.126878 306.625541 
L 277.841072 308.430049 
L 277.745455 310.254545 
L 277.841072 312.079042 
L 278.126878 313.88355 
L 278.599741 315.648297 
L 279.254479 317.353949 
L 280.08392 318.981818 
L 281.078976 320.51407 
L 282.228745 321.933916 
L 283.520629 323.225801 
L 284.940476 324.375569 
L 286.472727 325.370625 
L 288.100597 326.200066 
L 289.806249 326.854805 
L 291.570996 327.327667 
L 293.375503 327.613473 
L 295.2 327.709091 
L 297.024497 327.613473 
L 298.829004 327.327667 
L 300.593751 326.854805 
L 302.299403 326.200066 
L 303.927273 325.370625 
L 305.459524 324.375569 
L 306.879371 323.225801 
L 308.171255 321.933916 
L 309.321024 320.51407 
L 310.31608 318.981818 
L 311.145521 317.353949 
L 311.800259 315.648297 
L 312.273122 313.88355 
L 312.558928 312.079042 
L 312.654545 310.254545 
L 312.654545 310.254545 
" style="fill:none;stroke:#ffffff;stroke-linecap:square;stroke-width:0.5;"/>
     </g>
     <g id="text_24">
      <!-- 4 -->
      <g style="fill:#555555;" transform="translate(311.325897295 301.53904259)scale(0.1 -0.1)">
       <use xlink:href="#Meiryo-34"/>
      </g>
     </g>
    </g>
    <g id="ytick_12">
     <g id="line2d_31">
      <path clip-path="url(#p5fa0b21b67)" d="M 321.381818 310.254545 
L 321.238391 307.5178 
L 320.809683 304.811039 
L 320.100389 302.163919 
L 319.118281 299.605441 
L 317.87412 297.163636 
L 316.381536 294.865259 
L 314.656883 292.73549 
L 312.719056 290.797663 
L 310.589287 289.07301 
L 308.290909 287.580426 
L 305.849105 286.336264 
L 303.290627 285.354157 
L 300.643506 284.644863 
L 297.936745 284.216154 
L 295.2 284.072727 
L 292.463255 284.216154 
L 289.756494 284.644863 
L 287.109373 285.354157 
L 284.550895 286.336264 
L 282.109091 287.580426 
L 279.810713 289.07301 
L 277.680944 290.797663 
L 275.743117 292.73549 
L 274.018464 294.865259 
L 272.52588 297.163636 
L 271.281719 299.605441 
L 270.299611 302.163919 
L 269.590317 304.811039 
L 269.161609 307.5178 
L 269.018182 310.254545 
L 269.161609 312.991291 
L 269.590317 315.698052 
L 270.299611 318.345172 
L 271.281719 320.90365 
L 272.52588 323.345455 
L 274.018464 325.643832 
L 275.743117 327.773601 
L 277.680944 329.711428 
L 279.810713 331.436081 
L 282.109091 332.928665 
L 284.550895 334.172827 
L 287.109373 335.154934 
L 289.756494 335.864228 
L 292.463255 336.292937 
L 295.2 336.436364 
L 297.936745 336.292937 
L 300.643506 335.864228 
L 303.290627 335.154934 
L 305.849105 334.172827 
L 308.290909 332.928665 
L 310.589287 331.436081 
L 312.719056 329.711428 
L 314.656883 327.773601 
L 316.381536 325.643832 
L 317.87412 323.345455 
L 319.118281 320.90365 
L 320.100389 318.345172 
L 320.809683 315.698052 
L 321.238391 312.991291 
L 321.381818 310.254545 
L 321.381818 310.254545 
" style="fill:none;stroke:#ffffff;stroke-linecap:square;stroke-width:0.5;"/>
     </g>
     <g id="text_25">
      <!-- 6 -->
      <g style="fill:#555555;" transform="translate(319.388845942 298.199259907)scale(0.1 -0.1)">
       <use xlink:href="#Meiryo-36"/>
      </g>
     </g>
    </g>
    <g id="ytick_13">
     <g id="line2d_32">
      <path clip-path="url(#p5fa0b21b67)" d="M 330.109091 310.254545 
L 330.087825 309.036236 
L 330.024054 307.81941 
L 329.769358 305.396139 
L 329.346244 302.996537 
L 328.756772 300.632296 
L 328.003815 298.314933 
L 327.091041 296.055739 
L 326.022898 293.86572 
L 324.804588 291.755546 
L 323.442048 289.735497 
L 321.941915 287.815414 
L 320.311498 286.004653 
L 318.558741 284.312035 
L 316.692182 282.745806 
L 314.720916 281.313597 
L 312.654545 280.022386 
L 310.503138 278.878462 
L 308.277176 277.8874 
L 305.987502 277.054027 
L 303.645273 276.382404 
L 301.2619 275.875802 
L 298.848994 275.53669 
L 296.41831 275.36672 
L 293.98169 275.36672 
L 291.551006 275.53669 
L 289.1381 275.875802 
L 286.754727 276.382404 
L 284.412498 277.054027 
L 282.122824 277.8874 
L 279.896862 278.878462 
L 277.745455 280.022386 
L 275.679084 281.313597 
L 273.707818 282.745806 
L 271.841259 284.312035 
L 270.088502 286.004653 
L 268.458085 287.815414 
L 266.957952 289.735497 
L 265.595412 291.755546 
L 264.377102 293.86572 
L 263.308959 296.055739 
L 262.396185 298.314933 
L 261.643228 300.632296 
L 261.053756 302.996537 
L 260.630642 305.396139 
L 260.375946 307.81941 
L 260.290909 310.254545 
L 260.375946 312.689681 
L 260.630642 315.112952 
L 261.053756 317.512554 
L 261.643228 319.876795 
L 262.396185 322.194158 
L 263.308959 324.453352 
L 264.377102 326.643371 
L 265.595412 328.753545 
L 266.957952 330.773594 
L 268.458085 332.693677 
L 270.088502 334.504438 
L 271.841259 336.197056 
L 273.707818 337.763284 
L 275.679084 339.195493 
L 277.745455 340.486705 
L 279.896862 341.630629 
L 282.122824 342.621691 
L 284.412498 343.455064 
L 286.754727 344.126687 
L 289.1381 344.633289 
L 291.551006 344.972401 
L 293.98169 345.142371 
L 296.41831 345.142371 
L 298.848994 344.972401 
L 301.2619 344.633289 
L 303.645273 344.126687 
L 305.987502 343.455064 
L 308.277176 342.621691 
L 310.503138 341.630629 
L 312.654545 340.486705 
L 314.720916 339.195493 
L 316.692182 337.763284 
L 318.558741 336.197056 
L 320.311498 334.504438 
L 321.941915 332.693677 
L 323.442048 330.773594 
L 324.804588 328.753545 
L 326.022898 326.643371 
L 327.091041 324.453352 
L 328.003815 322.194158 
L 328.756772 319.876795 
L 329.346244 317.512554 
L 329.769358 315.112952 
L 330.024054 312.689681 
L 330.109091 310.254545 
L 330.109091 310.254545 
" style="fill:none;stroke:#ffffff;stroke-linecap:square;stroke-width:0.5;"/>
     </g>
     <g id="text_26">
      <!-- 8 -->
      <g style="fill:#555555;" transform="translate(327.451794589 294.859477225)scale(0.1 -0.1)">
       <use xlink:href="#Meiryo-38"/>
      </g>
     </g>
    </g>
    <g id="ytick_14">
     <g id="line2d_33">
      <path clip-path="url(#p5fa0b21b67)" d="M 338.836364 310.254545 
L 338.809782 308.731658 
L 338.730068 307.210627 
L 338.411698 304.181537 
L 337.882804 301.182035 
L 337.145965 298.226734 
L 336.204769 295.33003 
L 335.063802 292.506037 
L 333.728622 289.768514 
L 332.205735 287.130796 
L 330.50256 284.605734 
L 328.627394 282.205632 
L 326.589373 279.94218 
L 324.398426 277.826408 
L 322.065228 275.868622 
L 319.601145 274.07836 
L 317.018182 272.464346 
L 314.328923 271.034442 
L 311.54647 269.795614 
L 308.684378 268.753897 
L 305.756592 267.914368 
L 302.777375 267.281116 
L 299.761242 266.857226 
L 296.722887 266.644764 
L 293.677113 266.644764 
L 290.638758 266.857226 
L 287.622625 267.281116 
L 284.643408 267.914368 
L 281.715622 268.753897 
L 278.85353 269.795614 
L 276.071077 271.034442 
L 273.381818 272.464346 
L 270.798855 274.07836 
L 268.334772 275.868622 
L 266.001574 277.826408 
L 263.810627 279.94218 
L 261.772606 282.205632 
L 259.89744 284.605734 
L 258.194265 287.130796 
L 256.671378 289.768514 
L 255.336198 292.506037 
L 254.195231 295.33003 
L 253.254035 298.226734 
L 252.517196 301.182035 
L 251.988302 304.181537 
L 251.669932 307.210627 
L 251.563636 310.254545 
L 251.669932 313.298464 
L 251.988302 316.327553 
L 252.517196 319.327056 
L 253.254035 322.282357 
L 254.195231 325.179061 
L 255.336198 328.003054 
L 256.671378 330.740577 
L 258.194265 333.378295 
L 259.89744 335.903356 
L 261.772606 338.303459 
L 263.810627 340.566911 
L 266.001574 342.682683 
L 268.334772 344.640469 
L 270.798855 346.43073 
L 273.381818 348.044745 
L 276.071077 349.474649 
L 278.85353 350.713477 
L 281.715622 351.755193 
L 284.643408 352.594723 
L 287.622625 353.227975 
L 290.638758 353.651865 
L 293.677113 353.864327 
L 296.722887 353.864327 
L 299.761242 353.651865 
L 302.777375 353.227975 
L 305.756592 352.594723 
L 308.684378 351.755193 
L 311.54647 350.713477 
L 314.328923 349.474649 
L 317.018182 348.044745 
L 319.601145 346.43073 
L 322.065228 344.640469 
L 324.398426 342.682683 
L 326.589373 340.566911 
L 328.627394 338.303459 
L 330.50256 335.903356 
L 332.205735 333.378295 
L 333.728622 330.740577 
L 335.063802 328.003054 
L 336.204769 325.179061 
L 337.145965 322.282357 
L 337.882804 319.327056 
L 338.411698 316.327553 
L 338.730068 313.298464 
L 338.836364 310.254545 
L 338.836364 310.254545 
" style="fill:none;stroke:#ffffff;stroke-linecap:square;stroke-width:0.5;"/>
     </g>
     <g id="text_27">
      <!-- 10 -->
      <g style="fill:#555555;" transform="translate(335.514743237 291.519694542)scale(0.1 -0.1)">
       <use xlink:href="#Meiryo-31"/>
       <use x="62.109375" xlink:href="#Meiryo-30"/>
      </g>
     </g>
    </g>
    <g id="ytick_15">
     <g id="line2d_34">
      <path clip-path="url(#p5fa0b21b67)" d="M 347.563636 310.254545 
L 347.531738 308.427081 
L 347.436081 306.601843 
L 347.054037 302.966936 
L 346.419365 299.367533 
L 345.535158 295.821171 
L 344.405723 292.345127 
L 343.036562 288.956336 
L 341.434347 285.671307 
L 339.606882 282.506046 
L 337.563072 279.475972 
L 335.312873 276.595849 
L 332.867248 273.879707 
L 330.238112 271.34078 
L 327.438274 268.991437 
L 324.481374 266.843123 
L 321.381818 264.906306 
L 318.154707 263.190421 
L 314.815763 261.703827 
L 311.381254 260.453768 
L 307.86791 259.446333 
L 304.29285 258.68643 
L 300.67349 258.177763 
L 297.027465 257.922808 
L 293.372535 257.922808 
L 289.72651 258.177763 
L 286.10715 258.68643 
L 282.53209 259.446333 
L 279.018746 260.453768 
L 275.584237 261.703827 
L 272.245293 263.190421 
L 269.018182 264.906306 
L 265.918626 266.843123 
L 262.961726 268.991437 
L 260.161888 271.34078 
L 257.532752 273.879707 
L 255.087127 276.595849 
L 252.836928 279.475972 
L 250.793118 282.506046 
L 248.965653 285.671307 
L 247.363438 288.956336 
L 245.994277 292.345127 
L 244.864842 295.821171 
L 243.980635 299.367533 
L 243.345963 302.966936 
L 242.963919 306.601843 
L 242.836364 310.254545 
L 242.963919 313.907248 
L 243.345963 317.542155 
L 243.980635 321.141558 
L 244.864842 324.68792 
L 245.994277 328.163964 
L 247.363438 331.552755 
L 248.965653 334.837784 
L 250.793118 338.003045 
L 252.836928 341.033119 
L 255.087127 343.913242 
L 257.532752 346.629384 
L 260.161888 349.168311 
L 262.961726 351.517654 
L 265.918626 353.665967 
L 269.018182 355.602785 
L 272.245293 357.31867 
L 275.584237 358.805264 
L 279.018746 360.055323 
L 282.53209 361.062758 
L 286.10715 361.822661 
L 289.72651 362.331328 
L 293.372535 362.586283 
L 297.027465 362.586283 
L 300.67349 362.331328 
L 304.29285 361.822661 
L 307.86791 361.062758 
L 311.381254 360.055323 
L 314.815763 358.805264 
L 318.154707 357.31867 
L 321.381818 355.602785 
L 324.481374 353.665967 
L 327.438274 351.517654 
L 330.238112 349.168311 
L 332.867248 346.629384 
L 335.312873 343.913242 
L 337.563072 341.033119 
L 339.606882 338.003045 
L 341.434347 334.837784 
L 343.036562 331.552755 
L 344.405723 328.163964 
L 345.535158 324.68792 
L 346.419365 321.141558 
L 347.054037 317.542155 
L 347.436081 313.907248 
L 347.563636 310.254545 
L 347.563636 310.254545 
" style="fill:none;stroke:#ffffff;stroke-linecap:square;stroke-width:0.5;"/>
     </g>
     <g id="text_28">
      <!-- 12 -->
      <g style="fill:#555555;" transform="translate(343.577691884 288.17991186)scale(0.1 -0.1)">
       <use xlink:href="#Meiryo-31"/>
       <use x="62.109375" xlink:href="#Meiryo-32"/>
      </g>
     </g>
    </g>
    <g id="ytick_16">
     <g id="line2d_35">
      <path clip-path="url(#p5fa0b21b67)" d="M 356.290909 310.254545 
L 356.253694 308.122503 
L 356.142095 305.993059 
L 355.696377 301.752334 
L 354.955926 297.553031 
L 353.924351 293.415609 
L 352.606676 289.360224 
L 351.009323 285.406634 
L 349.140071 281.574101 
L 347.008029 277.881296 
L 344.623584 274.34621 
L 341.998351 270.986066 
L 339.145122 267.817234 
L 336.077797 264.855152 
L 332.811319 262.114252 
L 329.361603 259.607886 
L 325.745455 257.348266 
L 321.980492 255.3464 
L 318.085057 253.612041 
L 314.078129 252.153638 
L 309.979229 250.978297 
L 305.808325 250.091745 
L 301.585739 249.498299 
L 297.332042 249.200851 
L 293.067958 249.200851 
L 288.814261 249.498299 
L 284.591675 250.091745 
L 280.420771 250.978297 
L 276.321871 252.153638 
L 272.314943 253.612041 
L 268.419508 255.3464 
L 264.654545 257.348266 
L 261.038397 259.607886 
L 257.588681 262.114252 
L 254.322203 264.855152 
L 251.254878 267.817234 
L 248.401649 270.986066 
L 245.776416 274.34621 
L 243.391971 277.881296 
L 241.259929 281.574101 
L 239.390677 285.406634 
L 237.793324 289.360224 
L 236.475649 293.415609 
L 235.444074 297.553031 
L 234.703623 301.752334 
L 234.257905 305.993059 
L 234.109091 310.254545 
L 234.257905 314.516032 
L 234.703623 318.756757 
L 235.444074 322.95606 
L 236.475649 327.093482 
L 237.793324 331.148867 
L 239.390677 335.102457 
L 241.259929 338.93499 
L 243.391971 342.627795 
L 245.776416 346.162881 
L 248.401649 349.523025 
L 251.254878 352.691857 
L 254.322203 355.653938 
L 257.588681 358.394839 
L 261.038397 360.901204 
L 264.654545 363.160825 
L 268.419508 365.162691 
L 272.314943 366.89705 
L 276.321871 368.355453 
L 280.420771 369.530793 
L 284.591675 370.417346 
L 288.814261 371.010792 
L 293.067958 371.30824 
L 297.332042 371.30824 
L 301.585739 371.010792 
L 305.808325 370.417346 
L 309.979229 369.530793 
L 314.078129 368.355453 
L 318.085057 366.89705 
L 321.980492 365.162691 
L 325.745455 363.160825 
L 329.361603 360.901204 
L 332.811319 358.394839 
L 336.077797 355.653938 
L 339.145122 352.691857 
L 341.998351 349.523025 
L 344.623584 346.162881 
L 347.008029 342.627795 
L 349.140071 338.93499 
L 351.009323 335.102457 
L 352.606676 331.148867 
L 353.924351 327.093482 
L 354.955926 322.95606 
L 355.696377 318.756757 
L 356.142095 314.516032 
L 356.290909 310.254545 
L 356.290909 310.254545 
" style="fill:none;stroke:#ffffff;stroke-linecap:square;stroke-width:0.5;"/>
     </g>
     <g id="text_29">
      <!-- 14 -->
      <g style="fill:#555555;" transform="translate(351.640640532 284.840129177)scale(0.1 -0.1)">
       <use xlink:href="#Meiryo-31"/>
       <use x="62.109375" xlink:href="#Meiryo-34"/>
      </g>
     </g>
    </g>
    <g id="ytick_17">
     <g id="line2d_36">
      <path clip-path="url(#p5fa0b21b67)" d="M 365.018182 310.254545 
L 364.97565 307.817926 
L 364.848108 305.384275 
L 364.338716 300.537733 
L 363.492487 295.738529 
L 362.313544 291.010046 
L 360.80763 286.375321 
L 358.982083 281.856933 
L 356.845796 277.476895 
L 354.409176 273.256546 
L 351.684096 269.216448 
L 348.68383 265.376283 
L 345.422997 261.754761 
L 341.917482 258.369525 
L 338.184365 255.237067 
L 334.241832 252.372649 
L 330.109091 249.790226 
L 325.806276 247.502379 
L 321.354351 245.520255 
L 316.775005 243.853509 
L 312.090547 242.510262 
L 307.3238 241.497059 
L 302.497987 240.818835 
L 297.636619 240.478895 
L 292.763381 240.478895 
L 287.902013 240.818835 
L 283.0762 241.497059 
L 278.309453 242.510262 
L 273.624995 243.853509 
L 269.045649 245.520255 
L 264.593724 247.502379 
L 260.290909 249.790226 
L 256.158168 252.372649 
L 252.215635 255.237067 
L 248.482518 258.369525 
L 244.977003 261.754761 
L 241.71617 265.376283 
L 238.715904 269.216448 
L 235.990824 273.256546 
L 233.554204 277.476895 
L 231.417917 281.856933 
L 229.59237 286.375321 
L 228.086456 291.010046 
L 226.907513 295.738529 
L 226.061284 300.537733 
L 225.551892 305.384275 
L 225.381818 310.254545 
L 225.551892 315.124816 
L 226.061284 319.971358 
L 226.907513 324.770562 
L 228.086456 329.499044 
L 229.59237 334.13377 
L 231.417917 338.652158 
L 233.554204 343.032196 
L 235.990824 347.252545 
L 238.715904 351.292643 
L 241.71617 355.132808 
L 244.977003 358.75433 
L 248.482518 362.139566 
L 252.215635 365.272024 
L 256.158168 368.136441 
L 260.290909 370.718865 
L 264.593724 373.006712 
L 269.045649 374.988836 
L 273.624995 376.655582 
L 278.309453 377.998829 
L 283.0762 379.012032 
L 287.902013 379.690256 
L 292.763381 380.030196 
L 297.636619 380.030196 
L 302.497987 379.690256 
L 307.3238 379.012032 
L 312.090547 377.998829 
L 316.775005 376.655582 
L 321.354351 374.988836 
L 325.806276 373.006712 
L 330.109091 370.718865 
L 334.241832 368.136441 
L 338.184365 365.272024 
L 341.917482 362.139566 
L 345.422997 358.75433 
L 348.68383 355.132808 
L 351.684096 351.292643 
L 354.409176 347.252545 
L 356.845796 343.032196 
L 358.982083 338.652158 
L 360.80763 334.13377 
L 362.313544 329.499044 
L 363.492487 324.770562 
L 364.338716 319.971358 
L 364.848108 315.124816 
L 365.018182 310.254545 
L 365.018182 310.254545 
" style="fill:none;stroke:#ffffff;stroke-linecap:square;stroke-width:0.5;"/>
     </g>
     <g id="text_30">
      <!-- 16 -->
      <g style="fill:#555555;" transform="translate(359.703589179 281.500346495)scale(0.1 -0.1)">
       <use xlink:href="#Meiryo-31"/>
       <use x="62.109375" xlink:href="#Meiryo-36"/>
      </g>
     </g>
    </g>
    <g id="ytick_18">
     <g id="line2d_37">
      <path clip-path="url(#p5fa0b21b67)" d="M 373.745455 310.254545 
L 373.697607 307.513349 
L 373.554122 304.775492 
L 372.981056 299.323131 
L 372.029048 293.924027 
L 370.702737 288.604484 
L 369.008584 283.390418 
L 366.954843 278.307231 
L 364.55152 273.379688 
L 361.810323 268.631796 
L 358.744608 264.086686 
L 355.369309 259.7665 
L 351.700872 255.692288 
L 347.757168 251.883897 
L 343.55741 248.359883 
L 339.122061 245.137412 
L 334.472727 242.232186 
L 329.632061 239.658359 
L 324.623645 237.428468 
L 319.47188 235.553379 
L 314.201865 234.042227 
L 308.839275 232.902373 
L 303.410236 232.139371 
L 297.941197 231.756939 
L 292.458803 231.756939 
L 286.989764 232.139371 
L 281.560725 232.902373 
L 276.198135 234.042227 
L 270.92812 235.553379 
L 265.776355 237.428468 
L 260.767939 239.658359 
L 255.927273 242.232186 
L 251.277939 245.137412 
L 246.84259 248.359883 
L 242.642832 251.883897 
L 238.699128 255.692288 
L 235.030691 259.7665 
L 231.655392 264.086686 
L 228.589677 268.631796 
L 225.84848 273.379688 
L 223.445157 278.307231 
L 221.391416 283.390418 
L 219.697263 288.604484 
L 218.370952 293.924027 
L 217.418944 299.323131 
L 216.845878 304.775492 
L 216.654545 310.254545 
L 216.845878 315.733599 
L 217.418944 321.18596 
L 218.370952 326.585064 
L 219.697263 331.904607 
L 221.391416 337.118673 
L 223.445157 342.20186 
L 225.84848 347.129403 
L 228.589677 351.877295 
L 231.655392 356.422405 
L 235.030691 360.74259 
L 238.699128 364.816803 
L 242.642832 368.625194 
L 246.84259 372.149208 
L 251.277939 375.371678 
L 255.927273 378.276904 
L 260.767939 380.850732 
L 265.776355 383.080623 
L 270.92812 384.955712 
L 276.198135 386.466864 
L 281.560725 387.606718 
L 286.989764 388.36972 
L 292.458803 388.752152 
L 297.941197 388.752152 
L 303.410236 388.36972 
L 308.839275 387.606718 
L 314.201865 386.466864 
L 319.47188 384.955712 
L 324.623645 383.080623 
L 329.632061 380.850732 
L 334.472727 378.276904 
L 339.122061 375.371678 
L 343.55741 372.149208 
L 347.757168 368.625194 
L 351.700872 364.816803 
L 355.369309 360.74259 
L 358.744608 356.422405 
L 361.810323 351.877295 
L 364.55152 347.129403 
L 366.954843 342.20186 
L 369.008584 337.118673 
L 370.702737 331.904607 
L 372.029048 326.585064 
L 372.981056 321.18596 
L 373.554122 315.733599 
L 373.745455 310.254545 
L 373.745455 310.254545 
" style="fill:none;stroke:#ffffff;stroke-linecap:square;stroke-width:0.5;"/>
     </g>
     <g id="text_31">
      <!-- 18 -->
      <g style="fill:#555555;" transform="translate(367.766537826 278.160563812)scale(0.1 -0.1)">
       <use xlink:href="#Meiryo-31"/>
       <use x="62.109375" xlink:href="#Meiryo-38"/>
      </g>
     </g>
    </g>
   </g>
   <g id="patch_9">
    <path clip-path="url(#p5fa0b21b67)" d="M 295.2 257.890909 
L 237.099093 291.376416 
L 249.03214 373.799153 
L 318.28393 342.026849 
L 332.550583 298.118605 
z
" style="fill:#0000ff;opacity:0.25;stroke:#eeeeee;stroke-linejoin:miter;stroke-width:0.5;"/>
   </g>
   <g id="patch_10">
    <path clip-path="url(#p5fa0b21b67)" d="M 295.2 270.981818 
L 257.849417 298.118605 
L 249.03214 373.799153 
L 331.108335 359.678129 
L 345.000778 294.073292 
z
" style="fill:#008000;opacity:0.25;stroke:#eeeeee;stroke-linejoin:miter;stroke-width:0.5;"/>
   </g>
   <g id="patch_11">
    <path clip-path="url(#p5fa0b21b67)" d="M 295.2 253.527273 
L 241.249158 292.724854 
L 261.856546 356.147873 
L 328.543454 356.147873 
L 349.150842 292.724854 
z
" style="fill:#ff0000;opacity:0.25;stroke:#eeeeee;stroke-linejoin:miter;stroke-width:0.5;"/>
   </g>
   <g id="line2d_38">
    <path clip-path="url(#p5fa0b21b67)" d="M 295.2 257.890909 
L 237.099093 291.376416 
L 249.03214 373.799153 
L 318.28393 342.026849 
L 332.550583 298.118605 
L 295.2 257.890909 
" style="fill:none;stroke:#0000ff;stroke-linecap:square;"/>
   </g>
   <g id="line2d_39">
    <path clip-path="url(#p5fa0b21b67)" d="M 295.2 270.981818 
L 257.849417 298.118605 
L 249.03214 373.799153 
L 331.108335 359.678129 
L 345.000778 294.073292 
L 295.2 270.981818 
" style="fill:none;stroke:#008000;stroke-linecap:square;"/>
   </g>
   <g id="line2d_40">
    <path clip-path="url(#p5fa0b21b67)" d="M 295.2 253.527273 
L 241.249158 292.724854 
L 261.856546 356.147873 
L 328.543454 356.147873 
L 349.150842 292.724854 
L 295.2 253.527273 
" style="fill:none;stroke:#ff0000;stroke-linecap:square;"/>
   </g>
   <g id="patch_12">
    <path d="M 295.2 231.709091 
L 220.498834 285.982665 
L 249.03214 373.799153 
L 341.36786 373.799153 
L 369.901166 285.982665 
L 295.2 231.709091 
" style="fill:none;stroke:#ffffff;stroke-linecap:square;stroke-linejoin:miter;"/>
   </g>
   <g id="legend_2">
    <g id="patch_13">
     <path d="M 358.036364 239.563636 
L 393.670542 239.563636 
L 393.670542 206.938671 
L 358.036364 206.938671 
z
" style="fill:#e5e5e5;stroke:#ffffff;stroke-linejoin:miter;stroke-width:0.5;"/>
    </g>
    <g id="line2d_41">
     <path d="M 363.867364 213.757557 
L 375.529364 213.757557 
" style="fill:none;stroke:#0000ff;stroke-linecap:square;"/>
    </g>
    <g id="line2d_42"/>
    <g id="text_32">
     <!-- A -->
     <defs>
      <path d="M 46.875 28.5625 
L 33.640625 64.84375 
L 20.453125 28.5625 
z
M 57.171875 0 
L 49.609375 21 
L 17.671875 21 
L 10.109375 0 
L 0.875 0 
L 28.125 73.578125 
L 39.703125 73.578125 
L 66.890625 0 
z
" id="Meiryo-41"/>
     </defs>
     <g transform="translate(384.692363636 216.673056676)scale(0.0833 -0.0833)">
      <use xlink:href="#Meiryo-41"/>
     </g>
    </g>
    <g id="line2d_43">
     <path d="M 363.867364 222.688879 
L 375.529364 222.688879 
" style="fill:none;stroke:#008000;stroke-linecap:square;"/>
    </g>
    <g id="line2d_44"/>
    <g id="text_33">
     <!-- B -->
     <defs>
      <path d="M 9.03125 0 
L 9.03125 73.578125 
L 30.71875 73.578125 
Q 35.6875 73.578125 39.171875 73.375 
Q 42.671875 73.1875 46.359375 72.109375 
Q 50.046875 71.046875 52.6875 68.875 
Q 55.328125 66.703125 56.59375 63.765625 
Q 57.859375 60.84375 57.859375 57.078125 
Q 57.859375 47.3125 48 42.046875 
L 48 41.65625 
Q 55.46875 40.09375 59.671875 35.078125 
Q 63.875 30.078125 63.875 22.65625 
Q 63.875 12.15625 56.328125 6.078125 
Q 48.78125 0 34.8125 0 
z
M 18.109375 65.875 
L 18.109375 43.5 
L 31.25 43.5 
Q 40.765625 43.5 44.578125 46.578125 
Q 48.390625 49.65625 48.390625 56.0625 
Q 48.390625 60.5 45.359375 63.1875 
Q 42.328125 65.875 30.125 65.875 
z
M 18.109375 35.984375 
L 18.109375 7.71875 
L 31.34375 7.71875 
Q 45.359375 7.71875 49.875 11.59375 
Q 54.390625 15.484375 54.390625 22.078125 
Q 54.390625 26.375 52.734375 29.421875 
Q 51.078125 32.46875 47.53125 34.21875 
Q 44 35.984375 33.796875 35.984375 
z
" id="Meiryo-42"/>
     </defs>
     <g transform="translate(384.692363636 225.604378551)scale(0.0833 -0.0833)">
      <use xlink:href="#Meiryo-42"/>
     </g>
    </g>
    <g id="line2d_45">
     <path d="M 363.867364 231.6202 
L 375.529364 231.6202 
" style="fill:none;stroke:#ff0000;stroke-linecap:square;"/>
    </g>
    <g id="line2d_46"/>
    <g id="text_34">
     <!-- C -->
     <defs>
      <path d="M 39.75 -1.3125 
Q 23.25 -1.3125 13.890625 8.640625 
Q 4.546875 18.609375 4.546875 36.71875 
Q 4.546875 54.5 14.03125 64.703125 
Q 23.53125 74.90625 39.796875 74.90625 
Q 51.46875 74.90625 64.109375 68.3125 
L 64.109375 57.625 
L 63.421875 57.625 
Q 51.953125 67.234375 39.203125 67.234375 
Q 27.59375 67.234375 20.796875 59.15625 
Q 14.015625 51.078125 14.015625 36.71875 
Q 14.015625 22.46875 20.921875 14.421875 
Q 27.828125 6.390625 39.3125 6.390625 
Q 45.515625 6.390625 51.125 8.375 
Q 56.734375 10.359375 63.421875 16.109375 
L 64.109375 16.109375 
L 64.109375 5.375 
Q 54.734375 0.921875 49.53125 -0.1875 
Q 44.34375 -1.3125 39.75 -1.3125 
" id="Meiryo-43"/>
     </defs>
     <g transform="translate(384.692363636 234.535700426)scale(0.0833 -0.0833)">
      <use xlink:href="#Meiryo-43"/>
     </g>
    </g>
   </g>
  </g>
 </g>
 <defs>
  <clipPath id="p5fa0b21b67">
   <path d="M 295.2 231.709091 
L 220.498834 285.982665 
L 249.03214 373.799153 
L 341.36786 373.799153 
L 369.901166 285.982665 
z
"/>
  </clipPath>
  <clipPath id="pece47af3cc">
   <path d="M 295.2 43.2 
L 220.498834 97.473574 
L 249.03214 185.290062 
L 341.36786 185.290062 
L 369.901166 97.473574 
z
"/>
  </clipPath>
 </defs>
</svg>
